TW-Sung-Plus-98_1.sfdir
StartChar: exclam
Encoding: 33 33 4
Width: 512
Flags: W
LayerCount: 2
Back
Fore
SplineSet
268 144 m 1,0,-1
 248 144 l 1,1,-1
 200 623 l 2,2,3
 198 642 198 642 206 655 c 256,4,5
 214 668 214 668 224 674 c 0,6,7
 236 680 236 680 256 681 c 0,8,9
 278 681 278 681 288 674 c 0,10,11
 298 668 298 668 306 655 c 256,12,13
 314 642 314 642 312 623 c 2,14,-1
 268 144 l 1,0,-1
240 68 m 1,15,16
 272 68 272 68 287 60 c 256,17,18
 302 52 302 52 311 36 c 256,19,20
 320 20 320 20 320 3 c 0,21,22
 320 -13 320 -13 311 -28 c 0,23,24
 302 -44 302 -44 288 -52 c 256,25,26
 274 -60 274 -60 256 -60 c 256,27,28
 238 -60 238 -60 224 -52 c 0,29,30
 209 -44 209 -44 200 -29 c 0,31,32
 192 -14 192 -14 192 3 c 256,33,34
 192 20 192 20 200 36 c 256,35,36
 208 52 208 52 240 68 c 1,15,16
EndSplineSet
EndChar
StartChar: quotedbl
Encoding: 34 34 5
Width: 512
Flags: W
LayerCount: 2
Back
Fore
SplineSet
234 754 m 2,0,-1
 201 500 l 2,1,2
 199 488 199 488 189 488 c 256,3,4
 179 488 179 488 178 500 c 2,5,-1
 145 754 l 2,6,7
 142 780 142 780 153 798 c 0,8,9
 165 816 165 816 189 816 c 256,10,11
 213 816 213 816 225 798 c 256,12,13
 237 780 237 780 234 754 c 2,0,-1
373 754 m 2,14,-1
 341 500 l 2,15,16
 339 488 339 488 329 488 c 0,17,18
 318 488 318 488 317 500 c 2,19,-1
 283 754 l 2,20,21
 279 780 279 780 291 798 c 256,22,23
 303 816 303 816 327 816 c 256,24,25
 351 816 351 816 363 798 c 0,26,27
 376 780 376 780 373 754 c 2,14,-1
EndSplineSet
EndChar
StartChar: numbersign
Encoding: 35 35 6
Width: 512
Flags: W
LayerCount: 2
Back
Fore
SplineSet
172 126 m 1,0,-1
 146 -42 l 1,1,-1
 108 -42 l 1,2,-1
 135 126 l 1,3,-1
 36 126 l 1,4,-1
 47 194 l 1,5,-1
 146 194 l 1,6,-1
 182 424 l 1,7,-1
 75 424 l 1,8,-1
 86 491 l 1,9,-1
 192 491 l 1,10,-1
 220 664 l 1,11,-1
 258 664 l 1,12,-1
 230 491 l 1,13,-1
 338 491 l 1,14,-1
 365 664 l 1,15,-1
 403 664 l 1,16,-1
 376 491 l 1,17,-1
 476 491 l 1,18,-1
 464 424 l 1,19,-1
 365 424 l 1,20,-1
 328 194 l 1,21,-1
 446 194 l 1,22,-1
 434 126 l 1,23,-1
 318 126 l 1,24,-1
 292 -42 l 1,25,-1
 254 -42 l 1,26,-1
 280 126 l 1,27,-1
 172 126 l 1,0,-1
184 194 m 1,28,-1
 291 194 l 1,29,-1
 327 424 l 1,30,-1
 220 424 l 1,31,-1
 184 194 l 1,28,-1
EndSplineSet
EndChar
StartChar: dollar
Encoding: 36 36 7
Width: 512
Flags: W
LayerCount: 2
Back
Fore
SplineSet
272 348 m 1,0,1
 287 342 287 342 302 336 c 0,2,3
 318 330 318 330 338 321 c 256,4,5
 358 312 358 312 376 302 c 256,6,7
 394 292 394 292 415 273 c 256,8,9
 436 254 436 254 448 228 c 0,10,11
 459 203 459 203 462 184 c 0,12,13
 466 166 466 166 466 146 c 0,14,15
 466 127 466 127 464 108 c 0,16,17
 460 82 460 82 448 52 c 0,18,19
 436 23 436 23 415 4 c 0,20,21
 394 -16 394 -16 378 -26 c 0,22,23
 363 -35 363 -35 348 -41 c 0,24,25
 332 -47 332 -47 316 -51 c 0,26,27
 300 -56 300 -56 291 -56 c 2,28,-1
 273 -58 l 1,29,-1
 273 -140 l 1,30,-1
 238 -140 l 1,31,-1
 238 -58 l 1,32,33
 228 -58 228 -58 221 -58 c 0,34,35
 214 -57 214 -57 201 -54 c 0,36,37
 188 -52 188 -52 173 -48 c 256,38,39
 158 -44 158 -44 143 -38 c 256,40,41
 128 -32 128 -32 113 -22 c 256,42,43
 98 -12 98 -12 86 0 c 0,44,45
 74 11 74 11 66 24 c 0,46,47
 58 36 58 36 54 48 c 256,48,49
 50 60 50 60 48 72 c 256,50,51
 46 84 46 84 46 100 c 256,52,53
 46 116 46 116 50 130 c 0,54,55
 54 141 54 141 62 150 c 0,56,57
 69 160 69 160 78 164 c 0,58,59
 88 168 88 168 97 168 c 0,60,61
 105 168 105 168 116 164 c 0,62,63
 126 160 126 160 132 154 c 256,64,65
 138 148 138 148 142 137 c 256,66,67
 146 126 146 126 146 114 c 0,68,69
 147 102 147 102 136 89 c 0,70,71
 130 83 130 83 119 76 c 0,72,73
 108 68 108 68 103 62 c 256,74,75
 98 56 98 56 96 46 c 0,76,77
 94 34 94 34 104 20 c 0,78,79
 112 7 112 7 125 -1 c 256,80,81
 138 -9 138 -9 150 -16 c 0,82,83
 162 -22 162 -22 174 -25 c 256,84,85
 186 -28 186 -28 201 -31 c 256,86,87
 216 -34 216 -34 224 -34 c 2,88,-1
 238 -34 l 1,89,-1
 238 294 l 1,90,91
 211 303 211 303 166 322 c 0,92,93
 122 340 122 340 92 384 c 0,94,95
 61 428 61 428 60 474 c 0,96,97
 58 520 58 520 71 554 c 0,98,99
 84 589 84 589 108 616 c 0,100,101
 132 642 132 642 156 654 c 0,102,103
 180 667 180 667 197 672 c 0,104,105
 214 676 214 676 224 678 c 2,106,-1
 238 679 l 1,107,-1
 238 760 l 1,108,-1
 273 760 l 1,109,-1
 272 679 l 1,110,111
 284 677 284 677 294 676 c 0,112,113
 303 675 303 675 318 672 c 0,114,115
 332 668 332 668 353 660 c 256,116,117
 374 652 374 652 396 634 c 256,118,119
 418 616 418 616 430 591 c 256,120,121
 442 566 442 566 442 540 c 256,122,123
 442 514 442 514 437 500 c 0,124,125
 430 482 430 482 417 473 c 256,126,127
 404 464 404 464 388 464 c 0,128,129
 378 464 378 464 370 467 c 0,130,131
 361 470 361 470 355 476 c 0,132,133
 349 483 349 483 346 492 c 0,134,135
 342 500 342 500 344 511 c 0,136,137
 344 519 344 519 348 527 c 256,138,139
 352 535 352 535 357 540 c 0,140,141
 362 544 362 544 371 552 c 0,142,143
 380 559 380 559 384 565 c 256,144,145
 388 571 388 571 388 581 c 0,146,147
 388 592 388 592 384 602 c 0,148,149
 376 618 376 618 359 628 c 0,150,151
 342 637 342 637 320 644 c 0,152,153
 300 652 300 652 290 652 c 2,154,-1
 272 654 l 1,155,-1
 272 348 l 1,0,1
272 -34 m 1,156,157
 278 -34 278 -34 284 -33 c 0,158,159
 291 -32 291 -32 304 -30 c 0,160,161
 318 -27 318 -27 336 -20 c 0,162,163
 353 -12 353 -12 372 5 c 256,164,165
 391 22 391 22 402 47 c 0,166,167
 414 72 414 72 415 90 c 256,168,169
 416 108 416 108 416 117 c 0,170,171
 416 149 416 149 408 174 c 0,172,173
 399 200 399 200 386 216 c 0,174,175
 374 232 374 232 350 248 c 256,176,177
 326 264 326 264 291 278 c 2,178,-1
 272 285 l 1,179,-1
 272 -34 l 1,156,157
238 359 m 1,180,-1
 238 654 l 1,181,182
 228 653 228 653 212 650 c 0,183,184
 197 648 197 648 176 638 c 0,185,186
 156 627 156 627 139 608 c 0,187,188
 122 588 122 588 113 563 c 256,189,190
 104 538 104 538 104 508 c 0,191,192
 104 477 104 477 114 454 c 0,193,194
 125 430 125 430 142 415 c 0,195,196
 158 400 158 400 178 387 c 256,197,198
 198 374 198 374 224 364 c 2,199,-1
 238 359 l 1,180,-1
EndSplineSet
EndChar
StartChar: percent
Encoding: 37 37 8
Width: 512
Flags: W
LayerCount: 2
Back
Fore
SplineSet
126 292 m 0,0,1
 112 292 112 292 99 295 c 256,2,3
 86 298 86 298 75 306 c 0,4,5
 64 313 64 313 54 326 c 0,6,7
 45 338 45 338 38 352 c 0,8,9
 32 367 32 367 28 384 c 0,10,11
 25 402 25 402 24 414 c 0,12,13
 22 426 22 426 20 444 c 256,14,15
 18 462 18 462 18 488 c 0,16,17
 18 512 18 512 20 535 c 256,18,19
 22 558 22 558 27 580 c 256,20,21
 32 602 32 602 42 622 c 256,22,23
 52 642 52 642 65 655 c 256,24,25
 78 668 78 668 94 673 c 256,26,27
 110 678 110 678 126 679 c 0,28,29
 140 679 140 679 156 674 c 0,30,31
 171 670 171 670 184 658 c 256,32,33
 197 646 197 646 207 630 c 256,34,35
 217 614 217 614 222 595 c 0,36,37
 228 576 228 576 231 555 c 256,38,39
 234 534 234 534 234 518 c 0,40,41
 235 502 235 502 235 487 c 0,42,43
 235 473 235 473 234 452 c 0,44,45
 232 431 232 431 230 416 c 0,46,47
 228 402 228 402 223 383 c 256,48,49
 218 364 218 364 210 348 c 0,50,51
 202 331 202 331 193 321 c 256,52,53
 184 311 184 311 172 304 c 0,54,55
 161 297 161 297 148 294 c 0,56,57
 136 292 136 292 126 292 c 0,0,1
127 657 m 0,58,59
 117 656 117 656 108 650 c 0,60,61
 100 644 100 644 93 631 c 256,62,63
 86 618 86 618 82 604 c 256,64,65
 78 590 78 590 76 574 c 0,66,67
 73 558 73 558 70 530 c 0,68,69
 68 504 68 504 69 488 c 0,70,71
 69 476 69 476 70 448 c 0,72,73
 72 419 72 419 73 407 c 256,74,75
 74 395 74 395 76 384 c 0,76,77
 79 372 79 372 82 359 c 0,78,79
 86 346 86 346 91 337 c 256,80,81
 96 328 96 328 105 320 c 0,82,83
 114 313 114 313 127 313 c 0,84,85
 137 313 137 313 144 318 c 0,86,87
 151 322 151 322 156 328 c 0,88,89
 161 335 161 335 166 346 c 0,90,91
 171 358 171 358 174 370 c 256,92,93
 177 382 177 382 180 403 c 0,94,95
 182 424 182 424 183 441 c 256,96,97
 184 458 184 458 184 487 c 256,98,99
 184 516 184 516 184 534 c 0,100,101
 183 551 183 551 182 568 c 0,102,103
 180 586 180 586 176 603 c 0,104,105
 171 620 171 620 164 633 c 256,106,107
 157 646 157 646 146 652 c 0,108,109
 136 657 136 657 127 657 c 0,58,59
452 686 m 1,110,-1
 480 669 l 1,111,-1
 59 -55 l 1,112,-1
 32 -40 l 1,113,-1
 452 686 l 1,110,-1
378 -64 m 0,114,115
 366 -64 366 -64 352 -61 c 256,116,117
 338 -58 338 -58 326 -50 c 0,118,119
 314 -43 314 -43 306 -30 c 0,120,121
 297 -18 297 -18 290 -4 c 0,122,123
 284 11 284 11 280 28 c 0,124,125
 276 46 276 46 274 56 c 0,126,127
 273 66 273 66 272 88 c 0,128,129
 270 111 270 111 270 132 c 0,130,131
 270 152 270 152 272 176 c 0,132,133
 274 202 274 202 279 223 c 256,134,135
 284 244 284 244 294 265 c 256,136,137
 304 286 304 286 317 299 c 256,138,139
 330 312 330 312 346 317 c 256,140,141
 362 322 362 322 378 323 c 0,142,143
 392 323 392 323 407 318 c 0,144,145
 422 314 422 314 435 302 c 256,146,147
 448 290 448 290 458 274 c 256,148,149
 468 258 468 258 474 239 c 256,150,151
 480 220 480 220 483 198 c 256,152,153
 486 176 486 176 486 162 c 0,154,155
 487 146 487 146 487 130 c 0,156,157
 487 112 487 112 486 96 c 0,158,159
 484 79 484 79 482 60 c 256,160,161
 480 41 480 41 475 26 c 0,162,163
 470 10 470 10 462 -8 c 0,164,165
 453 -26 453 -26 444 -35 c 0,166,167
 436 -44 436 -44 424 -52 c 0,168,169
 412 -59 412 -59 399 -62 c 0,170,171
 386 -64 386 -64 378 -64 c 0,114,115
376 298 m 0,172,173
 366 297 366 297 358 292 c 0,174,175
 350 286 350 286 344 273 c 0,176,177
 339 260 339 260 334 245 c 0,178,179
 330 230 330 230 328 216 c 0,180,181
 326 201 326 201 324 174 c 0,182,183
 322 146 322 146 322 130 c 0,184,185
 322 115 322 115 324 92 c 0,186,187
 325 68 325 68 326 54 c 0,188,189
 328 40 328 40 330 26 c 256,190,191
 332 12 332 12 335 2 c 256,192,193
 338 -8 338 -8 343 -18 c 0,194,195
 348 -29 348 -29 356 -36 c 0,196,197
 362 -42 362 -42 376 -42 c 0,198,199
 385 -42 385 -42 393 -38 c 256,200,201
 401 -34 401 -34 406 -28 c 256,202,203
 411 -22 411 -22 416 -10 c 0,204,205
 420 1 420 1 423 12 c 0,206,207
 426 24 426 24 429 46 c 256,208,209
 432 68 432 68 433 84 c 256,210,211
 434 100 434 100 434 130 c 0,212,213
 434 159 434 159 434 177 c 0,214,215
 433 193 433 193 431 212 c 0,216,217
 429 230 429 230 425 245 c 256,218,219
 421 260 421 260 414 274 c 0,220,221
 406 288 406 288 396 293 c 256,222,223
 386 298 386 298 376 298 c 0,172,173
EndSplineSet
EndChar
StartChar: ampersand
Encoding: 38 38 9
Width: 512
Flags: W
LayerCount: 2
Back
Fore
SplineSet
489 98 m 1,0,1
 485 72 485 72 482 54 c 256,2,3
 479 36 479 36 470 12 c 0,4,5
 462 -12 462 -12 452 -25 c 256,6,7
 442 -38 442 -38 424 -48 c 0,8,9
 406 -57 406 -57 390 -57 c 0,10,11
 372 -57 372 -57 355 -48 c 256,12,13
 338 -39 338 -39 326 -26 c 0,14,15
 314 -14 314 -14 308 -4 c 2,16,-1
 298 10 l 1,17,18
 290 0 290 0 283 -7 c 256,19,20
 276 -14 276 -14 260 -27 c 256,21,22
 244 -40 244 -40 223 -50 c 256,23,24
 202 -60 202 -60 170 -60 c 0,25,26
 152 -60 152 -60 135 -56 c 0,27,28
 118 -51 118 -51 99 -40 c 0,29,30
 80 -30 80 -30 62 -2 c 0,31,32
 43 25 43 25 36 46 c 0,33,34
 30 68 30 68 28 92 c 0,35,36
 26 117 26 117 26 138 c 0,37,38
 26 174 26 174 35 204 c 256,39,40
 44 234 44 234 54 253 c 256,41,42
 64 272 64 272 77 288 c 256,43,44
 90 304 90 304 106 320 c 256,45,46
 122 336 122 336 132 344 c 2,47,-1
 146 355 l 1,48,49
 141 369 141 369 137 381 c 256,50,51
 133 393 133 393 126 420 c 0,52,53
 120 446 120 446 116 466 c 0,54,55
 113 486 113 486 112 502 c 0,56,57
 112 518 112 518 114 538 c 0,58,59
 116 556 116 556 121 578 c 256,60,61
 126 600 126 600 137 620 c 0,62,63
 148 639 148 639 165 654 c 0,64,65
 182 670 182 670 196 675 c 256,66,67
 210 680 210 680 224 680 c 0,68,69
 252 681 252 681 274 672 c 0,70,71
 297 662 297 662 312 646 c 0,72,73
 328 630 328 630 336 611 c 0,74,75
 343 592 343 592 344 564 c 0,76,77
 344 536 344 536 338 510 c 0,78,79
 330 482 330 482 313 456 c 0,80,81
 296 431 296 431 272 410 c 0,82,83
 248 390 248 390 234 380 c 2,84,-1
 205 360 l 1,85,86
 213 338 213 338 224 306 c 0,87,88
 236 274 236 274 261 216 c 256,89,90
 286 158 286 158 306 122 c 2,91,-1
 324 88 l 1,92,93
 332 104 332 104 337 115 c 256,94,95
 342 126 342 126 348 143 c 256,96,97
 354 160 354 160 364 188 c 0,98,99
 373 216 373 216 376 229 c 0,100,101
 378 242 378 242 380 262 c 0,102,103
 382 283 382 283 378 293 c 0,104,105
 374 302 374 302 368 308 c 256,106,107
 362 314 362 314 351 318 c 256,108,109
 340 322 340 322 324 322 c 2,110,-1
 311 322 l 1,111,-1
 311 344 l 1,112,-1
 478 344 l 1,113,-1
 478 322 l 1,114,-1
 468 322 l 2,115,116
 450 322 450 322 440 313 c 256,117,118
 430 304 430 304 424 292 c 256,119,120
 418 280 418 280 412 260 c 2,121,-1
 396 212 l 2,122,123
 390 194 390 194 383 173 c 256,124,125
 376 152 376 152 367 131 c 256,126,127
 358 110 358 110 351 94 c 2,128,-1
 336 63 l 1,129,130
 342 53 342 53 348 44 c 256,131,132
 354 35 354 35 365 22 c 0,133,134
 376 10 376 10 387 4 c 0,135,136
 398 -1 398 -1 406 0 c 0,137,138
 414 0 414 0 423 3 c 256,139,140
 432 6 432 6 440 17 c 0,141,142
 447 28 447 28 452 45 c 0,143,144
 458 62 458 62 462 80 c 2,145,-1
 468 100 l 1,146,-1
 489 98 l 1,0,1
285 31 m 1,147,148
 268 63 268 63 258 84 c 0,149,150
 247 104 247 104 230 142 c 0,151,152
 213 181 213 181 198 216 c 0,153,154
 184 252 184 252 174 280 c 2,155,-1
 156 328 l 1,156,157
 144 318 144 318 130 303 c 256,158,159
 116 288 116 288 104 261 c 0,160,161
 93 234 93 234 88 205 c 256,162,163
 83 176 83 176 82 152 c 0,164,165
 82 128 82 128 86 104 c 0,166,167
 89 78 89 78 96 57 c 0,168,169
 102 36 102 36 117 17 c 256,170,171
 132 -2 132 -2 153 -12 c 256,172,173
 174 -22 174 -22 198 -20 c 0,174,175
 218 -20 218 -20 229 -14 c 0,176,177
 240 -9 240 -9 255 2 c 0,178,179
 270 14 270 14 274 19 c 2,180,-1
 285 31 l 1,147,148
196 389 m 1,181,182
 206 397 206 397 217 406 c 0,183,184
 228 414 228 414 241 426 c 0,185,186
 254 437 254 437 267 456 c 0,187,188
 280 476 280 476 287 496 c 0,189,190
 294 517 294 517 295 550 c 0,191,192
 296 582 296 582 292 602 c 0,193,194
 286 628 286 628 269 642 c 256,195,196
 252 656 252 656 230 655 c 0,197,198
 200 653 200 653 185 630 c 0,199,200
 170 608 170 608 166 584 c 0,201,202
 162 562 162 562 164 542 c 0,203,204
 164 530 164 530 166 509 c 0,205,206
 169 488 169 488 173 469 c 256,207,208
 177 450 177 450 182 434 c 2,209,-1
 196 389 l 1,181,182
EndSplineSet
EndChar
StartChar: quotesingle
Encoding: 39 39 10
Width: 512
Flags: W
LayerCount: 2
Back
Fore
SplineSet
218 719 m 2,0,-1
 39 536 l 2,1,2
 31 528 31 528 24 534 c 0,3,4
 16 540 16 540 20 550 c 2,5,-1
 146 772 l 2,6,7
 159 795 159 795 180 803 c 0,8,9
 200 811 200 811 219 796 c 0,10,11
 238 782 238 782 237 760 c 0,12,13
 236 737 236 737 218 719 c 2,0,-1
EndSplineSet
EndChar
StartChar: parenleft
Encoding: 40 40 11
Width: 512
Flags: W
LayerCount: 2
Back
Fore
SplineSet
478 782 m 1,0,-1
 482 770 l 1,1,2
 466 758 466 758 452 747 c 256,3,4
 438 736 438 736 420 720 c 0,5,6
 401 704 401 704 374 678 c 0,7,8
 348 652 348 652 330 628 c 0,9,10
 312 603 312 603 298 580 c 0,11,12
 284 558 284 558 274 534 c 256,13,14
 264 510 264 510 254 482 c 0,15,16
 245 454 245 454 238 425 c 0,17,18
 232 396 232 396 230 370 c 0,19,20
 228 343 228 343 228 306 c 256,21,22
 228 269 228 269 232 230 c 0,23,24
 236 190 236 190 246 154 c 0,25,26
 255 118 255 118 272 82 c 0,27,28
 290 46 290 46 309 19 c 256,29,30
 328 -8 328 -8 353 -36 c 256,31,32
 378 -64 378 -64 397 -83 c 256,33,34
 416 -102 416 -102 436 -119 c 256,35,36
 456 -136 456 -136 469 -145 c 2,37,-1
 483 -156 l 1,38,-1
 477 -166 l 1,39,40
 461 -158 461 -158 448 -151 c 0,41,42
 434 -144 434 -144 410 -128 c 256,43,44
 386 -112 386 -112 359 -91 c 256,45,46
 332 -70 332 -70 307 -42 c 256,47,48
 282 -14 282 -14 262 14 c 0,49,50
 242 43 242 43 225 76 c 0,51,52
 208 108 208 108 199 135 c 256,53,54
 190 162 190 162 186 186 c 0,55,56
 181 210 181 210 178 241 c 0,57,58
 174 272 174 272 174 304 c 256,59,60
 174 336 174 336 176 365 c 256,61,62
 178 394 178 394 184 424 c 256,63,64
 190 454 190 454 202 488 c 0,65,66
 214 523 214 523 232 556 c 0,67,68
 251 590 251 590 270 615 c 0,69,70
 290 640 290 640 308 658 c 256,71,72
 326 676 326 676 346 693 c 0,73,74
 365 710 365 710 380 721 c 0,75,76
 396 732 396 732 424 750 c 0,77,78
 452 770 452 770 465 776 c 2,79,-1
 478 782 l 1,0,-1
EndSplineSet
EndChar
StartChar: parenright
Encoding: 41 41 12
Width: 512
Flags: W
LayerCount: 2
Back
Fore
SplineSet
34 780 m 1,0,1
 43 775 43 775 52 770 c 0,2,3
 62 765 62 765 89 748 c 0,4,5
 116 730 116 730 131 719 c 256,6,7
 146 708 146 708 166 691 c 256,8,9
 186 674 186 674 204 656 c 256,10,11
 222 638 222 638 241 613 c 256,12,13
 260 588 260 588 278 554 c 0,14,15
 297 521 297 521 310 486 c 0,16,17
 322 452 322 452 328 422 c 0,18,19
 333 392 333 392 335 363 c 256,20,21
 337 334 337 334 338 305 c 0,22,23
 338 276 338 276 334 240 c 0,24,25
 331 214 331 214 326 190 c 256,26,27
 321 166 321 166 312 140 c 0,28,29
 304 114 304 114 286 80 c 256,30,31
 268 46 268 46 249 19 c 256,32,33
 230 -8 230 -8 204 -37 c 256,34,35
 178 -66 178 -66 152 -87 c 256,36,37
 126 -108 126 -108 100 -126 c 256,38,39
 74 -144 74 -144 60 -150 c 2,40,-1
 35 -162 l 1,41,-1
 29 -152 l 1,42,43
 38 -146 38 -146 48 -138 c 0,44,45
 59 -129 59 -129 76 -114 c 0,46,47
 93 -100 93 -100 115 -78 c 256,48,49
 137 -56 137 -56 160 -31 c 0,50,51
 182 -6 182 -6 202 23 c 256,52,53
 222 52 222 52 239 87 c 256,54,55
 256 122 256 122 266 158 c 0,56,57
 275 195 275 195 279 234 c 256,58,59
 283 273 283 273 284 308 c 0,60,61
 284 342 284 342 282 368 c 0,62,63
 279 394 279 394 272 423 c 0,64,65
 266 452 266 452 257 480 c 256,66,67
 248 508 248 508 238 532 c 0,68,69
 227 556 227 556 214 578 c 0,70,71
 200 601 200 601 182 626 c 0,72,73
 163 650 163 650 136 676 c 0,74,75
 110 702 110 702 90 719 c 256,76,77
 70 736 70 736 54 750 c 2,78,-1
 30 768 l 1,79,-1
 34 780 l 1,0,1
EndSplineSet
EndChar
StartChar: asterisk
Encoding: 42 42 13
Width: 512
Flags: W
LayerCount: 2
Back
Fore
SplineSet
242 331 m 1,0,-1
 212 581 l 2,1,2
 208 607 208 607 218 622 c 0,3,4
 228 638 228 638 252 638 c 256,5,6
 276 638 276 638 288 622 c 256,7,8
 300 606 300 606 296 581 c 2,9,-1
 265 331 l 1,10,-1
 400 473 l 2,11,12
 414 487 414 487 428 488 c 0,13,14
 442 490 442 490 454 483 c 0,15,16
 465 476 465 476 468 466 c 0,17,18
 472 455 472 455 472 447 c 0,19,20
 472 433 472 433 466 423 c 256,21,22
 460 413 460 413 446 405 c 2,23,-1
 276 306 l 1,24,-1
 432 220 l 2,25,26
 454 208 454 208 463 196 c 256,27,28
 472 184 472 184 471 167 c 256,29,30
 470 150 470 150 457 140 c 0,31,32
 444 131 444 131 429 134 c 0,33,34
 414 136 414 136 390 160 c 2,35,-1
 265 286 l 1,36,-1
 296 34 l 2,37,38
 299 10 299 10 288 -4 c 0,39,40
 277 -19 277 -19 254 -18 c 0,41,42
 230 -18 230 -18 219 -4 c 256,43,44
 208 10 208 10 212 34 c 2,45,-1
 242 286 l 1,46,-1
 118 160 l 2,47,48
 94 135 94 135 79 133 c 256,49,50
 64 131 64 131 51 140 c 0,51,52
 38 150 38 150 37 167 c 256,53,54
 36 184 36 184 45 196 c 256,55,56
 54 208 54 208 76 220 c 2,57,-1
 232 306 l 1,58,-1
 62 405 l 2,59,60
 46 413 46 413 41 422 c 0,61,62
 36 432 36 432 36 447 c 0,63,64
 36 455 36 455 39 466 c 0,65,66
 42 476 42 476 54 483 c 256,67,68
 66 490 66 490 80 489 c 256,69,70
 94 488 94 488 108 473 c 2,71,-1
 242 331 l 1,0,-1
EndSplineSet
EndChar
StartChar: plus
Encoding: 43 43 14
Width: 512
Flags: W
LayerCount: 2
Back
Fore
SplineSet
237 650 m 1,0,-1
 276 650 l 1,1,-1
 276 325 l 1,2,-1
 466 325 l 1,3,-1
 466 287 l 1,4,-1
 276 287 l 1,5,-1
 276 -34 l 1,6,-1
 237 -34 l 1,7,-1
 237 287 l 1,8,-1
 45 287 l 1,9,-1
 45 325 l 1,10,-1
 237 325 l 1,11,-1
 237 650 l 1,0,-1
EndSplineSet
EndChar
StartChar: comma
Encoding: 44 44 15
Width: 512
Flags: W
LayerCount: 2
Back
Fore
SplineSet
68 -194 m 1,0,-1
 54 -178 l 1,1,2
 66 -166 66 -166 75 -155 c 256,3,4
 84 -144 84 -144 95 -129 c 256,5,6
 106 -114 106 -114 112 -100 c 0,7,8
 117 -86 117 -86 117 -74 c 0,9,10
 117 -65 117 -65 114 -60 c 0,11,12
 110 -55 110 -55 100 -51 c 2,13,-1
 76 -45 l 2,14,15
 58 -39 58 -39 50 -28 c 0,16,17
 42 -16 42 -16 42 2 c 256,18,19
 42 20 42 20 49 34 c 0,20,21
 57 50 57 50 70 57 c 0,22,23
 84 64 84 64 98 65 c 0,24,25
 114 66 114 66 128 60 c 256,26,27
 142 54 142 54 154 42 c 0,28,29
 165 30 165 30 171 15 c 0,30,31
 176 0 176 0 176 -24 c 0,32,33
 176 -37 176 -37 173 -54 c 0,34,35
 170 -72 170 -72 163 -88 c 256,36,37
 156 -104 156 -104 143 -122 c 256,38,39
 130 -140 130 -140 114 -156 c 256,40,41
 98 -172 98 -172 92 -177 c 2,42,-1
 68 -194 l 1,0,-1
EndSplineSet
EndChar
StartChar: hyphen
Encoding: 45 45 16
Width: 512
Flags: W
LayerCount: 2
Back
Fore
SplineSet
47 324 m 1,0,-1
 466 324 l 1,1,-1
 466 289 l 1,2,-1
 47 289 l 1,3,-1
 47 324 l 1,0,-1
EndSplineSet
EndChar
StartChar: period
Encoding: 46 46 17
Width: 512
Flags: W
LayerCount: 2
Back
Fore
SplineSet
107 71 m 0,0,1
 123 71 123 71 140 62 c 0,2,3
 156 54 156 54 175 3 c 1,4,5
 175 -15 175 -15 166 -30 c 0,6,7
 156 -46 156 -46 140 -55 c 0,8,9
 125 -64 125 -64 107 -64 c 256,10,11
 89 -64 89 -64 73 -55 c 256,12,13
 57 -46 57 -46 48 -30 c 0,14,15
 39 -15 39 -15 39 3 c 256,16,17
 39 21 39 21 48 37 c 0,18,19
 58 53 58 53 74 62 c 256,20,21
 90 71 90 71 107 71 c 0,0,1
EndSplineSet
EndChar
StartChar: slash
Encoding: 47 47 18
Width: 512
Flags: W
LayerCount: 2
Back
Fore
SplineSet
478 753 m 1,0,-1
 66 -150 l 1,1,-1
 36 -134 l 1,2,-1
 446 770 l 1,3,-1
 478 753 l 1,0,-1
EndSplineSet
EndChar
StartChar: zero
Encoding: 48 48 19
Width: 512
Flags: W
LayerCount: 2
Back
Fore
SplineSet
255 -63 m 0,0,1
 245 -63 245 -63 232 -60 c 0,2,3
 218 -58 218 -58 198 -50 c 256,4,5
 178 -42 178 -42 160 -24 c 0,6,7
 142 -7 142 -7 126 24 c 256,8,9
 110 55 110 55 101 84 c 0,10,11
 92 114 92 114 86 152 c 0,12,13
 81 190 81 190 78 226 c 0,14,15
 76 262 76 262 76 305 c 256,16,17
 76 348 76 348 79 393 c 0,18,19
 81 435 81 435 86 470 c 0,20,21
 91 504 91 504 102 539 c 0,22,23
 112 574 112 574 127 600 c 256,24,25
 142 626 142 626 163 646 c 256,26,27
 184 666 184 666 207 675 c 256,28,29
 230 684 230 684 254 684 c 0,30,31
 282 684 282 684 303 674 c 0,32,33
 324 665 324 665 343 648 c 0,34,35
 362 632 362 632 378 609 c 256,36,37
 394 586 394 586 403 562 c 256,38,39
 412 538 412 538 420 509 c 0,40,41
 427 480 427 480 432 450 c 0,42,43
 436 419 436 419 438 378 c 0,44,45
 440 338 440 338 440 304 c 256,46,47
 440 270 440 270 438 240 c 0,48,49
 436 211 436 211 430 165 c 0,50,51
 425 119 425 119 412 77 c 0,52,53
 398 35 398 35 380 10 c 0,54,55
 363 -15 363 -15 345 -30 c 256,56,57
 327 -45 327 -45 311 -52 c 256,58,59
 295 -59 295 -59 280 -61 c 0,60,61
 264 -63 264 -63 255 -63 c 0,0,1
254 650 m 0,62,63
 226 648 226 648 206 634 c 0,64,65
 187 620 187 620 174 590 c 0,66,67
 162 559 162 559 156 522 c 0,68,69
 149 486 149 486 147 456 c 256,70,71
 145 426 145 426 143 375 c 0,72,73
 142 324 142 324 142 307 c 0,74,75
 142 302 142 302 143 260 c 2,76,-1
 145 198 l 2,77,78
 147 164 147 164 154 117 c 0,79,80
 160 70 160 70 174 37 c 0,81,82
 187 4 187 4 202 -8 c 0,83,84
 218 -21 218 -21 230 -26 c 0,85,86
 242 -30 242 -30 256 -29 c 0,87,88
 268 -29 268 -29 281 -25 c 256,89,90
 294 -21 294 -21 311 -8 c 0,91,92
 328 4 328 4 340 33 c 0,93,94
 351 62 351 62 358 112 c 0,95,96
 366 162 366 162 368 185 c 0,97,98
 369 208 369 208 370 252 c 0,99,100
 372 296 372 296 372 314 c 0,101,102
 373 332 373 332 372 373 c 0,103,104
 370 425 370 425 367 458 c 0,105,106
 364 492 364 492 357 525 c 256,107,108
 350 558 350 558 339 584 c 0,109,110
 328 609 328 609 314 624 c 0,111,112
 300 638 300 638 284 644 c 256,113,114
 268 650 268 650 254 650 c 0,62,63
EndSplineSet
EndChar
StartChar: one
Encoding: 49 49 20
Width: 512
Flags: W
LayerCount: 2
Back
Fore
SplineSet
264 682 m 1,0,-1
 288 682 l 1,1,-1
 288 48 l 2,2,3
 288 24 288 24 294 12 c 0,4,5
 299 0 299 0 311 -7 c 0,6,7
 322 -14 322 -14 346 -14 c 2,8,-1
 388 -14 l 1,9,-1
 388 -44 l 1,10,-1
 124 -44 l 1,11,-1
 124 -14 l 1,12,-1
 174 -14 l 2,13,14
 194 -14 194 -14 208 -7 c 0,15,16
 221 0 221 0 228 12 c 0,17,18
 234 24 234 24 234 48 c 2,19,-1
 234 554 l 2,20,21
 234 575 234 575 225 584 c 0,22,23
 216 594 216 594 193 594 c 2,24,-1
 122 594 l 1,25,-1
 122 626 l 1,26,-1
 142 626 l 2,27,28
 160 626 160 626 182 632 c 0,29,30
 205 638 205 638 220 648 c 0,31,32
 236 658 236 658 246 668 c 2,33,-1
 264 682 l 1,0,-1
EndSplineSet
EndChar
StartChar: two
Encoding: 50 50 21
Width: 512
Flags: W
LayerCount: 2
Back
Fore
SplineSet
453 121 m 1,0,-1
 441 -44 l 1,1,-1
 61 -44 l 1,2,-1
 62 -30 l 2,3,4
 62 -22 62 -22 63 -12 c 0,5,6
 65 -2 65 -2 72 30 c 256,7,8
 79 62 79 62 89 87 c 256,9,10
 99 112 99 112 108 127 c 256,11,12
 117 142 117 142 134 165 c 256,13,14
 151 188 151 188 169 207 c 256,15,16
 187 226 187 226 206 243 c 256,17,18
 225 260 225 260 254 284 c 0,19,20
 283 309 283 309 301 324 c 256,21,22
 319 339 319 339 341 362 c 0,23,24
 363 384 363 384 378 420 c 256,25,26
 393 456 393 456 391 508 c 0,27,28
 389 536 389 536 380 564 c 256,29,30
 371 592 371 592 353 611 c 256,31,32
 335 630 335 630 310 639 c 256,33,34
 285 648 285 648 262 650 c 0,35,36
 236 652 236 652 215 646 c 0,37,38
 193 641 193 641 175 632 c 0,39,40
 157 624 157 624 146 616 c 256,41,42
 135 608 135 608 121 590 c 0,43,44
 108 571 108 571 102 550 c 0,45,46
 97 529 97 529 97 517 c 0,47,48
 97 503 97 503 101 496 c 256,49,50
 105 489 105 489 110 486 c 0,51,52
 115 484 115 484 123 481 c 256,53,54
 131 478 131 478 135 474 c 0,55,56
 139 471 139 471 143 464 c 0,57,58
 147 456 147 456 147 446 c 0,59,60
 146 432 146 432 137 422 c 0,61,62
 129 412 129 412 113 412 c 0,63,64
 102 412 102 412 91 417 c 0,65,66
 81 422 81 422 74 434 c 256,67,68
 67 446 67 446 63 458 c 0,69,70
 60 469 60 469 60 492 c 0,71,72
 59 514 59 514 67 544 c 0,73,74
 73 568 73 568 87 592 c 256,75,76
 101 616 101 616 118 631 c 256,77,78
 135 646 135 646 149 654 c 0,79,80
 164 662 164 662 179 668 c 256,81,82
 194 674 194 674 215 678 c 0,83,84
 235 682 235 682 257 682 c 0,85,86
 283 682 283 682 308 677 c 256,87,88
 333 672 333 672 364 655 c 256,89,90
 395 638 395 638 422 602 c 256,91,92
 449 566 449 566 451 518 c 256,93,94
 453 470 453 470 442 435 c 0,95,96
 427 387 427 387 402 360 c 0,97,98
 377 332 377 332 352 312 c 256,99,100
 327 292 327 292 307 276 c 2,101,-1
 277 254 l 2,102,103
 262 243 262 243 239 224 c 0,104,105
 215 206 215 206 199 190 c 0,106,107
 182 174 182 174 169 157 c 0,108,109
 155 140 155 140 146 126 c 0,110,111
 137 113 137 113 129 96 c 0,112,113
 120 80 120 80 117 70 c 0,114,115
 115 60 115 60 107 24 c 2,116,-1
 105 9 l 1,117,-1
 346 9 l 2,118,119
 362 9 362 9 375 12 c 0,120,121
 387 15 387 15 397 28 c 0,122,123
 408 40 408 40 414 64 c 2,124,-1
 427 121 l 1,125,-1
 453 121 l 1,0,-1
EndSplineSet
EndChar
StartChar: three
Encoding: 51 51 22
Width: 512
Flags: W
LayerCount: 2
Back
Fore
SplineSet
232 350 m 1,0,1
 239 349 239 349 244 350 c 0,2,3
 249 350 249 350 261 352 c 256,4,5
 273 354 273 354 292 363 c 0,6,7
 310 372 310 372 327 390 c 256,8,9
 344 408 344 408 351 422 c 0,10,11
 358 435 358 435 362 459 c 0,12,13
 367 483 367 483 368 506 c 0,14,15
 368 528 368 528 364 550 c 0,16,17
 360 566 360 566 353 583 c 256,18,19
 346 600 346 600 332 614 c 0,20,21
 318 627 318 627 301 634 c 0,22,23
 284 642 284 642 268 645 c 0,24,25
 254 648 254 648 238 648 c 0,26,27
 230 648 230 648 218 647 c 256,28,29
 206 646 206 646 192 642 c 0,30,31
 179 638 179 638 168 633 c 0,32,33
 158 628 158 628 148 621 c 256,34,35
 138 614 138 614 131 604 c 256,36,37
 124 594 124 594 120 581 c 256,38,39
 116 568 116 568 118 559 c 0,40,41
 118 553 118 553 120 548 c 0,42,43
 122 544 122 544 125 542 c 0,44,45
 128 539 128 539 134 536 c 0,46,47
 140 534 140 534 147 531 c 256,48,49
 154 528 154 528 160 520 c 256,50,51
 166 512 166 512 166 498 c 256,52,53
 166 484 166 484 156 472 c 0,54,55
 147 461 147 461 132 460 c 0,56,57
 118 460 118 460 104 472 c 0,58,59
 91 483 91 483 86 500 c 0,60,61
 80 518 80 518 82 538 c 0,62,63
 82 550 82 550 84 564 c 0,64,65
 87 578 87 578 94 593 c 0,66,67
 100 608 100 608 111 623 c 256,68,69
 122 638 122 638 140 651 c 256,70,71
 158 664 158 664 179 672 c 256,72,73
 200 680 200 680 218 682 c 0,74,75
 234 684 234 684 250 684 c 0,76,77
 262 684 262 684 275 682 c 0,78,79
 288 681 288 681 308 675 c 0,80,81
 329 669 329 669 350 657 c 256,82,83
 371 645 371 645 390 622 c 0,84,85
 410 598 410 598 419 568 c 256,86,87
 428 538 428 538 427 500 c 0,88,89
 426 483 426 483 422 462 c 0,90,91
 418 442 418 442 406 420 c 256,92,93
 394 398 394 398 379 382 c 0,94,95
 364 367 364 367 348 356 c 0,96,97
 332 346 332 346 324 344 c 2,98,-1
 308 338 l 1,99,100
 315 336 315 336 320 334 c 0,101,102
 326 332 326 332 340 326 c 256,103,104
 354 320 354 320 370 309 c 0,105,106
 385 298 385 298 402 278 c 0,107,108
 420 257 420 257 434 222 c 0,109,110
 448 188 448 188 447 143 c 0,111,112
 446 89 446 89 429 54 c 0,113,114
 412 20 412 20 396 2 c 256,115,116
 380 -16 380 -16 358 -29 c 0,117,118
 337 -42 337 -42 320 -48 c 0,119,120
 302 -55 302 -55 292 -56 c 0,121,122
 281 -58 281 -58 264 -60 c 0,123,124
 246 -62 246 -62 240 -62 c 0,125,126
 230 -62 230 -62 214 -60 c 256,127,128
 198 -58 198 -58 184 -54 c 0,129,130
 169 -51 169 -51 156 -45 c 0,131,132
 144 -39 144 -39 130 -28 c 0,133,134
 115 -18 115 -18 103 -4 c 256,135,136
 91 10 91 10 84 24 c 0,137,138
 76 38 76 38 72 52 c 256,139,140
 68 66 68 66 67 75 c 256,141,142
 66 84 66 84 66 95 c 0,143,144
 66 115 66 115 69 130 c 0,145,146
 72 144 72 144 79 154 c 256,147,148
 86 164 86 164 96 168 c 256,149,150
 106 172 106 172 114 172 c 0,151,152
 121 172 121 172 130 167 c 0,153,154
 138 162 138 162 144 152 c 256,155,156
 150 142 150 142 150 130 c 0,157,158
 149 118 149 118 144 112 c 0,159,160
 138 106 138 106 128 101 c 0,161,162
 119 96 119 96 114 92 c 256,163,164
 109 88 109 88 107 84 c 256,165,166
 105 80 105 80 104 73 c 0,167,168
 104 66 104 66 106 58 c 0,169,170
 108 48 108 48 113 37 c 256,171,172
 118 26 118 26 128 15 c 0,173,174
 139 4 139 4 150 -4 c 0,175,176
 160 -12 160 -12 173 -18 c 0,177,178
 186 -23 186 -23 200 -26 c 0,179,180
 216 -28 216 -28 232 -28 c 0,181,182
 250 -28 250 -28 268 -25 c 256,183,184
 286 -22 286 -22 301 -15 c 256,185,186
 316 -8 316 -8 327 0 c 256,187,188
 338 8 338 8 350 22 c 256,189,190
 362 36 362 36 370 55 c 0,191,192
 379 74 379 74 382 100 c 0,193,194
 386 126 386 126 386 149 c 0,195,196
 386 171 386 171 383 192 c 0,197,198
 380 212 380 212 376 230 c 0,199,200
 371 247 371 247 360 264 c 0,201,202
 350 280 350 280 333 292 c 256,203,204
 316 304 316 304 303 308 c 0,205,206
 290 313 290 313 274 316 c 0,207,208
 258 320 258 320 252 320 c 2,209,-1
 235 322 l 1,210,-1
 232 322 l 1,211,-1
 232 350 l 1,0,1
EndSplineSet
EndChar
StartChar: four
Encoding: 52 52 23
Width: 512
Flags: W
LayerCount: 2
Back
Fore
SplineSet
376 166 m 1,0,-1
 471 166 l 1,1,-1
 471 135 l 1,2,-1
 376 135 l 1,3,-1
 376 37 l 2,4,5
 376 26 376 26 379 16 c 0,6,7
 382 5 382 5 388 0 c 0,8,9
 394 -6 394 -6 404 -10 c 0,10,11
 414 -13 414 -13 428 -13 c 2,12,-1
 454 -13 l 1,13,-1
 454 -44 l 1,14,-1
 236 -44 l 1,15,-1
 236 -13 l 1,16,-1
 272 -13 l 2,17,18
 282 -13 282 -13 292 -10 c 0,19,20
 303 -8 303 -8 308 -2 c 0,21,22
 314 3 314 3 318 12 c 0,23,24
 323 22 323 22 323 37 c 2,25,-1
 323 135 l 1,26,-1
 40 135 l 1,27,-1
 40 163 l 1,28,-1
 351 684 l 1,29,-1
 376 684 l 1,30,-1
 376 166 l 1,0,-1
74 166 m 1,31,-1
 323 166 l 1,32,-1
 323 572 l 1,33,-1
 74 166 l 1,31,-1
EndSplineSet
EndChar
StartChar: five
Encoding: 53 53 24
Width: 512
Flags: W
LayerCount: 2
Back
Fore
SplineSet
125 330 m 1,0,1
 137 344 137 344 147 354 c 0,2,3
 157 365 157 365 178 378 c 0,4,5
 200 390 200 390 223 394 c 256,6,7
 246 398 246 398 268 398 c 0,8,9
 314 396 314 396 345 378 c 256,10,11
 376 360 376 360 398 334 c 0,12,13
 419 308 419 308 428 283 c 0,14,15
 438 258 438 258 442 238 c 0,16,17
 446 217 446 217 446 174 c 256,18,19
 446 131 446 131 434 88 c 0,20,21
 424 56 424 56 408 32 c 0,22,23
 392 7 392 7 372 -12 c 0,24,25
 352 -30 352 -30 327 -42 c 256,26,27
 302 -54 302 -54 284 -57 c 256,28,29
 266 -60 266 -60 252 -61 c 0,30,31
 240 -62 240 -62 230 -62 c 0,32,33
 218 -62 218 -62 204 -60 c 0,34,35
 191 -58 191 -58 176 -54 c 0,36,37
 160 -51 160 -51 141 -42 c 0,38,39
 122 -32 122 -32 108 -18 c 0,40,41
 94 -5 94 -5 84 12 c 0,42,43
 74 28 74 28 70 44 c 0,44,45
 65 60 65 60 64 77 c 0,46,47
 64 94 64 94 66 104 c 0,48,49
 68 116 68 116 75 124 c 0,50,51
 82 131 82 131 90 134 c 0,52,53
 98 138 98 138 111 138 c 0,54,55
 124 137 124 137 134 126 c 0,56,57
 144 116 144 116 143 102 c 0,58,59
 143 94 143 94 140 89 c 0,60,61
 136 84 136 84 134 80 c 2,62,-1
 124 70 l 2,63,64
 120 65 120 65 118 60 c 0,65,66
 115 55 115 55 114 49 c 0,67,68
 114 42 114 42 117 34 c 0,69,70
 119 24 119 24 124 16 c 0,71,72
 128 8 128 8 136 0 c 0,73,74
 145 -8 145 -8 154 -13 c 0,75,76
 164 -18 164 -18 174 -21 c 0,77,78
 185 -24 185 -24 202 -26 c 0,79,80
 218 -28 218 -28 229 -28 c 0,81,82
 245 -28 245 -28 264 -26 c 0,83,84
 284 -23 284 -23 300 -14 c 0,85,86
 316 -4 316 -4 328 7 c 0,87,88
 341 18 341 18 353 36 c 0,89,90
 365 55 365 55 372 76 c 0,91,92
 379 98 379 98 382 122 c 0,93,94
 386 146 386 146 386 167 c 256,95,96
 386 188 386 188 384 207 c 0,97,98
 383 215 383 215 382 228 c 0,99,100
 380 242 380 242 374 263 c 0,101,102
 369 284 369 284 358 304 c 0,103,104
 346 324 346 324 331 338 c 256,105,106
 316 352 316 352 296 360 c 256,107,108
 276 368 276 368 261 368 c 0,109,110
 251 368 251 368 234 366 c 0,111,112
 216 363 216 363 204 358 c 0,113,114
 191 354 191 354 178 346 c 0,115,116
 166 338 166 338 158 330 c 256,117,118
 150 322 150 322 143 312 c 0,119,120
 136 301 136 301 136 299 c 2,121,-1
 132 290 l 1,122,-1
 95 290 l 1,123,-1
 104 662 l 1,124,-1
 431 662 l 1,125,-1
 418 609 l 1,126,-1
 130 609 l 1,127,-1
 125 330 l 1,0,1
EndSplineSet
EndChar
StartChar: six
Encoding: 54 54 25
Width: 512
Flags: W
LayerCount: 2
Back
Fore
SplineSet
134 314 m 1,0,1
 142 323 142 323 149 330 c 0,2,3
 156 338 156 338 174 351 c 0,4,5
 191 364 191 364 216 374 c 0,6,7
 242 384 242 384 270 384 c 0,8,9
 296 384 296 384 324 374 c 256,10,11
 352 364 352 364 376 342 c 0,12,13
 399 320 399 320 412 293 c 0,14,15
 426 266 426 266 432 236 c 0,16,17
 438 207 438 207 437 169 c 0,18,19
 436 143 436 143 432 118 c 0,20,21
 429 92 429 92 420 65 c 0,22,23
 410 38 410 38 398 20 c 256,24,25
 386 2 386 2 374 -10 c 0,26,27
 363 -23 363 -23 356 -28 c 0,28,29
 348 -34 348 -34 336 -42 c 256,30,31
 324 -50 324 -50 310 -55 c 0,32,33
 295 -60 295 -60 280 -62 c 0,34,35
 264 -64 264 -64 253 -64 c 0,36,37
 240 -64 240 -64 229 -62 c 256,38,39
 218 -60 218 -60 202 -55 c 256,40,41
 186 -50 186 -50 169 -39 c 256,42,43
 152 -28 152 -28 138 -11 c 256,44,45
 124 6 124 6 111 35 c 256,46,47
 98 64 98 64 92 88 c 0,48,49
 87 113 87 113 84 132 c 0,50,51
 81 152 81 152 80 168 c 0,52,53
 78 184 78 184 76 210 c 0,54,55
 75 235 75 235 75 259 c 0,56,57
 75 282 75 282 75 304 c 0,58,59
 75 323 75 323 76 343 c 256,60,61
 77 363 77 363 80 396 c 0,62,63
 84 430 84 430 90 458 c 0,64,65
 95 485 95 485 104 514 c 0,66,67
 112 542 112 542 126 571 c 0,68,69
 139 600 139 600 158 625 c 0,70,71
 178 650 178 650 206 666 c 0,72,73
 232 682 232 682 270 683 c 0,74,75
 288 683 288 683 306 680 c 0,76,77
 324 676 324 676 343 668 c 256,78,79
 362 660 362 660 382 641 c 0,80,81
 401 622 401 622 410 598 c 0,82,83
 418 574 418 574 417 550 c 0,84,85
 416 530 416 530 410 518 c 256,86,87
 404 506 404 506 395 498 c 256,88,89
 386 490 386 490 372 492 c 0,90,91
 364 492 364 492 358 496 c 0,92,93
 351 500 351 500 346 508 c 0,94,95
 342 515 342 515 342 524 c 0,96,97
 342 534 342 534 346 545 c 0,98,99
 348 551 348 551 350 556 c 2,100,-1
 358 567 l 2,101,102
 361 572 361 572 362 578 c 0,103,104
 364 583 364 583 364 590 c 0,105,106
 364 596 364 596 362 603 c 0,107,108
 358 613 358 613 346 624 c 0,109,110
 334 636 334 636 322 641 c 256,111,112
 310 646 310 646 298 648 c 256,113,114
 286 650 286 650 278 650 c 256,115,116
 270 650 270 650 256 647 c 0,117,118
 241 644 241 644 232 640 c 0,119,120
 224 637 224 637 212 626 c 256,121,122
 200 615 200 615 189 601 c 256,123,124
 178 587 178 587 168 562 c 0,125,126
 159 537 159 537 152 514 c 0,127,128
 146 490 146 490 143 461 c 256,129,130
 140 432 140 432 137 393 c 256,131,132
 134 354 134 354 134 314 c 1,0,1
134 274 m 1,133,134
 134 247 134 247 134 232 c 0,135,136
 134 216 134 216 136 179 c 256,137,138
 138 142 138 142 142 112 c 256,139,140
 146 82 146 82 153 62 c 256,141,142
 160 42 160 42 170 24 c 256,143,144
 180 6 180 6 192 -7 c 256,145,146
 204 -20 204 -20 220 -26 c 256,147,148
 236 -32 236 -32 254 -32 c 0,149,150
 264 -32 264 -32 275 -30 c 0,151,152
 286 -29 286 -29 297 -23 c 256,153,154
 308 -17 308 -17 318 -10 c 0,155,156
 328 -2 328 -2 336 9 c 0,157,158
 345 20 345 20 354 41 c 0,159,160
 364 62 364 62 370 94 c 0,161,162
 376 125 376 125 377 164 c 0,163,164
 378 202 378 202 375 228 c 0,165,166
 373 247 373 247 368 267 c 0,167,168
 362 287 362 287 349 306 c 256,169,170
 336 325 336 325 321 334 c 256,171,172
 306 343 306 343 292 346 c 0,173,174
 277 350 277 350 265 350 c 0,175,176
 248 350 248 350 233 346 c 256,177,178
 218 342 218 342 202 333 c 256,179,180
 186 324 186 324 171 311 c 256,181,182
 156 298 156 298 150 292 c 2,183,-1
 134 274 l 1,133,134
EndSplineSet
EndChar
StartChar: seven
Encoding: 55 55 26
Width: 512
Flags: W
LayerCount: 2
Back
Fore
SplineSet
460 618 m 1,0,1
 440 592 440 592 422 569 c 256,2,3
 404 546 404 546 386 514 c 0,4,5
 367 482 367 482 352 448 c 0,6,7
 336 414 336 414 330 398 c 256,8,9
 324 382 324 382 318 360 c 0,10,11
 311 339 311 339 306 320 c 0,12,13
 301 300 301 300 296 279 c 0,14,15
 292 258 292 258 289 241 c 256,16,17
 286 224 286 224 283 200 c 0,18,19
 280 175 280 175 280 162 c 0,20,21
 279 148 279 148 278 122 c 0,22,23
 278 96 278 96 276 54 c 256,24,25
 274 12 274 12 274 -10 c 0,26,27
 275 -32 275 -32 271 -42 c 0,28,29
 267 -50 267 -50 260 -56 c 256,30,31
 253 -62 253 -62 240 -63 c 0,32,33
 228 -64 228 -64 218 -54 c 0,34,35
 213 -49 213 -49 210 -38 c 0,36,37
 206 -28 206 -28 208 0 c 2,38,-1
 211 44 l 2,39,40
 212 64 212 64 216 106 c 256,41,42
 220 148 220 148 224 173 c 0,43,44
 229 198 229 198 240 240 c 0,45,46
 250 282 250 282 264 324 c 256,47,48
 278 366 278 366 293 400 c 256,49,50
 308 434 308 434 325 468 c 0,51,52
 342 501 342 501 354 520 c 2,53,-1
 385 569 l 1,54,-1
 409 608 l 1,55,-1
 152 608 l 2,56,57
 128 608 128 608 112 597 c 256,58,59
 96 586 96 586 89 565 c 256,60,61
 82 544 82 544 82 525 c 2,62,-1
 78 484 l 1,63,-1
 51 484 l 1,64,-1
 62 662 l 1,65,-1
 460 662 l 1,66,-1
 460 618 l 1,0,1
EndSplineSet
EndChar
StartChar: eight
Encoding: 56 56 27
Width: 512
Flags: W
LayerCount: 2
Back
Fore
SplineSet
309 345 m 1,0,1
 321 337 321 337 334 328 c 0,2,3
 346 320 346 320 358 312 c 256,4,5
 370 304 370 304 383 292 c 0,6,7
 396 281 396 281 410 264 c 0,8,9
 424 248 424 248 434 225 c 256,10,11
 444 202 444 202 448 179 c 0,12,13
 451 156 451 156 451 140 c 0,14,15
 451 118 451 118 446 97 c 0,16,17
 442 76 442 76 437 62 c 256,18,19
 432 48 432 48 424 34 c 256,20,21
 416 20 416 20 404 7 c 256,22,23
 392 -6 392 -6 378 -18 c 0,24,25
 365 -29 365 -29 354 -35 c 256,26,27
 343 -41 343 -41 330 -46 c 0,28,29
 318 -51 318 -51 304 -54 c 0,30,31
 291 -58 291 -58 276 -59 c 0,32,33
 262 -60 262 -60 252 -60 c 0,34,35
 240 -60 240 -60 226 -59 c 256,36,37
 212 -58 212 -58 200 -55 c 0,38,39
 187 -52 187 -52 174 -46 c 0,40,41
 160 -41 160 -41 146 -32 c 0,42,43
 132 -24 132 -24 122 -14 c 256,44,45
 112 -4 112 -4 102 8 c 256,46,47
 92 20 92 20 83 37 c 256,48,49
 74 54 74 54 69 70 c 0,50,51
 64 85 64 85 62 104 c 0,52,53
 60 122 60 122 60 144 c 0,54,55
 60 168 60 168 65 194 c 0,56,57
 70 219 70 219 85 244 c 0,58,59
 100 270 100 270 118 286 c 256,60,61
 136 302 136 302 154 312 c 0,62,63
 171 323 171 323 183 329 c 2,64,-1
 206 340 l 1,65,66
 187 351 187 351 176 358 c 0,67,68
 164 366 164 366 146 381 c 256,69,70
 128 396 128 396 116 412 c 0,71,72
 103 427 103 427 96 444 c 0,73,74
 88 460 88 460 84 475 c 256,75,76
 80 490 80 490 81 510 c 0,77,78
 81 528 81 528 84 547 c 0,79,80
 88 566 88 566 96 584 c 256,81,82
 104 602 104 602 116 619 c 256,83,84
 128 636 128 636 143 648 c 256,85,86
 158 660 158 660 178 668 c 0,87,88
 197 676 197 676 218 680 c 0,89,90
 238 684 238 684 256 684 c 0,91,92
 272 684 272 684 293 680 c 256,93,94
 314 676 314 676 334 667 c 0,95,96
 353 658 353 658 370 645 c 0,97,98
 386 632 386 632 402 609 c 256,99,100
 418 586 418 586 423 560 c 256,101,102
 428 534 428 534 428 514 c 0,103,104
 428 488 428 488 424 470 c 256,105,106
 420 452 420 452 412 435 c 0,107,108
 405 418 405 418 395 406 c 0,109,110
 385 393 385 393 372 382 c 256,111,112
 359 371 359 371 350 366 c 0,113,114
 342 362 342 362 326 354 c 2,115,-1
 309 345 l 1,0,1
232 326 m 1,116,117
 220 320 220 320 210 314 c 256,118,119
 200 308 200 308 189 300 c 256,120,121
 178 292 178 292 168 282 c 0,122,123
 159 272 159 272 150 259 c 0,124,125
 140 246 140 246 135 233 c 256,126,127
 130 220 130 220 126 203 c 256,128,129
 122 186 122 186 121 169 c 256,130,131
 120 152 120 152 120 136 c 0,132,133
 120 111 120 111 124 84 c 0,134,135
 128 58 128 58 139 40 c 256,136,137
 150 22 150 22 159 12 c 0,138,139
 168 1 168 1 182 -8 c 0,140,141
 196 -18 196 -18 213 -23 c 256,142,143
 230 -28 230 -28 252 -28 c 0,144,145
 270 -28 270 -28 285 -25 c 256,146,147
 300 -22 300 -22 314 -15 c 256,148,149
 328 -8 328 -8 342 3 c 256,150,151
 356 14 356 14 365 29 c 256,152,153
 374 44 374 44 379 59 c 256,154,155
 384 74 384 74 387 94 c 0,156,157
 390 115 390 115 390 132 c 256,158,159
 390 149 390 149 387 164 c 0,160,161
 384 180 384 180 382 189 c 0,162,163
 379 198 379 198 372 212 c 0,164,165
 366 226 366 226 358 238 c 256,166,167
 350 250 350 250 339 260 c 256,168,169
 328 270 328 270 321 275 c 256,170,171
 314 280 314 280 294 293 c 256,172,173
 274 306 274 306 266 309 c 2,174,-1
 244 319 l 1,175,-1
 232 326 l 1,116,117
284 358 m 1,176,177
 291 361 291 361 296 364 c 0,178,179
 302 368 302 368 312 376 c 0,180,181
 323 384 323 384 331 392 c 256,182,183
 339 400 339 400 348 413 c 0,184,185
 356 426 356 426 360 438 c 256,186,187
 364 450 364 450 368 472 c 0,188,189
 372 493 372 493 372 512 c 0,190,191
 372 532 372 532 370 548 c 0,192,193
 367 567 367 567 360 582 c 0,194,195
 354 598 354 598 343 612 c 256,196,197
 332 626 332 626 318 634 c 0,198,199
 305 642 305 642 288 646 c 0,200,201
 272 650 272 650 259 650 c 0,202,203
 245 650 245 650 228 647 c 0,204,205
 212 644 212 644 196 636 c 0,206,207
 180 627 180 627 168 612 c 0,208,209
 156 598 156 598 149 582 c 0,210,211
 142 565 142 565 140 550 c 256,212,213
 138 535 138 535 138 518 c 0,214,215
 138 500 138 500 140 490 c 0,216,217
 142 477 142 477 149 464 c 256,218,219
 156 451 156 451 166 438 c 0,220,221
 176 426 176 426 186 418 c 256,222,223
 196 410 196 410 212 400 c 256,224,225
 228 390 228 390 242 381 c 256,226,227
 256 372 256 372 264 368 c 2,228,-1
 284 358 l 1,176,177
EndSplineSet
EndChar
StartChar: nine
Encoding: 57 57 28
Width: 512
Flags: W
LayerCount: 2
Back
Fore
SplineSet
378 308 m 1,0,1
 364 294 364 294 353 284 c 256,2,3
 342 274 342 274 329 265 c 256,4,5
 316 256 316 256 302 249 c 0,6,7
 287 242 287 242 268 237 c 0,8,9
 250 232 250 232 222 233 c 0,10,11
 208 233 208 233 198 236 c 0,12,13
 187 238 187 238 176 242 c 0,14,15
 166 246 166 246 151 256 c 256,16,17
 136 266 136 266 126 276 c 0,18,19
 116 285 116 285 106 302 c 0,20,21
 96 318 96 318 89 337 c 256,22,23
 82 356 82 356 79 374 c 0,24,25
 76 391 76 391 74 408 c 0,26,27
 73 424 73 424 73 442 c 256,28,29
 73 460 73 460 75 480 c 0,30,31
 77 499 77 499 80 518 c 0,32,33
 84 537 84 537 91 556 c 0,34,35
 98 574 98 574 110 595 c 256,36,37
 122 616 122 616 138 632 c 0,38,39
 153 648 153 648 168 657 c 0,40,41
 182 666 182 666 198 672 c 256,42,43
 214 678 214 678 225 681 c 256,44,45
 236 684 236 684 257 684 c 0,46,47
 275 684 275 684 293 680 c 256,48,49
 311 676 311 676 330 666 c 0,50,51
 348 656 348 656 363 642 c 0,52,53
 378 627 378 627 390 610 c 0,54,55
 402 592 402 592 413 561 c 256,56,57
 424 530 424 530 429 496 c 0,58,59
 434 463 434 463 435 444 c 0,60,61
 436 424 436 424 438 385 c 0,62,63
 439 346 439 346 439 333 c 0,64,65
 438 332 438 332 436 292 c 2,66,-1
 434 252 l 2,67,68
 432 231 432 231 429 200 c 0,69,70
 426 170 426 170 422 147 c 256,71,72
 418 124 418 124 406 90 c 0,73,74
 395 56 395 56 380 31 c 0,75,76
 364 6 364 6 348 -11 c 256,77,78
 332 -28 332 -28 314 -39 c 256,79,80
 296 -50 296 -50 280 -54 c 0,81,82
 265 -59 265 -59 253 -60 c 0,83,84
 241 -62 241 -62 235 -62 c 0,85,86
 227 -62 227 -62 214 -61 c 0,87,88
 202 -60 202 -60 191 -57 c 256,89,90
 180 -54 180 -54 162 -46 c 0,91,92
 144 -39 144 -39 129 -26 c 256,93,94
 114 -13 114 -13 105 2 c 0,95,96
 96 16 96 16 93 32 c 256,97,98
 90 48 90 48 89 66 c 0,99,100
 88 82 88 82 95 98 c 0,101,102
 101 112 101 112 112 120 c 0,103,104
 124 128 124 128 138 128 c 0,105,106
 144 128 144 128 151 124 c 0,107,108
 158 121 158 121 166 110 c 0,109,110
 174 100 174 100 172 86 c 0,111,112
 170 75 170 75 166 72 c 0,113,114
 162 68 162 68 154 62 c 0,115,116
 146 57 146 57 142 50 c 0,117,118
 138 42 138 42 138 30 c 256,119,120
 138 18 138 18 145 6 c 256,121,122
 152 -6 152 -6 168 -15 c 0,123,124
 185 -24 185 -24 198 -27 c 0,125,126
 212 -30 212 -30 222 -30 c 0,127,128
 230 -30 230 -30 245 -28 c 256,129,130
 260 -26 260 -26 276 -22 c 0,131,132
 291 -18 291 -18 306 -2 c 0,133,134
 320 15 320 15 330 32 c 0,135,136
 339 50 339 50 346 72 c 0,137,138
 354 94 354 94 358 114 c 0,139,140
 362 135 362 135 365 156 c 0,141,142
 368 178 368 178 372 209 c 0,143,144
 375 240 375 240 376 274 c 0,145,146
 377 307 377 307 378 308 c 1,0,1
378 346 m 1,147,-1
 378 362 l 1,148,-1
 378 405 l 1,149,-1
 376 438 l 1,150,-1
 374 481 l 2,151,152
 372 502 372 502 369 521 c 256,153,154
 366 540 366 540 359 561 c 256,155,156
 352 582 352 582 342 599 c 256,157,158
 332 616 332 616 318 627 c 256,159,160
 304 638 304 638 289 643 c 256,161,162
 274 648 274 648 257 648 c 0,163,164
 230 648 230 648 210 636 c 256,165,166
 190 624 190 624 174 599 c 256,167,168
 158 574 158 574 151 552 c 256,169,170
 144 530 144 530 142 513 c 256,171,172
 140 496 140 496 138 470 c 0,173,174
 136 443 136 443 136 430 c 0,175,176
 136 418 136 418 138 400 c 0,177,178
 140 374 140 374 146 351 c 256,179,180
 152 328 152 328 164 310 c 0,181,182
 176 293 176 293 188 284 c 0,183,184
 200 276 200 276 212 272 c 0,185,186
 225 268 225 268 239 268 c 0,187,188
 255 268 255 268 270 273 c 0,189,190
 286 278 286 278 299 284 c 0,191,192
 312 291 312 291 330 304 c 0,193,194
 348 316 348 316 358 326 c 2,195,-1
 378 346 l 1,147,-1
EndSplineSet
EndChar
StartChar: colon
Encoding: 58 58 29
Width: 512
Flags: W
LayerCount: 2
Back
Fore
SplineSet
240 435 m 1,0,1
 272 435 272 435 288 426 c 0,2,3
 304 418 304 418 313 402 c 256,4,5
 322 386 322 386 322 368 c 256,6,7
 322 350 322 350 313 335 c 256,8,9
 304 320 304 320 289 311 c 256,10,11
 274 302 274 302 256 302 c 256,12,13
 238 302 238 302 222 311 c 0,14,15
 207 320 207 320 198 335 c 0,16,17
 190 350 190 350 190 368 c 256,18,19
 190 386 190 386 198 402 c 0,20,21
 207 418 207 418 240 435 c 1,0,1
239 71 m 1,22,23
 273 71 273 71 288 62 c 0,24,25
 304 54 304 54 313 38 c 256,26,27
 322 22 322 22 322 5 c 256,28,29
 322 -12 322 -12 313 -28 c 256,30,31
 304 -44 304 -44 289 -52 c 256,32,33
 274 -60 274 -60 256 -60 c 256,34,35
 238 -60 238 -60 222 -52 c 0,36,37
 207 -44 207 -44 198 -28 c 0,38,39
 190 -12 190 -12 190 5 c 0,40,41
 190 23 190 23 199 38 c 0,42,43
 208 54 208 54 239 71 c 1,22,23
EndSplineSet
EndChar
StartChar: semicolon
Encoding: 59 59 30
Width: 512
Flags: W
LayerCount: 2
Back
Fore
SplineSet
257 435 m 0,0,1
 273 435 273 435 289 426 c 0,2,3
 305 418 305 418 314 402 c 256,4,5
 323 386 323 386 323 368 c 256,6,7
 323 350 323 350 314 335 c 256,8,9
 305 320 305 320 290 311 c 256,10,11
 275 302 275 302 257 302 c 0,12,13
 238 302 238 302 223 311 c 0,14,15
 209 320 209 320 200 336 c 0,16,17
 191 351 191 351 191 368 c 0,18,19
 189 386 189 386 199 402 c 0,20,21
 208 418 208 418 224 426 c 0,22,23
 240 435 240 435 257 435 c 0,0,1
215 -191 m 1,24,-1
 200 -174 l 1,25,26
 212 -161 212 -161 223 -150 c 0,27,28
 233 -138 233 -138 242 -124 c 256,29,30
 251 -110 251 -110 257 -96 c 256,31,32
 263 -82 263 -82 263 -70 c 0,33,34
 263 -62 263 -62 259 -56 c 0,35,36
 256 -51 256 -51 246 -47 c 2,37,-1
 223 -41 l 2,38,39
 205 -35 205 -35 197 -24 c 0,40,41
 188 -12 188 -12 188 6 c 0,42,43
 187 24 187 24 195 38 c 0,44,45
 203 53 203 53 217 60 c 0,46,47
 231 68 231 68 245 69 c 0,48,49
 261 70 261 70 275 64 c 0,50,51
 290 58 290 58 301 46 c 0,52,53
 311 34 311 34 317 19 c 256,54,55
 323 4 323 4 323 -20 c 0,56,57
 323 -32 323 -32 319 -50 c 0,58,59
 316 -68 316 -68 309 -84 c 0,60,61
 303 -100 303 -100 290 -118 c 256,62,63
 277 -136 277 -136 261 -152 c 256,64,65
 245 -168 245 -168 238 -173 c 2,66,-1
 215 -191 l 1,24,-1
EndSplineSet
EndChar
StartChar: less
Encoding: 60 60 31
Width: 512
Flags: W
LayerCount: 2
Back
Fore
SplineSet
48 308 m 1,0,-1
 463 660 l 1,1,-1
 464 612 l 1,2,-1
 110 308 l 1,3,-1
 463 6 l 1,4,-1
 463 -48 l 1,5,-1
 48 308 l 1,0,-1
EndSplineSet
EndChar
StartChar: equal
Encoding: 61 61 32
Width: 512
Flags: W
LayerCount: 2
Back
Fore
SplineSet
46 422 m 1,0,-1
 465 422 l 1,1,-1
 465 382 l 1,2,-1
 46 382 l 1,3,-1
 46 422 l 1,0,-1
46 233 m 1,4,-1
 465 233 l 1,5,-1
 465 193 l 1,6,-1
 46 193 l 1,7,-1
 46 233 l 1,4,-1
EndSplineSet
EndChar
StartChar: question
Encoding: 63 63 34
Width: 512
Flags: W
LayerCount: 2
Back
Fore
SplineSet
232 144 m 1,0,-1
 232 198 l 2,1,2
 232 219 232 219 233 238 c 256,3,4
 234 257 234 257 236 272 c 0,5,6
 239 286 239 286 244 302 c 256,7,8
 249 318 249 318 258 334 c 0,9,10
 266 350 266 350 276 362 c 0,11,12
 286 375 286 375 302 394 c 0,13,14
 319 413 319 413 328 424 c 0,15,16
 337 436 337 436 346 451 c 0,17,18
 356 466 356 466 362 483 c 256,19,20
 368 500 368 500 369 518 c 256,21,22
 370 536 370 536 367 550 c 0,23,24
 365 562 365 562 358 578 c 0,25,26
 350 594 350 594 335 612 c 256,27,28
 320 630 320 630 300 639 c 256,29,30
 280 648 280 648 252 648 c 256,31,32
 224 648 224 648 202 641 c 0,33,34
 181 634 181 634 168 624 c 0,35,36
 154 614 154 614 144 602 c 256,37,38
 134 590 134 590 128 578 c 256,39,40
 122 566 122 566 123 556 c 0,41,42
 123 544 123 544 128 538 c 0,43,44
 134 532 134 532 143 526 c 0,45,46
 152 521 152 521 154 518 c 0,47,48
 156 516 156 516 161 508 c 0,49,50
 166 501 166 501 166 488 c 0,51,52
 166 476 166 476 159 466 c 0,53,54
 153 457 153 457 142 452 c 0,55,56
 130 446 130 446 118 447 c 0,57,58
 95 447 95 447 85 460 c 0,59,60
 75 472 75 472 71 484 c 256,61,62
 67 496 67 496 67 514 c 0,63,64
 68 532 68 532 72 554 c 256,65,66
 76 576 76 576 84 591 c 256,67,68
 92 606 92 606 105 620 c 256,69,70
 118 634 118 634 130 644 c 0,71,72
 143 654 143 654 161 663 c 256,73,74
 179 672 179 672 202 678 c 0,75,76
 226 684 226 684 252 684 c 0,77,78
 280 684 280 684 306 678 c 256,79,80
 332 672 332 672 354 662 c 0,81,82
 376 651 376 651 393 636 c 0,83,84
 410 620 410 620 422 601 c 256,85,86
 434 582 434 582 440 563 c 256,87,88
 446 544 446 544 446 521 c 256,89,90
 446 498 446 498 442 478 c 0,91,92
 438 461 438 461 430 444 c 0,93,94
 421 428 421 428 406 412 c 0,95,96
 391 394 391 394 372 378 c 2,97,-1
 340 351 l 2,98,99
 318 331 318 331 302 312 c 0,100,101
 286 294 286 294 280 282 c 0,102,103
 274 269 274 269 268 242 c 0,104,105
 262 216 262 216 262 186 c 2,106,-1
 262 164 l 1,107,-1
 262 143 l 1,108,-1
 232 144 l 1,0,-1
230 68 m 1,109,110
 262 68 262 68 278 60 c 0,111,112
 293 51 293 51 302 36 c 0,113,114
 310 20 310 20 310 3 c 256,115,116
 310 -14 310 -14 302 -29 c 0,117,118
 293 -44 293 -44 278 -52 c 0,119,120
 264 -60 264 -60 246 -60 c 256,121,122
 228 -60 228 -60 214 -52 c 0,123,124
 199 -44 199 -44 190 -29 c 0,125,126
 182 -14 182 -14 182 3 c 256,127,128
 182 20 182 20 190 36 c 256,129,130
 198 52 198 52 230 68 c 1,109,110
EndSplineSet
EndChar
StartChar: at
Encoding: 64 64 35
Width: 512
Flags: W
LayerCount: 2
Back
Fore
SplineSet
276 148 m 1,0,1
 266 136 266 136 258 128 c 0,2,3
 251 120 251 120 236 112 c 0,4,5
 222 104 222 104 207 102 c 0,6,7
 193 100 193 100 178 106 c 0,8,9
 163 113 163 113 154 132 c 0,10,11
 144 151 144 151 141 172 c 0,12,13
 138 192 138 192 138 207 c 256,14,15
 138 222 138 222 140 244 c 0,16,17
 142 268 142 268 145 291 c 256,18,19
 148 314 148 314 154 338 c 256,20,21
 160 362 160 362 168 386 c 256,22,23
 176 410 176 410 187 434 c 0,24,25
 198 457 198 457 211 476 c 0,26,27
 224 494 224 494 242 506 c 0,28,29
 262 518 262 518 280 518 c 0,30,31
 292 518 292 518 303 513 c 256,32,33
 314 508 314 508 318 502 c 2,34,-1
 328 490 l 1,35,-1
 332 509 l 1,36,-1
 381 510 l 1,37,-1
 328 187 l 2,38,39
 324 160 324 160 327 153 c 256,40,41
 330 146 330 146 338 144 c 0,42,43
 347 143 347 143 358 154 c 0,44,45
 366 162 366 162 374 176 c 0,46,47
 383 190 383 190 396 220 c 0,48,49
 410 251 410 251 416 274 c 0,50,51
 422 296 422 296 425 325 c 256,52,53
 428 354 428 354 428 388 c 256,54,55
 428 422 428 422 422 463 c 0,56,57
 416 500 416 500 404 532 c 0,58,59
 392 565 392 565 377 588 c 0,60,61
 362 612 362 612 342 628 c 0,62,63
 323 644 323 644 301 652 c 0,64,65
 280 660 280 660 256 658 c 0,66,67
 236 657 236 657 210 646 c 0,68,69
 184 636 184 636 153 595 c 256,70,71
 122 554 122 554 106 503 c 256,72,73
 90 452 90 452 85 412 c 0,74,75
 80 373 80 373 80 336 c 0,76,77
 80 298 80 298 82 266 c 0,78,79
 83 228 83 228 86 196 c 0,80,81
 88 164 88 164 94 136 c 0,82,83
 101 108 101 108 110 82 c 0,84,85
 120 56 120 56 135 34 c 256,86,87
 150 12 150 12 170 -5 c 256,88,89
 190 -22 190 -22 214 -30 c 0,90,91
 239 -38 239 -38 262 -38 c 0,92,93
 290 -38 290 -38 312 -27 c 256,94,95
 334 -16 334 -16 354 1 c 256,96,97
 374 18 374 18 388 41 c 0,98,99
 403 64 403 64 412 83 c 0,100,101
 422 102 422 102 429 122 c 0,102,103
 436 141 436 141 443 164 c 0,104,105
 450 188 450 188 453 197 c 2,106,-1
 463 240 l 1,107,-1
 485 240 l 1,108,109
 477 203 477 203 472 180 c 0,110,111
 466 157 466 157 459 136 c 0,112,113
 452 114 452 114 442 90 c 0,114,115
 432 67 432 67 420 44 c 0,116,117
 408 20 408 20 391 0 c 256,118,119
 374 -20 374 -20 360 -32 c 256,120,121
 346 -44 346 -44 329 -54 c 256,122,123
 312 -64 312 -64 293 -69 c 256,124,125
 274 -74 274 -74 258 -74 c 0,126,127
 238 -74 238 -74 218 -70 c 0,128,129
 199 -66 199 -66 178 -56 c 0,130,131
 158 -47 158 -47 137 -30 c 0,132,133
 116 -12 116 -12 97 13 c 256,134,135
 78 38 78 38 64 72 c 256,136,137
 50 106 50 106 44 135 c 256,138,139
 38 164 38 164 36 186 c 256,140,141
 34 208 34 208 31 242 c 0,142,143
 28 277 28 277 28 300 c 0,144,145
 28 322 28 322 30 348 c 0,146,147
 32 388 32 388 38 430 c 256,148,149
 44 472 44 472 60 515 c 256,150,151
 76 558 76 558 96 589 c 256,152,153
 116 620 116 620 140 643 c 0,154,155
 163 666 163 666 192 679 c 0,156,157
 220 692 220 692 254 692 c 0,158,159
 294 692 294 692 327 676 c 0,160,161
 360 659 360 659 378 637 c 256,162,163
 396 615 396 615 408 594 c 0,164,165
 420 572 420 572 429 545 c 256,166,167
 438 518 438 518 444 495 c 256,168,169
 450 472 450 472 453 444 c 0,170,171
 456 417 456 417 456 389 c 0,172,173
 456 371 456 371 454 348 c 0,174,175
 452 324 452 324 449 300 c 0,176,177
 446 277 446 277 439 256 c 256,178,179
 432 235 432 235 422 212 c 0,180,181
 412 188 412 188 401 170 c 256,182,183
 390 152 390 152 379 139 c 256,184,185
 368 126 368 126 355 115 c 256,186,187
 342 104 342 104 330 100 c 0,188,189
 319 95 319 95 306 100 c 0,190,191
 296 103 296 103 289 111 c 0,192,193
 282 118 282 118 281 128 c 2,194,-1
 276 148 l 1,0,1
294 272 m 2,195,-1
 310 385 l 2,196,197
 316 423 316 423 317 440 c 0,198,199
 318 458 318 458 307 471 c 256,200,201
 296 484 296 484 281 484 c 256,202,203
 266 484 266 484 250 465 c 0,204,205
 240 453 240 453 232 434 c 0,206,207
 224 414 224 414 216 386 c 0,208,209
 209 357 209 357 205 334 c 0,210,211
 201 310 201 310 196 273 c 256,212,213
 191 236 191 236 190 224 c 0,214,215
 190 212 190 212 191 198 c 0,216,217
 191 176 191 176 192 166 c 0,218,219
 194 155 194 155 201 146 c 0,220,221
 208 138 208 138 220 138 c 0,222,223
 228 138 228 138 238 145 c 256,224,225
 248 152 248 152 256 162 c 0,226,227
 263 173 263 173 269 186 c 0,228,229
 275 198 275 198 280 214 c 0,230,231
 286 231 286 231 288 243 c 0,232,233
 291 255 291 255 294 272 c 2,195,-1
EndSplineSet
EndChar
StartChar: A
Encoding: 65 65 36
Width: 512
Flags: W
LayerCount: 2
Back
Fore
SplineSet
266 678 m 1,0,-1
 429 32 l 2,1,2
 433 16 433 16 438 8 c 0,3,4
 442 0 442 0 448 -5 c 0,5,6
 453 -10 453 -10 461 -12 c 0,7,8
 470 -14 470 -14 480 -14 c 2,9,-1
 488 -14 l 1,10,-1
 488 -43 l 1,11,-1
 326 -43 l 1,12,-1
 326 -14 l 1,13,-1
 346 -14 l 2,14,15
 366 -14 366 -14 370 -10 c 0,16,17
 375 -6 375 -6 374 1 c 0,18,19
 374 8 374 8 369 32 c 2,20,-1
 321 227 l 1,21,-1
 158 227 l 1,22,-1
 112 32 l 2,23,24
 108 16 108 16 108 6 c 256,25,26
 108 -4 108 -4 114 -8 c 0,27,28
 119 -12 119 -12 126 -13 c 0,29,30
 134 -14 134 -14 148 -14 c 2,31,-1
 167 -14 l 1,32,-1
 167 -43 l 1,33,-1
 18 -43 l 1,34,-1
 18 -14 l 1,35,-1
 32 -14 l 2,36,37
 48 -14 48 -14 54 -12 c 256,38,39
 60 -10 60 -10 64 -4 c 0,40,41
 68 1 68 1 73 10 c 0,42,43
 78 18 78 18 80 31 c 2,44,-1
 234 664 l 1,45,-1
 266 678 l 1,0,-1
242 564 m 1,46,-1
 166 256 l 1,47,-1
 314 256 l 1,48,-1
 242 564 l 1,46,-1
EndSplineSet
EndChar
StartChar: B
Encoding: 66 66 37
Width: 512
Flags: W
LayerCount: 2
Back
Fore
SplineSet
293 325 m 1,0,1
 308 323 308 323 319 322 c 0,2,3
 330 320 330 320 349 315 c 256,4,5
 368 310 368 310 386 302 c 256,6,7
 404 294 404 294 422 279 c 0,8,9
 439 264 439 264 452 244 c 256,10,11
 465 224 465 224 472 202 c 0,12,13
 480 180 480 180 481 149 c 256,14,15
 482 118 482 118 473 88 c 0,16,17
 459 40 459 40 434 18 c 256,18,19
 409 -4 409 -4 382 -16 c 0,20,21
 354 -27 354 -27 338 -31 c 256,22,23
 322 -35 322 -35 307 -37 c 256,24,25
 292 -39 292 -39 271 -41 c 256,26,27
 250 -43 250 -43 234 -43 c 2,28,-1
 28 -43 l 1,29,-1
 28 -14 l 1,30,-1
 48 -14 l 2,31,32
 70 -14 70 -14 80 -7 c 0,33,34
 89 0 89 0 89 30 c 2,35,-1
 89 593 l 2,36,37
 89 613 89 613 80 624 c 0,38,39
 70 634 70 634 50 634 c 2,40,-1
 30 634 l 1,41,-1
 30 662 l 1,42,-1
 246 662 l 2,43,44
 257 662 257 662 276 660 c 0,45,46
 296 658 296 658 318 653 c 0,47,48
 341 648 341 648 365 635 c 256,49,50
 389 622 389 622 408 600 c 0,51,52
 428 578 428 578 436 560 c 0,53,54
 444 543 444 543 447 528 c 0,55,56
 450 514 450 514 450 494 c 0,57,58
 450 477 450 477 446 460 c 0,59,60
 443 442 443 442 434 422 c 0,61,62
 424 402 424 402 404 384 c 0,63,64
 384 365 384 365 356 350 c 0,65,66
 328 334 328 334 310 330 c 2,67,-1
 293 325 l 1,0,1
144 311 m 1,68,-1
 144 39 l 2,69,70
 144 20 144 20 149 9 c 256,71,72
 154 -2 154 -2 170 -8 c 0,73,74
 186 -15 186 -15 209 -16 c 0,75,76
 232 -16 232 -16 237 -15 c 0,77,78
 267 -15 267 -15 290 -10 c 0,79,80
 314 -6 314 -6 333 2 c 0,81,82
 352 9 352 9 370 24 c 0,83,84
 388 40 388 40 400 60 c 0,85,86
 411 80 411 80 416 102 c 0,87,88
 422 123 422 123 422 144 c 0,89,90
 424 166 424 166 418 192 c 0,91,92
 414 206 414 206 409 219 c 256,93,94
 404 232 404 232 395 247 c 256,95,96
 386 262 386 262 370 275 c 0,97,98
 353 288 353 288 336 295 c 256,99,100
 319 302 319 302 300 305 c 0,101,102
 280 308 280 308 263 310 c 0,103,104
 246 311 246 311 227 311 c 2,105,-1
 144 311 l 1,68,-1
144 340 m 1,106,-1
 227 340 l 2,107,108
 235 340 235 340 248 342 c 0,109,110
 262 344 262 344 278 348 c 0,111,112
 293 352 293 352 316 363 c 0,113,114
 338 374 338 374 350 386 c 0,115,116
 362 399 362 399 372 414 c 0,117,118
 381 430 381 430 387 450 c 0,119,120
 392 470 392 470 392 496 c 0,121,122
 391 522 391 522 382 544 c 0,123,124
 374 566 374 566 362 580 c 256,125,126
 350 594 350 594 329 607 c 256,127,128
 308 620 308 620 287 626 c 256,129,130
 266 632 266 632 243 633 c 256,131,132
 220 634 220 634 203 634 c 0,133,134
 185 634 185 634 173 631 c 256,135,136
 161 628 161 628 156 622 c 0,137,138
 150 616 150 616 147 608 c 0,139,140
 144 602 144 602 144 588 c 2,141,-1
 144 340 l 1,106,-1
EndSplineSet
EndChar
StartChar: C
Encoding: 67 67 38
Width: 512
Flags: W
LayerCount: 2
Back
Fore
SplineSet
458 162 m 1,0,-1
 478 154 l 1,1,2
 470 128 470 128 462 109 c 256,3,4
 454 90 454 90 444 70 c 0,5,6
 433 49 433 49 422 32 c 0,7,8
 412 16 412 16 401 4 c 256,9,10
 390 -8 390 -8 375 -20 c 256,11,12
 360 -32 360 -32 346 -40 c 256,13,14
 332 -48 332 -48 321 -52 c 256,15,16
 310 -56 310 -56 296 -58 c 0,17,18
 282 -61 282 -61 272 -61 c 0,19,20
 260 -61 260 -61 243 -58 c 256,21,22
 226 -55 226 -55 211 -50 c 256,23,24
 196 -45 196 -45 178 -35 c 256,25,26
 160 -25 160 -25 140 -6 c 0,27,28
 120 12 120 12 108 28 c 256,29,30
 96 44 96 44 84 65 c 256,31,32
 72 86 72 86 61 117 c 256,33,34
 50 148 50 148 44 181 c 256,35,36
 38 214 38 214 36 239 c 0,37,38
 35 264 35 264 35 308 c 0,39,40
 35 339 35 339 36 354 c 0,41,42
 37 370 37 370 38 387 c 0,43,44
 40 404 40 404 45 426 c 256,45,46
 50 448 50 448 57 476 c 0,47,48
 64 503 64 503 77 532 c 0,49,50
 90 560 90 560 108 585 c 256,51,52
 126 610 126 610 151 632 c 256,53,54
 176 654 176 654 200 663 c 0,55,56
 223 672 223 672 244 675 c 0,57,58
 264 678 264 678 274 678 c 0,59,60
 286 678 286 678 303 675 c 256,61,62
 320 672 320 672 329 669 c 256,63,64
 338 666 338 666 350 661 c 256,65,66
 362 656 362 656 367 654 c 0,67,68
 372 653 372 653 378 653 c 0,69,70
 386 653 386 653 393 656 c 0,71,72
 400 658 400 658 416 668 c 2,73,-1
 430 677 l 1,74,-1
 470 505 l 1,75,-1
 450 500 l 1,76,77
 442 516 442 516 434 531 c 256,78,79
 426 546 426 546 417 562 c 256,80,81
 408 578 408 578 394 596 c 0,82,83
 380 613 380 613 365 622 c 0,84,85
 350 632 350 632 322 641 c 256,86,87
 294 650 294 650 275 650 c 0,88,89
 252 650 252 650 226 638 c 256,90,91
 200 626 200 626 180 604 c 0,92,93
 161 582 161 582 144 549 c 0,94,95
 126 516 126 516 116 488 c 0,96,97
 107 461 107 461 102 430 c 0,98,99
 98 400 98 400 97 377 c 256,100,101
 96 354 96 354 95 314 c 256,102,103
 94 274 94 274 96 250 c 0,104,105
 98 220 98 220 103 188 c 0,106,107
 108 155 108 155 117 126 c 0,108,109
 126 98 126 98 143 72 c 256,110,111
 160 46 160 46 182 26 c 256,112,113
 204 6 204 6 220 -2 c 256,114,115
 236 -10 236 -10 251 -13 c 256,116,117
 266 -16 266 -16 276 -16 c 0,118,119
 291 -16 291 -16 314 -9 c 256,120,121
 337 -2 337 -2 354 10 c 0,122,123
 372 23 372 23 386 39 c 256,124,125
 400 55 400 55 414 74 c 0,126,127
 428 94 428 94 446 132 c 2,128,-1
 458 162 l 1,0,-1
EndSplineSet
EndChar
StartChar: D
Encoding: 68 68 39
Width: 512
Flags: W
LayerCount: 2
Back
Fore
SplineSet
32 662 m 1,0,-1
 216 662 l 2,1,2
 231 662 231 662 252 659 c 0,3,4
 274 656 274 656 293 651 c 256,5,6
 312 646 312 646 333 635 c 256,7,8
 354 624 354 624 372 609 c 0,9,10
 391 594 391 594 408 572 c 0,11,12
 424 550 424 550 436 530 c 256,13,14
 448 510 448 510 456 484 c 256,15,16
 464 458 464 458 470 424 c 0,17,18
 477 389 477 389 478 338 c 0,19,20
 478 286 478 286 475 246 c 0,21,22
 471 197 471 197 464 166 c 0,23,24
 456 136 456 136 443 107 c 256,25,26
 430 78 430 78 414 54 c 0,27,28
 398 31 398 31 380 16 c 0,29,30
 363 0 363 0 343 -12 c 0,31,32
 323 -23 323 -23 306 -28 c 0,33,34
 288 -34 288 -34 274 -36 c 0,35,36
 261 -39 261 -39 246 -40 c 0,37,38
 232 -42 232 -42 216 -42 c 2,39,-1
 32 -42 l 1,40,-1
 32 -14 l 1,41,-1
 49 -14 l 2,42,43
 66 -14 66 -14 76 -4 c 0,44,45
 85 4 85 4 85 26 c 2,46,-1
 85 596 l 2,47,48
 85 600 85 600 82 608 c 0,49,50
 80 616 80 616 75 622 c 256,51,52
 70 628 70 628 60 631 c 0,53,54
 49 634 49 634 35 634 c 2,55,-1
 32 634 l 1,56,-1
 32 662 l 1,0,-1
218 634 m 2,57,-1
 189 634 l 2,58,59
 173 634 173 634 165 631 c 256,60,61
 157 628 157 628 152 623 c 0,62,63
 146 618 146 618 143 611 c 256,64,65
 140 604 140 604 140 596 c 2,66,-1
 140 26 l 2,67,68
 140 6 140 6 145 0 c 256,69,70
 150 -6 150 -6 162 -10 c 0,71,72
 173 -14 173 -14 189 -14 c 2,73,-1
 218 -14 l 2,74,75
 237 -14 237 -14 256 -10 c 0,76,77
 276 -7 276 -7 296 4 c 0,78,79
 315 14 315 14 334 30 c 0,80,81
 352 46 352 46 369 71 c 256,82,83
 386 96 386 96 395 124 c 256,84,85
 404 152 404 152 409 178 c 256,86,87
 414 204 414 204 416 238 c 256,88,89
 418 272 418 272 418 325 c 0,90,91
 418 379 418 379 415 408 c 0,92,93
 412 438 412 438 406 466 c 0,94,95
 399 494 399 494 386 522 c 0,96,97
 372 551 372 551 352 574 c 0,98,99
 332 596 332 596 313 608 c 0,100,101
 294 619 294 619 278 624 c 0,102,103
 262 630 262 630 247 632 c 256,104,105
 232 634 232 634 218 634 c 2,57,-1
EndSplineSet
EndChar
StartChar: E
Encoding: 69 69 40
Width: 512
Flags: W
LayerCount: 2
Back
Fore
SplineSet
481 138 m 1,0,-1
 452 -43 l 1,1,-1
 36 -43 l 1,2,-1
 36 -14 l 1,3,-1
 48 -14 l 2,4,5
 58 -14 58 -14 71 -7 c 256,6,7
 84 0 84 0 90 8 c 0,8,9
 95 16 95 16 95 31 c 2,10,-1
 95 593 l 2,11,12
 95 599 95 599 92 610 c 0,13,14
 88 620 88 620 82 627 c 256,15,16
 76 634 76 634 54 634 c 2,17,-1
 36 634 l 1,18,-1
 36 660 l 1,19,-1
 452 660 l 1,20,-1
 470 481 l 1,21,-1
 450 481 l 1,22,23
 443 493 443 493 436 508 c 0,24,25
 429 522 429 522 422 536 c 0,26,27
 414 550 414 550 400 568 c 0,28,29
 387 586 387 586 374 597 c 256,30,31
 361 608 361 608 346 616 c 0,32,33
 330 623 330 623 314 628 c 0,34,35
 298 632 298 632 283 632 c 2,36,-1
 202 632 l 2,37,38
 182 632 182 632 174 628 c 0,39,40
 165 624 165 624 158 616 c 256,41,42
 151 608 151 608 151 593 c 2,43,-1
 151 336 l 1,44,-1
 262 336 l 2,45,46
 273 336 273 336 282 340 c 0,47,48
 290 344 290 344 297 354 c 0,49,50
 304 365 304 365 308 376 c 0,51,52
 311 388 311 388 313 402 c 0,53,54
 315 415 315 415 315 427 c 2,55,-1
 315 445 l 1,56,-1
 344 445 l 1,57,-1
 344 190 l 1,58,-1
 315 190 l 1,59,-1
 315 204 l 2,60,61
 315 226 315 226 312 245 c 0,62,63
 310 264 310 264 306 274 c 256,64,65
 302 284 302 284 297 291 c 256,66,67
 292 298 292 298 282 303 c 256,68,69
 272 308 272 308 262 308 c 2,70,-1
 151 308 l 1,71,-1
 151 26 l 2,72,73
 151 8 151 8 164 -3 c 0,74,75
 178 -14 178 -14 202 -14 c 2,76,-1
 283 -14 l 2,77,78
 304 -14 304 -14 325 -10 c 256,79,80
 346 -6 346 -6 368 10 c 0,81,82
 391 25 391 25 406 44 c 0,83,84
 420 62 420 62 430 79 c 2,85,-1
 452 120 l 1,86,-1
 460 138 l 1,87,-1
 481 138 l 1,0,-1
EndSplineSet
EndChar
StartChar: F
Encoding: 70 70 41
Width: 512
Flags: W
LayerCount: 2
Back
Fore
SplineSet
452 486 m 1,0,1
 445 500 445 500 437 515 c 256,2,3
 429 530 429 530 418 547 c 0,4,5
 408 564 408 564 395 580 c 0,6,7
 382 595 382 595 367 604 c 0,8,9
 352 614 352 614 338 619 c 0,10,11
 323 624 323 624 316 626 c 0,12,13
 308 628 308 628 286 631 c 256,14,15
 264 634 264 634 254 634 c 2,16,-1
 196 634 l 2,17,18
 182 634 182 634 173 628 c 256,19,20
 164 622 164 622 160 616 c 256,21,22
 156 610 156 610 156 598 c 2,23,-1
 156 334 l 1,24,-1
 245 334 l 2,25,26
 255 334 255 334 266 339 c 0,27,28
 276 344 276 344 283 356 c 0,29,30
 290 367 290 367 294 386 c 256,31,32
 298 405 298 405 298 426 c 2,33,-1
 298 446 l 1,34,-1
 328 446 l 1,35,-1
 328 190 l 1,36,-1
 298 190 l 1,37,-1
 298 209 l 2,38,39
 298 233 298 233 295 248 c 0,40,41
 292 264 292 264 289 273 c 256,42,43
 286 282 286 282 280 290 c 256,44,45
 274 298 274 298 266 302 c 0,46,47
 257 306 257 306 245 306 c 2,48,-1
 156 306 l 1,49,-1
 156 26 l 2,50,51
 156 9 156 9 164 1 c 256,52,53
 172 -7 172 -7 187 -10 c 0,54,55
 202 -14 202 -14 218 -14 c 2,56,-1
 234 -14 l 1,57,-1
 234 -42 l 1,58,-1
 43 -42 l 1,59,-1
 43 -14 l 1,60,-1
 56 -14 l 2,61,62
 70 -14 70 -14 80 -11 c 256,63,64
 90 -8 90 -8 96 2 c 256,65,66
 102 12 102 12 102 28 c 2,67,-1
 102 596 l 2,68,69
 102 614 102 614 92 624 c 0,70,71
 81 634 81 634 59 634 c 2,72,-1
 43 634 l 1,73,-1
 43 662 l 1,74,-1
 448 662 l 1,75,-1
 468 486 l 1,76,-1
 452 486 l 1,0,1
EndSplineSet
EndChar
StartChar: G
Encoding: 71 71 42
Width: 512
Flags: W
LayerCount: 2
Back
Fore
SplineSet
318 257 m 1,0,-1
 478 257 l 1,1,-1
 478 228 l 1,2,-1
 461 228 l 2,3,4
 449 228 449 228 440 218 c 0,5,6
 432 208 432 208 432 190 c 2,7,-1
 430 -18 l 1,8,9
 418 -18 418 -18 409 -18 c 256,10,11
 400 -18 400 -18 389 -21 c 256,12,13
 378 -24 378 -24 372 -26 c 256,14,15
 366 -28 366 -28 355 -33 c 256,16,17
 344 -38 344 -38 327 -45 c 256,18,19
 310 -52 310 -52 300 -55 c 256,20,21
 290 -58 290 -58 270 -58 c 0,22,23
 242 -60 242 -60 220 -56 c 0,24,25
 198 -53 198 -53 172 -40 c 0,26,27
 146 -26 146 -26 123 -4 c 256,28,29
 100 18 100 18 82 55 c 0,30,31
 63 92 63 92 52 130 c 0,32,33
 42 168 42 168 38 208 c 0,34,35
 33 248 33 248 32 291 c 0,36,37
 32 334 32 334 34 370 c 0,38,39
 36 402 36 402 42 432 c 256,40,41
 48 462 48 462 58 495 c 256,42,43
 68 528 68 528 84 560 c 0,44,45
 99 593 99 593 118 614 c 0,46,47
 138 634 138 634 160 650 c 0,48,49
 182 665 182 665 198 670 c 0,50,51
 214 674 214 674 232 677 c 0,52,53
 249 680 249 680 268 679 c 0,54,55
 286 678 286 678 301 675 c 256,56,57
 316 672 316 672 334 664 c 0,58,59
 353 657 353 657 360 656 c 0,60,61
 366 654 366 654 371 654 c 0,62,63
 377 654 377 654 384 658 c 0,64,65
 392 662 392 662 399 666 c 256,66,67
 406 670 406 670 410 672 c 2,68,-1
 415 677 l 1,69,-1
 452 506 l 1,70,-1
 430 500 l 1,71,72
 426 508 426 508 422 518 c 0,73,74
 417 527 417 527 407 544 c 0,75,76
 397 562 397 562 390 575 c 0,77,78
 382 588 382 588 374 597 c 0,79,80
 367 606 367 606 360 613 c 0,81,82
 354 620 354 620 344 628 c 0,83,84
 333 635 333 635 315 642 c 0,85,86
 298 650 298 650 274 650 c 0,87,88
 255 650 255 650 240 646 c 0,89,90
 225 643 225 643 210 634 c 0,91,92
 194 626 194 626 178 612 c 256,93,94
 162 598 162 598 147 575 c 256,95,96
 132 552 132 552 122 529 c 0,97,98
 113 506 113 506 108 483 c 0,99,100
 102 460 102 460 99 430 c 0,101,102
 96 401 96 401 94 361 c 256,103,104
 92 321 92 321 94 287 c 0,105,106
 94 247 94 247 98 204 c 0,107,108
 102 162 102 162 111 133 c 256,109,110
 120 104 120 104 131 78 c 256,111,112
 142 52 142 52 154 35 c 0,113,114
 165 18 165 18 180 4 c 0,115,116
 196 -10 196 -10 218 -20 c 256,117,118
 240 -30 240 -30 278 -28 c 0,119,120
 302 -26 302 -26 320 -18 c 256,121,122
 338 -10 338 -10 349 1 c 256,123,124
 360 12 360 12 369 31 c 256,125,126
 378 50 378 50 378 80 c 2,127,-1
 378 190 l 2,128,129
 378 207 378 207 365 218 c 0,130,131
 352 228 352 228 330 228 c 2,132,-1
 318 228 l 1,133,-1
 318 257 l 1,0,-1
EndSplineSet
EndChar
StartChar: H
Encoding: 72 72 43
Width: 512
Flags: W
LayerCount: 2
Back
Fore
SplineSet
488 634 m 1,0,-1
 472 634 l 2,1,2
 448 634 448 634 438 623 c 256,3,4
 428 612 428 612 428 596 c 2,5,-1
 428 32 l 2,6,7
 428 6 428 6 438 -5 c 256,8,9
 448 -16 448 -16 472 -16 c 2,10,-1
 488 -16 l 1,11,-1
 488 -44 l 1,12,-1
 314 -44 l 1,13,-1
 314 -16 l 1,14,-1
 326 -16 l 2,15,16
 335 -16 335 -16 348 -13 c 256,17,18
 361 -10 361 -10 368 2 c 0,19,20
 374 14 374 14 374 32 c 2,21,-1
 374 306 l 1,22,-1
 136 306 l 1,23,-1
 136 32 l 2,24,25
 136 16 136 16 138 8 c 0,26,27
 141 0 141 0 146 -6 c 0,28,29
 152 -12 152 -12 162 -14 c 256,30,31
 172 -16 172 -16 188 -16 c 2,32,-1
 198 -16 l 1,33,-1
 198 -44 l 1,34,-1
 22 -44 l 1,35,-1
 22 -16 l 1,36,-1
 30 -16 l 2,37,38
 47 -18 47 -18 60 -11 c 0,39,40
 72 -4 72 -4 77 4 c 0,41,42
 82 14 82 14 82 32 c 2,43,-1
 82 596 l 2,44,45
 82 611 82 611 70 622 c 0,46,47
 58 634 58 634 40 634 c 2,48,-1
 22 634 l 1,49,-1
 22 662 l 1,50,-1
 202 662 l 1,51,-1
 202 634 l 1,52,-1
 186 634 l 2,53,54
 158 634 158 634 147 625 c 256,55,56
 136 616 136 616 136 596 c 2,57,-1
 136 335 l 1,58,-1
 374 335 l 1,59,-1
 374 596 l 2,60,61
 374 612 374 612 364 623 c 256,62,63
 354 634 354 634 332 634 c 2,64,-1
 314 634 l 1,65,-1
 314 662 l 1,66,-1
 488 662 l 1,67,-1
 488 634 l 1,0,-1
EndSplineSet
EndChar
StartChar: I
Encoding: 73 73 44
Width: 512
Flags: W
LayerCount: 2
Back
Fore
SplineSet
352 634 m 1,0,-1
 327 634 l 2,1,2
 303 634 303 634 294 625 c 0,3,4
 284 616 284 616 284 597 c 2,5,-1
 284 32 l 2,6,7
 284 4 284 4 296 -6 c 256,8,9
 308 -16 308 -16 334 -16 c 2,10,-1
 352 -16 l 1,11,-1
 352 -44 l 1,12,-1
 158 -44 l 1,13,-1
 158 -16 l 1,14,-1
 178 -16 l 2,15,16
 206 -16 206 -16 218 -5 c 256,17,18
 230 6 230 6 230 34 c 2,19,-1
 230 597 l 2,20,21
 230 614 230 614 220 624 c 256,22,23
 210 634 210 634 188 634 c 2,24,-1
 158 634 l 1,25,-1
 158 662 l 1,26,-1
 352 662 l 1,27,-1
 352 634 l 1,0,-1
EndSplineSet
EndChar
StartChar: J
Encoding: 74 74 45
Width: 512
Flags: W
LayerCount: 2
Back
Fore
SplineSet
411 634 m 1,0,-1
 404 634 l 2,1,2
 388 634 388 634 374 632 c 256,3,4
 360 630 360 630 353 625 c 256,5,6
 346 620 346 620 342 612 c 0,7,8
 339 604 339 604 339 594 c 2,9,-1
 339 228 l 2,10,11
 339 212 339 212 338 178 c 0,12,13
 336 144 336 144 334 126 c 0,14,15
 332 107 332 107 328 85 c 256,16,17
 324 63 324 63 317 44 c 0,18,19
 310 26 310 26 301 10 c 256,20,21
 292 -6 292 -6 282 -17 c 256,22,23
 272 -28 272 -28 260 -36 c 0,24,25
 249 -44 249 -44 234 -50 c 0,26,27
 218 -56 218 -56 202 -58 c 256,28,29
 186 -60 186 -60 174 -58 c 0,30,31
 162 -58 162 -58 153 -55 c 256,32,33
 144 -52 144 -52 136 -48 c 0,34,35
 128 -43 128 -43 119 -34 c 0,36,37
 110 -26 110 -26 106 -16 c 256,38,39
 102 -6 102 -6 102 6 c 256,40,41
 102 18 102 18 107 27 c 256,42,43
 112 36 112 36 120 40 c 0,44,45
 130 44 130 44 140 44 c 0,46,47
 151 43 151 43 158 38 c 0,48,49
 166 32 166 32 172 16 c 2,50,-1
 174 8 l 2,51,52
 176 1 176 1 180 -6 c 0,53,54
 184 -14 184 -14 190 -19 c 256,55,56
 196 -24 196 -24 214 -23 c 0,57,58
 229 -23 229 -23 236 -20 c 0,59,60
 242 -16 242 -16 247 -11 c 256,61,62
 252 -6 252 -6 256 -2 c 0,63,64
 261 2 261 2 268 12 c 0,65,66
 275 23 275 23 278 40 c 0,67,68
 282 56 282 56 284 77 c 256,69,70
 286 98 286 98 286 108 c 256,71,72
 286 118 286 118 286 169 c 2,73,-1
 286 594 l 2,74,75
 286 611 286 611 281 618 c 0,76,77
 276 626 276 626 267 630 c 256,78,79
 258 634 258 634 242 634 c 2,80,-1
 206 634 l 1,81,-1
 206 662 l 1,82,-1
 411 662 l 1,83,-1
 411 634 l 1,0,-1
EndSplineSet
EndChar
StartChar: K
Encoding: 75 75 46
Width: 512
Flags: W
LayerCount: 2
Back
Fore
SplineSet
133 289 m 1,0,-1
 345 582 l 2,1,2
 349 587 349 587 358 602 c 0,3,4
 368 616 368 616 364 624 c 0,5,6
 362 628 362 628 357 631 c 256,7,8
 352 634 352 634 341 634 c 2,9,-1
 310 634 l 1,10,-1
 310 662 l 1,11,-1
 475 662 l 1,12,-1
 475 634 l 1,13,-1
 466 634 l 2,14,15
 452 633 452 633 436 626 c 0,16,17
 420 620 420 620 410 612 c 256,18,19
 400 604 400 604 385 582 c 2,20,-1
 248 399 l 1,21,-1
 410 42 l 2,22,23
 418 22 418 22 426 12 c 256,24,25
 434 2 434 2 448 -6 c 0,26,27
 461 -16 461 -16 472 -16 c 2,28,-1
 482 -16 l 1,29,-1
 482 -44 l 1,30,-1
 313 -44 l 1,31,-1
 313 -16 l 1,32,-1
 332 -16 l 2,33,34
 348 -16 348 -16 354 -12 c 0,35,36
 359 -9 359 -9 360 -2 c 0,37,38
 360 4 360 4 352 22 c 2,39,-1
 212 350 l 1,40,-1
 133 244 l 1,41,-1
 133 30 l 2,42,43
 133 8 133 8 144 -4 c 0,44,45
 155 -15 155 -15 174 -15 c 2,46,-1
 186 -15 l 1,47,-1
 186 -44 l 1,48,-1
 24 -44 l 1,49,-1
 24 -15 l 1,50,-1
 40 -16 l 2,51,52
 58 -18 58 -18 68 -5 c 0,53,54
 79 8 79 8 79 30 c 2,55,-1
 79 599 l 2,56,57
 79 607 79 607 76 614 c 0,58,59
 74 620 74 620 69 625 c 256,60,61
 64 630 64 630 57 632 c 256,62,63
 50 634 50 634 40 634 c 2,64,-1
 25 634 l 1,65,-1
 25 662 l 1,66,-1
 187 662 l 1,67,-1
 187 634 l 1,68,-1
 172 634 l 2,69,70
 169 634 169 634 158 632 c 0,71,72
 148 630 148 630 144 626 c 0,73,74
 140 623 140 623 136 614 c 0,75,76
 133 606 133 606 133 599 c 2,77,-1
 133 289 l 1,0,-1
EndSplineSet
EndChar
StartChar: L
Encoding: 76 76 47
Width: 512
Flags: W
LayerCount: 2
Back
Fore
SplineSet
479 146 m 1,0,-1
 452 -44 l 1,1,-1
 30 -44 l 1,2,-1
 31 -16 l 1,3,-1
 44 -16 l 2,4,5
 60 -16 60 -16 72 -10 c 0,6,7
 85 -4 85 -4 91 7 c 0,8,9
 98 18 98 18 98 34 c 2,10,-1
 98 596 l 2,11,12
 98 604 98 604 95 612 c 0,13,14
 92 619 92 619 87 624 c 256,15,16
 82 629 82 629 74 632 c 0,17,18
 65 634 65 634 56 634 c 2,19,-1
 30 634 l 1,20,-1
 30 662 l 1,21,-1
 225 662 l 1,22,-1
 225 634 l 1,23,-1
 204 634 l 2,24,25
 197 634 197 634 184 632 c 0,26,27
 172 630 172 630 166 626 c 256,28,29
 160 622 160 622 156 613 c 256,30,31
 152 604 152 604 152 596 c 2,32,-1
 152 34 l 2,33,34
 152 22 152 22 156 14 c 0,35,36
 159 6 159 6 166 0 c 0,37,38
 172 -6 172 -6 178 -8 c 256,39,40
 184 -10 184 -10 203 -13 c 256,41,42
 222 -16 222 -16 225 -16 c 2,43,-1
 266 -16 l 2,44,45
 302 -16 302 -16 325 -11 c 256,46,47
 348 -6 348 -6 364 2 c 0,48,49
 381 10 381 10 394 23 c 0,50,51
 406 36 406 36 418 55 c 256,52,53
 430 74 430 74 436 90 c 256,54,55
 442 106 442 106 450 126 c 2,56,-1
 456 146 l 1,57,-1
 479 146 l 1,0,-1
EndSplineSet
EndChar
StartChar: M
Encoding: 77 77 48
Width: 512
Flags: W
LayerCount: 2
Back
Fore
SplineSet
394 530 m 1,0,-1
 256 -44 l 1,1,-1
 232 -44 l 1,2,-1
 99 549 l 1,3,-1
 99 22 l 2,4,5
 99 2 99 2 108 -7 c 0,6,7
 118 -16 118 -16 134 -16 c 2,8,-1
 158 -16 l 1,9,-1
 158 -44 l 1,10,-1
 17 -44 l 1,11,-1
 17 -16 l 1,12,-1
 36 -16 l 2,13,14
 54 -16 54 -16 62 -8 c 256,15,16
 70 0 70 0 70 22 c 2,17,-1
 70 592 l 2,18,19
 70 614 70 614 60 624 c 256,20,21
 50 634 50 634 36 634 c 2,22,-1
 16 634 l 1,23,-1
 16 662 l 1,24,-1
 122 662 l 1,25,-1
 255 79 l 1,26,-1
 392 662 l 1,27,-1
 496 662 l 1,28,-1
 496 634 l 1,29,-1
 474 634 l 2,30,31
 466 634 466 634 462 632 c 256,32,33
 458 630 458 630 455 626 c 256,34,35
 452 622 452 622 450 614 c 256,36,37
 448 606 448 606 448 596 c 2,38,-1
 448 28 l 2,39,40
 448 12 448 12 450 3 c 0,41,42
 453 -6 453 -6 460 -11 c 0,43,44
 466 -16 466 -16 478 -16 c 2,45,-1
 496 -16 l 1,46,-1
 496 -44 l 1,47,-1
 335 -44 l 1,48,-1
 335 -16 l 1,49,-1
 348 -16 l 2,50,51
 358 -16 358 -16 366 -14 c 256,52,53
 374 -12 374 -12 380 -8 c 256,54,55
 386 -4 386 -4 390 4 c 256,56,57
 394 12 394 12 394 28 c 2,58,-1
 394 530 l 1,0,-1
EndSplineSet
EndChar
StartChar: N
Encoding: 78 78 49
Width: 512
Flags: W
LayerCount: 2
Back
Fore
SplineSet
334 662 m 1,0,-1
 484 662 l 1,1,-1
 484 634 l 1,2,-1
 473 634 l 2,3,4
 454 634 454 634 444 624 c 256,5,6
 434 614 434 614 434 598 c 2,7,-1
 434 -44 l 1,8,-1
 401 -44 l 1,9,-1
 113 550 l 1,10,-1
 114 18 l 2,11,12
 114 0 114 0 124 -8 c 256,13,14
 134 -16 134 -16 160 -16 c 2,15,-1
 178 -16 l 1,16,-1
 178 -44 l 1,17,-1
 24 -44 l 1,18,-1
 24 -16 l 1,19,-1
 42 -16 l 2,20,21
 66 -16 66 -16 75 -8 c 256,22,23
 84 0 84 0 84 18 c 2,24,-1
 84 594 l 2,25,26
 84 612 84 612 74 623 c 256,27,28
 64 634 64 634 50 634 c 2,29,-1
 28 634 l 1,30,-1
 28 662 l 1,31,-1
 120 662 l 1,32,-1
 404 81 l 1,33,-1
 404 598 l 2,34,35
 404 616 404 616 396 625 c 256,36,37
 388 634 388 634 364 634 c 2,38,-1
 335 634 l 1,39,-1
 334 662 l 1,0,-1
EndSplineSet
EndChar
StartChar: O
Encoding: 79 79 50
Width: 512
Flags: W
LayerCount: 2
Back
Fore
SplineSet
252 -61 m 0,0,1
 250 -61 250 -61 234 -60 c 256,2,3
 218 -59 218 -59 196 -52 c 0,4,5
 175 -44 175 -44 154 -28 c 0,6,7
 134 -12 134 -12 116 13 c 0,8,9
 99 38 99 38 87 62 c 256,10,11
 75 86 75 86 66 110 c 0,12,13
 56 135 56 135 50 164 c 0,14,15
 43 192 43 192 40 240 c 0,16,17
 36 288 36 288 36 329 c 0,18,19
 36 367 36 367 40 406 c 0,20,21
 44 444 44 444 52 472 c 0,22,23
 60 501 60 501 71 528 c 0,24,25
 82 556 82 556 98 581 c 256,26,27
 114 606 114 606 130 624 c 0,28,29
 146 641 146 641 164 653 c 256,30,31
 182 665 182 665 197 670 c 0,32,33
 212 674 212 674 226 676 c 0,34,35
 240 679 240 679 254 679 c 0,36,37
 259 679 259 679 266 678 c 0,38,39
 272 678 272 678 282 676 c 0,40,41
 293 675 293 675 310 670 c 0,42,43
 326 664 326 664 343 654 c 256,44,45
 360 644 360 644 376 628 c 0,46,47
 393 612 393 612 408 591 c 0,48,49
 422 570 422 570 435 542 c 256,50,51
 448 514 448 514 456 485 c 256,52,53
 464 456 464 456 470 410 c 0,54,55
 476 363 476 363 475 306 c 0,56,57
 475 284 475 284 473 259 c 256,58,59
 471 234 471 234 466 193 c 0,60,61
 460 152 460 152 445 110 c 0,62,63
 430 69 430 69 411 40 c 0,64,65
 392 12 392 12 374 -7 c 0,66,67
 355 -26 355 -26 338 -36 c 256,68,69
 321 -46 321 -46 304 -52 c 0,70,71
 286 -58 286 -58 274 -60 c 0,72,73
 261 -61 261 -61 252 -61 c 0,0,1
94 327 m 0,74,75
 94 290 94 290 96 251 c 256,76,77
 98 212 98 212 102 185 c 256,78,79
 106 158 106 158 113 131 c 256,80,81
 120 104 120 104 129 80 c 0,82,83
 138 57 138 57 153 32 c 0,84,85
 168 6 168 6 184 -7 c 0,86,87
 199 -20 199 -20 214 -26 c 0,88,89
 230 -32 230 -32 240 -33 c 256,90,91
 250 -34 250 -34 254 -33 c 0,92,93
 268 -33 268 -33 282 -28 c 0,94,95
 296 -24 296 -24 311 -14 c 256,96,97
 326 -4 326 -4 341 14 c 256,98,99
 356 32 356 32 367 52 c 0,100,101
 378 71 378 71 391 101 c 256,102,103
 404 131 404 131 409 172 c 0,104,105
 414 214 414 214 416 250 c 0,106,107
 417 286 417 286 417 320 c 0,108,109
 417 362 417 362 414 400 c 0,110,111
 410 438 410 438 403 468 c 256,112,113
 396 498 396 498 387 522 c 256,114,115
 378 546 378 546 367 566 c 0,116,117
 356 587 356 587 342 604 c 0,118,119
 329 620 329 620 312 632 c 0,120,121
 296 643 296 643 280 646 c 0,122,123
 263 650 263 650 258 650 c 0,124,125
 254 650 254 650 244 649 c 256,126,127
 234 648 234 648 222 645 c 256,128,129
 210 642 210 642 194 632 c 0,130,131
 178 621 178 621 163 604 c 0,132,133
 148 586 148 586 134 560 c 0,134,135
 121 534 121 534 111 494 c 256,136,137
 101 454 101 454 98 416 c 0,138,139
 94 379 94 379 94 327 c 0,74,75
EndSplineSet
EndChar
StartChar: P
Encoding: 80 80 51
Width: 512
Flags: W
LayerCount: 2
Back
Fore
SplineSet
30 662 m 1,0,-1
 227 662 l 2,1,2
 253 662 253 662 288 658 c 0,3,4
 324 654 324 654 355 646 c 256,5,6
 386 638 386 638 418 616 c 0,7,8
 450 593 450 593 466 562 c 0,9,10
 483 532 483 532 487 479 c 0,11,12
 492 426 492 426 470 384 c 0,13,14
 451 347 451 347 422 330 c 0,15,16
 392 312 392 312 360 302 c 0,17,18
 328 293 328 293 313 290 c 0,19,20
 298 288 298 288 263 286 c 256,21,22
 228 284 228 284 208 284 c 2,23,-1
 148 284 l 1,24,-1
 148 35 l 2,25,26
 148 21 148 21 154 10 c 0,27,28
 160 -2 160 -2 173 -9 c 256,29,30
 186 -16 186 -16 197 -16 c 2,31,-1
 213 -16 l 1,32,-1
 213 -44 l 1,33,-1
 24 -44 l 1,34,-1
 24 -16 l 1,35,-1
 36 -16 l 2,36,37
 52 -16 52 -16 64 -10 c 0,38,39
 76 -5 76 -5 84 10 c 0,40,41
 93 24 93 24 93 46 c 2,42,-1
 93 573 l 2,43,44
 93 600 93 600 86 611 c 256,45,46
 79 622 79 622 68 628 c 0,47,48
 58 634 58 634 44 634 c 2,49,-1
 30 634 l 1,50,-1
 30 662 l 1,0,-1
148 312 m 1,51,-1
 208 312 l 2,52,53
 232 312 232 312 255 314 c 256,54,55
 278 316 278 316 304 322 c 0,56,57
 331 328 331 328 358 342 c 0,58,59
 384 356 384 356 401 380 c 256,60,61
 418 404 418 404 422 432 c 0,62,63
 425 460 425 460 424 484 c 0,64,65
 421 534 421 534 402 564 c 0,66,67
 382 594 382 594 354 608 c 0,68,69
 325 623 325 623 299 628 c 0,70,71
 274 634 274 634 256 634 c 2,72,-1
 220 634 l 2,73,74
 190 634 190 634 177 627 c 256,75,76
 164 620 164 620 156 608 c 256,77,78
 148 596 148 596 148 573 c 2,79,-1
 148 312 l 1,51,-1
EndSplineSet
EndChar
StartChar: Q
Encoding: 81 81 52
Width: 512
Flags: W
LayerCount: 2
Back
Fore
SplineSet
350 -27 m 1,0,1
 352 -37 352 -37 353 -40 c 0,2,3
 354 -42 354 -42 360 -62 c 0,4,5
 367 -82 367 -82 372 -90 c 0,6,7
 376 -98 376 -98 383 -105 c 256,8,9
 390 -112 390 -112 404 -112 c 0,10,11
 416 -112 416 -112 430 -104 c 256,12,13
 444 -96 444 -96 450 -86 c 2,14,-1
 467 -64 l 1,15,-1
 482 -71 l 1,16,17
 476 -84 476 -84 470 -94 c 0,18,19
 464 -105 464 -105 452 -120 c 0,20,21
 440 -134 440 -134 424 -144 c 0,22,23
 407 -154 407 -154 386 -154 c 256,24,25
 365 -154 365 -154 352 -145 c 0,26,27
 338 -136 338 -136 330 -119 c 256,28,29
 322 -102 322 -102 312 -67 c 2,30,-1
 308 -49 l 1,31,32
 301 -51 301 -51 296 -53 c 0,33,34
 290 -55 290 -55 276 -58 c 256,35,36
 262 -61 262 -61 250 -61 c 0,37,38
 230 -62 230 -62 205 -54 c 256,39,40
 180 -46 180 -46 154 -27 c 256,41,42
 128 -8 128 -8 108 20 c 0,43,44
 89 47 89 47 80 70 c 0,45,46
 70 93 70 93 62 116 c 0,47,48
 53 138 53 138 46 175 c 256,49,50
 39 212 39 212 38 240 c 0,51,52
 36 270 36 270 36 302 c 0,53,54
 36 360 36 360 42 398 c 0,55,56
 48 437 48 437 56 474 c 0,57,58
 65 510 65 510 80 542 c 0,59,60
 94 574 94 574 115 602 c 256,61,62
 136 630 136 630 158 647 c 256,63,64
 180 664 180 664 204 672 c 0,65,66
 228 679 228 679 258 679 c 0,67,68
 294 679 294 679 319 668 c 0,69,70
 344 658 344 658 362 643 c 0,71,72
 381 628 381 628 402 597 c 0,73,74
 424 566 424 566 438 532 c 0,75,76
 452 499 452 499 459 462 c 0,77,78
 466 424 466 424 469 388 c 256,79,80
 472 352 472 352 472 306 c 0,81,82
 474 260 474 260 470 224 c 0,83,84
 466 184 466 184 456 149 c 256,85,86
 446 114 446 114 438 94 c 0,87,88
 429 74 429 74 420 58 c 0,89,90
 412 43 412 43 395 18 c 0,91,92
 378 -6 378 -6 358 -21 c 2,93,-1
 350 -27 l 1,0,1
144 51 m 1,94,95
 145 59 145 59 146 66 c 0,96,97
 148 72 148 72 151 84 c 0,98,99
 154 97 154 97 162 113 c 256,100,101
 170 129 170 129 188 142 c 0,102,103
 206 156 206 156 232 156 c 0,104,105
 254 156 254 156 272 145 c 256,106,107
 290 134 290 134 302 116 c 0,108,109
 313 97 313 97 320 78 c 0,110,111
 328 58 328 58 334 35 c 2,112,-1
 337 24 l 1,113,-1
 340 12 l 1,114,115
 348 21 348 21 355 30 c 0,116,117
 362 38 362 38 371 56 c 256,118,119
 380 74 380 74 386 90 c 0,120,121
 391 106 391 106 396 126 c 0,122,123
 402 146 402 146 406 174 c 256,124,125
 410 202 410 202 412 242 c 0,126,127
 415 282 415 282 415 312 c 0,128,129
 415 350 415 350 410 409 c 0,130,131
 404 468 404 468 392 513 c 0,132,133
 379 558 379 558 358 590 c 0,134,135
 336 621 336 621 312 636 c 0,136,137
 288 650 288 650 258 650 c 0,138,139
 227 650 227 650 204 637 c 0,140,141
 182 624 182 624 164 602 c 256,142,143
 146 580 146 580 132 550 c 0,144,145
 118 519 118 519 110 484 c 0,146,147
 102 450 102 450 98 414 c 256,148,149
 94 378 94 378 93 352 c 0,150,151
 92 327 92 327 92 314 c 0,152,153
 92 304 92 304 94 265 c 256,154,155
 96 226 96 226 98 206 c 0,156,157
 100 185 100 185 106 158 c 0,158,159
 112 132 112 132 118 113 c 256,160,161
 124 94 124 94 128 86 c 2,162,-1
 140 60 l 1,163,-1
 144 51 l 1,94,95
162 21 m 1,164,165
 168 13 168 13 172 8 c 0,166,167
 177 4 177 4 188 -6 c 256,168,169
 199 -16 199 -16 216 -22 c 0,170,171
 232 -26 232 -26 250 -26 c 0,172,173
 274 -26 274 -26 292 -19 c 2,174,-1
 299 -16 l 1,175,176
 297 -6 297 -6 291 18 c 0,177,178
 285 41 285 41 278 64 c 0,179,180
 271 86 271 86 261 101 c 256,181,182
 251 116 251 116 242 120 c 0,183,184
 234 124 234 124 224 125 c 0,185,186
 213 126 213 126 202 120 c 0,187,188
 191 115 191 115 184 104 c 0,189,190
 178 94 178 94 173 78 c 256,191,192
 168 62 168 62 166 48 c 2,193,-1
 164 31 l 1,194,-1
 162 21 l 1,164,165
EndSplineSet
EndChar
StartChar: R
Encoding: 82 82 53
Width: 512
Flags: W
LayerCount: 2
Back
Fore
SplineSet
284 310 m 1,0,-1
 412 38 l 2,1,2
 419 22 419 22 428 10 c 256,3,4
 437 -2 437 -2 449 -9 c 0,5,6
 462 -16 462 -16 482 -16 c 2,7,-1
 490 -16 l 1,8,-1
 490 -44 l 1,9,-1
 384 -44 l 1,10,-1
 228 306 l 1,11,-1
 127 306 l 1,12,-1
 127 30 l 2,13,14
 127 4 127 4 136 -6 c 0,15,16
 144 -16 144 -16 165 -16 c 2,17,-1
 178 -16 l 1,18,-1
 178 -44 l 1,19,-1
 20 -44 l 1,20,-1
 20 -16 l 1,21,-1
 38 -16 l 2,22,23
 58 -16 58 -16 66 -7 c 256,24,25
 74 2 74 2 74 28 c 2,26,-1
 74 596 l 2,27,28
 74 618 74 618 64 626 c 256,29,30
 54 634 54 634 36 634 c 2,31,-1
 20 634 l 1,32,-1
 20 662 l 1,33,-1
 219 662 l 2,34,35
 232 662 232 662 254 660 c 0,36,37
 277 658 277 658 292 655 c 256,38,39
 307 652 307 652 328 644 c 256,40,41
 349 636 349 636 364 625 c 0,42,43
 380 614 380 614 396 594 c 0,44,45
 412 575 412 575 420 556 c 0,46,47
 427 538 427 538 430 518 c 0,48,49
 432 499 432 499 432 483 c 0,50,51
 432 474 432 474 430 456 c 256,52,53
 428 438 428 438 422 419 c 0,54,55
 417 400 417 400 404 380 c 0,56,57
 390 360 390 360 374 346 c 0,58,59
 357 332 357 332 334 323 c 0,60,61
 312 314 312 314 300 312 c 2,62,-1
 284 310 l 1,0,-1
127 334 m 1,63,-1
 210 334 l 2,64,65
 219 334 219 334 234 335 c 0,66,67
 250 336 250 336 263 338 c 0,68,69
 276 339 276 339 289 342 c 0,70,71
 302 346 302 346 315 354 c 0,72,73
 328 363 328 363 339 374 c 0,74,75
 350 386 350 386 358 402 c 256,76,77
 366 418 366 418 370 439 c 0,78,79
 375 460 375 460 376 485 c 0,80,81
 376 510 376 510 370 532 c 0,82,83
 364 553 364 553 352 571 c 256,84,85
 340 589 340 589 327 600 c 256,86,87
 314 611 314 611 298 618 c 0,88,89
 282 624 282 624 271 626 c 0,90,91
 260 629 260 629 240 632 c 0,92,93
 220 634 220 634 210 634 c 2,94,-1
 166 634 l 2,95,96
 148 634 148 634 138 624 c 0,97,98
 127 614 127 614 127 596 c 2,99,-1
 127 334 l 1,63,-1
EndSplineSet
EndChar
StartChar: S
Encoding: 83 83 54
Width: 512
Flags: W
LayerCount: 2
Back
Fore
SplineSet
56 156 m 1,0,1
 62 142 62 142 68 132 c 0,2,3
 73 121 73 121 84 102 c 0,4,5
 94 84 94 84 106 66 c 256,6,7
 118 48 118 48 138 28 c 0,8,9
 157 8 157 8 180 -5 c 0,10,11
 202 -18 202 -18 215 -23 c 256,12,13
 228 -28 228 -28 243 -31 c 256,14,15
 258 -34 258 -34 270 -34 c 0,16,17
 292 -34 292 -34 313 -28 c 256,18,19
 334 -22 334 -22 348 -14 c 256,20,21
 362 -6 362 -6 374 6 c 0,22,23
 386 19 386 19 396 36 c 0,24,25
 407 52 407 52 412 67 c 256,26,27
 417 82 417 82 420 100 c 0,28,29
 422 118 422 118 421 140 c 0,30,31
 419 158 419 158 412 185 c 0,32,33
 404 212 404 212 380 231 c 256,34,35
 356 250 356 250 326 264 c 0,36,37
 298 278 298 278 270 288 c 2,38,-1
 184 317 l 2,39,40
 157 326 157 326 132 340 c 0,41,42
 106 354 106 354 84 380 c 0,43,44
 62 405 62 405 55 436 c 0,45,46
 48 468 48 468 49 490 c 0,47,48
 49 509 49 509 53 528 c 0,49,50
 57 548 57 548 68 574 c 0,51,52
 80 600 80 600 105 625 c 256,53,54
 130 650 130 650 154 660 c 0,55,56
 178 671 178 671 192 674 c 0,57,58
 206 676 206 676 218 677 c 256,59,60
 230 678 230 678 238 679 c 0,61,62
 254 679 254 679 271 676 c 0,63,64
 288 672 288 672 302 667 c 0,65,66
 315 662 315 662 326 658 c 2,67,-1
 345 649 l 2,68,69
 351 646 351 646 360 642 c 0,70,71
 368 638 368 638 372 637 c 256,72,73
 376 636 376 636 380 636 c 0,74,75
 387 636 387 636 396 640 c 2,76,-1
 405 646 l 1,77,-1
 419 656 l 1,78,-1
 466 474 l 1,79,-1
 445 465 l 1,80,81
 438 479 438 479 434 486 c 0,82,83
 431 492 431 492 420 512 c 0,84,85
 408 531 408 531 398 548 c 0,86,87
 388 564 388 564 374 582 c 0,88,89
 359 601 359 601 348 612 c 0,90,91
 336 622 336 622 321 631 c 256,92,93
 306 640 306 640 296 644 c 0,94,95
 285 647 285 647 272 650 c 0,96,97
 258 652 258 652 241 652 c 0,98,99
 215 651 215 651 192 642 c 0,100,101
 168 634 168 634 148 616 c 256,102,103
 128 598 128 598 118 577 c 0,104,105
 109 556 109 556 106 536 c 0,106,107
 102 516 102 516 103 490 c 0,108,109
 104 460 104 460 112 441 c 256,110,111
 120 422 120 422 136 407 c 256,112,113
 152 392 152 392 171 382 c 256,114,115
 190 372 190 372 224 362 c 2,116,-1
 301 336 l 2,117,118
 339 323 339 323 362 311 c 0,119,120
 384 299 384 299 402 286 c 0,121,122
 421 272 421 272 442 245 c 0,123,124
 464 218 464 218 472 186 c 256,125,126
 480 154 480 154 479 126 c 0,127,128
 477 82 477 82 460 48 c 0,129,130
 442 13 442 13 419 -8 c 0,131,132
 396 -28 396 -28 374 -38 c 256,133,134
 352 -48 352 -48 334 -52 c 0,135,136
 316 -57 316 -57 305 -58 c 0,137,138
 294 -60 294 -60 280 -60 c 0,139,140
 258 -60 258 -60 241 -57 c 256,141,142
 224 -54 224 -54 208 -49 c 0,143,144
 193 -44 193 -44 186 -42 c 0,145,146
 180 -40 180 -40 168 -36 c 0,147,148
 155 -31 155 -31 146 -28 c 0,149,150
 136 -26 136 -26 126 -26 c 0,151,152
 120 -26 120 -26 116 -27 c 0,153,154
 114 -28 114 -28 98 -36 c 2,155,-1
 86 -44 l 1,156,-1
 36 150 l 1,157,-1
 56 156 l 1,0,1
EndSplineSet
EndChar
StartChar: T
Encoding: 84 84 55
Width: 512
Flags: W
LayerCount: 2
Back
Fore
SplineSet
469 486 m 1,0,1
 462 500 462 500 458 508 c 2,2,-1
 436 550 l 2,3,4
 426 567 426 567 416 582 c 0,5,6
 406 598 406 598 396 608 c 0,7,8
 387 618 387 618 374 626 c 0,9,10
 362 634 362 634 342 634 c 2,11,-1
 324 634 l 2,12,13
 302 634 302 634 291 622 c 0,14,15
 280 611 280 611 280 592 c 2,16,-1
 280 32 l 2,17,18
 280 10 280 10 290 -3 c 0,19,20
 301 -16 301 -16 323 -16 c 2,21,-1
 351 -16 l 1,22,-1
 351 -44 l 1,23,-1
 157 -44 l 1,24,-1
 158 -16 l 1,25,-1
 179 -16 l 2,26,27
 206 -16 206 -16 215 -5 c 256,28,29
 224 6 224 6 224 34 c 2,30,-1
 224 592 l 2,31,32
 224 613 224 613 213 624 c 0,33,34
 202 634 202 634 186 634 c 2,35,-1
 173 634 l 2,36,37
 151 634 151 634 132 623 c 0,38,39
 112 612 112 612 101 597 c 256,40,41
 90 582 90 582 82 569 c 0,42,43
 72 556 72 556 68 546 c 2,44,-1
 58 520 l 1,45,-1
 46 494 l 1,46,-1
 42 486 l 1,47,-1
 22 486 l 1,48,-1
 48 662 l 1,49,-1
 460 662 l 1,50,-1
 491 486 l 1,51,-1
 469 486 l 1,0,1
EndSplineSet
EndChar
StartChar: U
Encoding: 85 85 56
Width: 512
Flags: W
LayerCount: 2
Back
Fore
SplineSet
328 662 m 1,0,-1
 484 662 l 1,1,-1
 484 634 l 1,2,-1
 464 634 l 2,3,4
 452 634 452 634 443 628 c 0,5,6
 434 623 434 623 429 614 c 0,7,8
 424 606 424 606 424 592 c 2,9,-1
 424 130 l 2,10,11
 424 114 424 114 422 92 c 256,12,13
 420 70 420 70 416 54 c 256,14,15
 412 38 412 38 400 16 c 0,16,17
 388 -5 388 -5 362 -28 c 256,18,19
 336 -51 336 -51 290 -59 c 0,20,21
 241 -68 241 -68 206 -55 c 0,22,23
 170 -42 170 -42 155 -32 c 256,24,25
 140 -22 140 -22 128 -8 c 0,26,27
 115 6 115 6 108 20 c 0,28,29
 100 35 100 35 96 54 c 0,30,31
 92 74 92 74 91 83 c 256,32,33
 90 92 90 92 90 120 c 2,34,-1
 90 596 l 2,35,36
 90 604 90 604 87 612 c 256,37,38
 84 620 84 620 79 624 c 256,39,40
 74 628 74 628 65 631 c 256,41,42
 56 634 56 634 48 634 c 2,43,-1
 25 634 l 1,44,-1
 25 662 l 1,45,-1
 210 662 l 1,46,-1
 210 634 l 1,47,-1
 206 634 l 2,48,49
 183 634 183 634 174 632 c 0,50,51
 164 630 164 630 158 626 c 0,52,53
 151 622 151 622 148 615 c 0,54,55
 144 608 144 608 144 596 c 2,56,-1
 144 129 l 2,57,58
 144 109 144 109 145 95 c 256,59,60
 146 81 146 81 150 66 c 0,61,62
 154 52 154 52 160 38 c 0,63,64
 167 24 167 24 180 11 c 0,65,66
 192 -2 192 -2 208 -12 c 0,67,68
 223 -22 223 -22 237 -24 c 256,69,70
 251 -26 251 -26 267 -25 c 0,71,72
 291 -25 291 -25 310 -20 c 0,73,74
 330 -14 330 -14 348 1 c 0,75,76
 365 16 365 16 374 31 c 256,77,78
 383 46 383 46 386 61 c 0,79,80
 390 76 390 76 392 95 c 256,81,82
 394 114 394 114 394 126 c 2,83,-1
 394 592 l 2,84,85
 394 610 394 610 388 618 c 256,86,87
 382 626 382 626 372 630 c 256,88,89
 362 634 362 634 350 634 c 2,90,-1
 328 634 l 1,91,-1
 328 662 l 1,0,-1
EndSplineSet
EndChar
StartChar: V
Encoding: 86 86 57
Width: 512
Flags: W
LayerCount: 2
Back
Fore
SplineSet
487 634 m 1,0,-1
 478 634 l 2,1,2
 456 634 456 634 446 625 c 256,3,4
 436 616 436 616 427 594 c 256,5,6
 418 572 418 572 411 539 c 2,7,-1
 270 -62 l 1,8,-1
 246 -62 l 1,9,-1
 95 569 l 2,10,11
 89 591 89 591 82 604 c 0,12,13
 75 618 75 618 66 626 c 0,14,15
 56 634 56 634 38 634 c 2,16,-1
 27 634 l 1,17,-1
 27 662 l 1,18,-1
 210 662 l 1,19,-1
 208 634 l 1,20,-1
 180 634 l 2,21,22
 161 634 161 634 152 630 c 0,23,24
 142 625 142 625 144 602 c 2,25,-1
 151 572 l 1,26,-1
 271 62 l 1,27,-1
 380 535 l 2,28,29
 384 551 384 551 389 576 c 0,30,31
 394 600 394 600 394 612 c 0,32,33
 393 622 393 622 388 628 c 0,34,35
 384 634 384 634 372 634 c 2,36,-1
 340 634 l 1,37,-1
 338 662 l 1,38,-1
 486 662 l 1,39,-1
 487 634 l 1,0,-1
EndSplineSet
EndChar
StartChar: W
Encoding: 87 87 58
Width: 512
Flags: W
LayerCount: 2
Back
Fore
SplineSet
247 501 m 1,0,-1
 236 592 l 2,1,2
 234 603 234 603 233 610 c 0,3,4
 232 616 232 616 229 622 c 256,5,6
 226 628 226 628 221 631 c 256,7,8
 216 634 216 634 204 634 c 2,9,-1
 188 634 l 1,10,-1
 188 662 l 1,11,-1
 330 662 l 1,12,-1
 330 634 l 1,13,-1
 308 634 l 2,14,15
 295 634 295 634 290 629 c 0,16,17
 286 624 286 624 288 618 c 2,18,-1
 356 122 l 1,19,-1
 422 583 l 1,20,-1
 424 605 l 2,21,22
 425 613 425 613 425 616 c 0,23,24
 425 625 425 625 421 630 c 0,25,26
 418 634 418 634 400 634 c 2,27,-1
 385 634 l 1,28,-1
 385 662 l 1,29,-1
 498 662 l 1,30,-1
 498 634 l 1,31,-1
 488 634 l 2,32,33
 474 634 474 634 468 630 c 0,34,35
 461 626 461 626 458 620 c 0,36,37
 456 614 456 614 454 602 c 2,38,-1
 450 584 l 1,39,-1
 356 -61 l 1,40,-1
 332 -61 l 1,41,-1
 262 409 l 1,42,-1
 184 -61 l 1,43,-1
 160 -61 l 1,44,-1
 60 593 l 2,45,46
 58 607 58 607 56 613 c 256,47,48
 54 619 54 619 50 624 c 0,49,50
 46 628 46 628 39 631 c 256,51,52
 32 634 32 634 23 634 c 2,53,-1
 14 634 l 1,54,-1
 14 662 l 1,55,-1
 150 662 l 1,56,-1
 150 634 l 1,57,-1
 131 634 l 2,58,59
 124 634 124 634 120 632 c 256,60,61
 116 630 116 630 114 626 c 256,62,63
 112 622 112 622 112 615 c 0,64,65
 111 608 111 608 113 598 c 2,66,-1
 184 112 l 1,67,-1
 247 501 l 1,0,-1
EndSplineSet
EndChar
StartChar: X
Encoding: 88 88 59
Width: 512
Flags: W
LayerCount: 2
Back
Fore
SplineSet
231 308 m 1,0,-1
 124 568 l 2,1,2
 118 584 118 584 111 597 c 256,3,4
 104 610 104 610 98 617 c 256,5,6
 92 624 92 624 81 629 c 256,7,8
 70 634 70 634 56 634 c 2,9,-1
 38 634 l 1,10,-1
 38 662 l 1,11,-1
 214 662 l 1,12,-1
 214 634 l 1,13,-1
 191 634 l 2,14,15
 177 634 177 634 170 629 c 0,16,17
 164 624 164 624 164 612 c 0,18,19
 164 606 164 606 169 594 c 256,20,21
 174 582 174 582 178 573 c 2,22,-1
 263 376 l 1,23,-1
 352 569 l 2,24,25
 368 603 368 603 366 613 c 0,26,27
 363 623 363 623 356 628 c 0,28,29
 350 634 350 634 335 634 c 2,30,-1
 304 634 l 1,31,-1
 304 662 l 1,32,-1
 466 662 l 1,33,-1
 466 634 l 1,34,-1
 456 634 l 2,35,36
 442 634 442 634 431 629 c 256,37,38
 420 624 420 624 410 613 c 0,39,40
 401 602 401 602 390 577 c 2,41,-1
 279 340 l 1,42,-1
 401 58 l 2,43,44
 410 36 410 36 414 28 c 256,45,46
 418 20 418 20 424 11 c 256,47,48
 430 2 430 2 434 -2 c 0,49,50
 439 -6 439 -6 448 -10 c 0,51,52
 458 -14 458 -14 473 -14 c 2,53,-1
 486 -14 l 1,54,-1
 486 -43 l 1,55,-1
 297 -43 l 1,56,-1
 297 -14 l 1,57,-1
 320 -14 l 2,58,59
 338 -14 338 -14 345 -12 c 256,60,61
 352 -10 352 -10 355 -6 c 256,62,63
 358 -2 358 -2 358 6 c 0,64,65
 358 11 358 11 352 27 c 256,66,67
 346 43 346 43 344 46 c 2,68,-1
 252 273 l 1,69,-1
 148 60 l 1,70,-1
 134 28 l 2,71,72
 128 14 128 14 128 9 c 0,73,74
 128 1 128 1 132 -4 c 0,75,76
 136 -8 136 -8 145 -11 c 256,77,78
 154 -14 154 -14 172 -14 c 2,79,-1
 199 -14 l 1,80,-1
 199 -43 l 1,81,-1
 23 -43 l 1,82,-1
 23 -14 l 1,83,-1
 36 -14 l 2,84,85
 51 -14 51 -14 64 -8 c 256,86,87
 77 -2 77 -2 86 10 c 0,88,89
 96 20 96 20 106 42 c 2,90,-1
 231 308 l 1,0,-1
EndSplineSet
EndChar
StartChar: Y
Encoding: 89 89 60
Width: 512
Flags: W
LayerCount: 2
Back
Fore
SplineSet
488 634 m 1,0,-1
 477 634 l 2,1,2
 461 634 461 634 450 627 c 0,3,4
 440 620 440 620 433 609 c 256,5,6
 426 598 426 598 414 571 c 2,7,-1
 286 268 l 1,8,-1
 286 34 l 2,9,10
 286 9 286 9 296 -4 c 0,11,12
 306 -16 306 -16 327 -16 c 2,13,-1
 344 -16 l 1,14,-1
 344 -44 l 1,15,-1
 174 -44 l 1,16,-1
 174 -16 l 1,17,-1
 187 -16 l 2,18,19
 213 -16 213 -16 222 -6 c 0,20,21
 232 6 232 6 232 34 c 2,22,-1
 232 252 l 1,23,-1
 100 562 l 2,24,25
 88 588 88 588 79 603 c 256,26,27
 70 618 70 618 59 626 c 256,28,29
 48 634 48 634 34 634 c 2,30,-1
 24 634 l 1,31,-1
 24 662 l 1,32,-1
 194 662 l 1,33,-1
 194 634 l 1,34,-1
 166 634 l 2,35,36
 152 634 152 634 147 628 c 256,37,38
 142 622 142 622 142 612 c 0,39,40
 142 603 142 603 150 586 c 2,41,-1
 270 302 l 1,42,-1
 380 571 l 2,43,44
 388 591 388 591 390 598 c 0,45,46
 392 606 392 606 392 614 c 0,47,48
 390 626 390 626 384 630 c 256,49,50
 378 634 378 634 360 634 c 2,51,-1
 333 634 l 1,52,-1
 333 662 l 1,53,-1
 488 662 l 1,54,-1
 488 634 l 1,0,-1
EndSplineSet
EndChar
StartChar: Z
Encoding: 90 90 61
Width: 512
Flags: W
LayerCount: 2
Back
Fore
SplineSet
473 154 m 1,0,-1
 429 -44 l 1,1,-1
 40 -44 l 1,2,-1
 40 -20 l 1,3,-1
 400 634 l 1,4,-1
 272 634 l 2,5,6
 265 634 265 634 243 631 c 256,7,8
 221 628 221 628 214 626 c 0,9,10
 206 625 206 625 193 620 c 0,11,12
 180 614 180 614 171 608 c 256,13,14
 162 602 162 602 152 591 c 256,15,16
 142 580 142 580 132 566 c 256,17,18
 122 552 122 552 109 528 c 256,19,20
 96 504 96 504 93 498 c 2,21,-1
 84 476 l 1,22,-1
 64 476 l 1,23,-1
 98 662 l 1,24,-1
 465 662 l 1,25,-1
 465 640 l 1,26,-1
 102 -15 l 1,27,-1
 261 -15 l 2,28,29
 283 -15 283 -15 304 -10 c 0,30,31
 326 -5 326 -5 344 5 c 0,32,33
 363 15 363 15 378 30 c 0,34,35
 394 45 394 45 408 68 c 0,36,37
 424 90 424 90 436 116 c 2,38,-1
 454 154 l 1,39,-1
 473 154 l 1,0,-1
EndSplineSet
EndChar
StartChar: bracketleft
Encoding: 91 91 62
Width: 512
Flags: W
LayerCount: 2
Back
Fore
SplineSet
481 -172 m 1,0,-1
 232 -172 l 1,1,-1
 232 788 l 1,2,-1
 481 788 l 1,3,-1
 481 750 l 1,4,-1
 271 750 l 1,5,-1
 271 -134 l 1,6,-1
 481 -134 l 1,7,-1
 481 -172 l 1,0,-1
EndSplineSet
EndChar
StartChar: backslash
Encoding: 92 92 63
Width: 512
Flags: W
LayerCount: 2
Back
Fore
SplineSet
474 -132 m 1,0,-1
 438 -150 l 1,1,-1
 37 753 l 1,2,-1
 69 772 l 1,3,-1
 474 -132 l 1,0,-1
EndSplineSet
EndChar
StartChar: bracketright
Encoding: 93 93 64
Width: 512
Flags: W
LayerCount: 2
Back
Fore
SplineSet
280 -172 m 1,0,-1
 30 -172 l 1,1,-1
 30 -134 l 1,2,-1
 240 -134 l 1,3,-1
 240 750 l 1,4,-1
 30 750 l 1,5,-1
 30 788 l 1,6,-1
 280 788 l 1,7,-1
 280 -172 l 1,0,-1
EndSplineSet
EndChar
StartChar: asciicircum
Encoding: 94 94 65
Width: 512
Flags: W
LayerCount: 2
Back
Fore
SplineSet
429 684 m 1,0,-1
 389 685 l 1,1,-1
 256 773 l 1,2,-1
 120 685 l 1,3,-1
 82 685 l 1,4,-1
 204 812 l 1,5,-1
 307 812 l 1,6,-1
 429 684 l 1,0,-1
EndSplineSet
EndChar
StartChar: underscore
Encoding: 95 95 66
Width: 512
Flags: W
LayerCount: 2
Back
Fore
SplineSet
512 -204 m 1,0,-1
 0 -204 l 1,1,-1
 0 -168 l 1,2,-1
 512 -168 l 1,3,-1
 512 -204 l 1,0,-1
EndSplineSet
EndChar
StartChar: grave
Encoding: 96 96 67
Width: 512
Flags: W
LayerCount: 2
Back
Fore
SplineSet
173 812 m 2,0,-1
 411 718 l 2,1,2
 421 714 421 714 419 704 c 256,3,4
 417 694 417 694 405 696 c 2,5,-1
 151 726 l 2,6,7
 125 729 125 729 110 745 c 256,8,9
 95 761 95 761 101 784 c 0,10,11
 106 808 106 808 127 815 c 0,12,13
 147 822 147 822 173 812 c 2,0,-1
EndSplineSet
EndChar
StartChar: a
Encoding: 97 97 68
Width: 512
Flags: W
LayerCount: 2
Back
Fore
SplineSet
367 250 m 1,0,-1
 367 274 l 2,1,2
 367 304 367 304 365 327 c 256,3,4
 363 350 363 350 358 366 c 256,5,6
 353 382 353 382 342 395 c 256,7,8
 331 408 331 408 315 415 c 0,9,10
 298 422 298 422 281 424 c 0,11,12
 263 425 263 425 247 425 c 0,13,14
 222 425 222 425 210 422 c 0,15,16
 198 420 198 420 185 416 c 0,17,18
 173 412 173 412 164 407 c 256,19,20
 155 402 155 402 148 392 c 256,21,22
 141 382 141 382 138 370 c 256,23,24
 135 358 135 358 135 346 c 2,25,-1
 135 330 l 2,26,27
 133 312 133 312 123 302 c 0,28,29
 114 292 114 292 98 293 c 0,30,31
 84 294 84 294 77 304 c 0,32,33
 69 313 69 313 69 330 c 0,34,35
 69 348 69 348 77 367 c 0,36,37
 84 383 84 383 95 394 c 0,38,39
 105 404 105 404 117 412 c 256,40,41
 129 420 129 420 147 428 c 0,42,43
 166 436 166 436 181 439 c 0,44,45
 195 442 195 442 217 445 c 256,46,47
 239 448 239 448 255 448 c 0,48,49
 273 448 273 448 294 445 c 256,50,51
 315 442 315 442 327 439 c 0,52,53
 338 436 338 436 357 426 c 0,54,55
 377 416 377 416 390 400 c 256,56,57
 403 384 403 384 410 357 c 256,58,59
 417 330 417 330 417 286 c 2,60,-1
 417 2 l 2,61,62
 417 -8 417 -8 418 -12 c 256,63,64
 419 -16 419 -16 422 -18 c 256,65,66
 425 -20 425 -20 433 -15 c 2,67,-1
 443 -9 l 1,68,-1
 453 -2 l 1,69,-1
 465 -22 l 1,70,71
 455 -34 455 -34 451 -38 c 0,72,73
 446 -42 446 -42 433 -50 c 0,74,75
 421 -57 421 -57 416 -59 c 256,76,77
 411 -61 411 -61 401 -62 c 0,78,79
 391 -62 391 -62 382 -54 c 0,80,81
 374 -48 374 -48 371 -38 c 0,82,83
 367 -30 367 -30 367 -14 c 2,84,-1
 367 30 l 1,85,86
 349 18 349 18 342 10 c 2,87,-1
 307 -17 l 2,88,89
 289 -29 289 -29 267 -40 c 0,90,91
 245 -50 245 -50 227 -54 c 256,92,93
 209 -58 209 -58 195 -60 c 0,94,95
 181 -60 181 -60 171 -60 c 0,96,97
 159 -60 159 -60 145 -58 c 256,98,99
 131 -56 131 -56 112 -50 c 256,100,101
 93 -44 93 -44 77 -30 c 0,102,103
 60 -16 60 -16 53 -3 c 0,104,105
 47 10 47 10 46 18 c 256,106,107
 45 26 45 26 45 36 c 256,108,109
 45 46 45 46 45 59 c 0,110,111
 46 75 46 75 51 92 c 0,112,113
 55 109 55 109 64 124 c 256,114,115
 73 139 73 139 85 152 c 0,116,117
 98 166 98 166 111 176 c 0,118,119
 123 187 123 187 141 198 c 0,120,121
 160 210 160 210 177 217 c 0,122,123
 195 224 195 224 219 230 c 256,124,125
 243 236 243 236 259 239 c 0,126,127
 274 242 274 242 307 246 c 0,128,129
 341 250 341 250 349 250 c 2,130,-1
 367 250 l 1,0,-1
367 226 m 1,131,132
 356 227 356 227 350 227 c 256,133,134
 344 227 344 227 319 223 c 0,135,136
 295 219 295 219 285 216 c 0,137,138
 275 214 275 214 251 207 c 256,139,140
 227 200 227 200 205 190 c 0,141,142
 182 181 182 181 157 162 c 0,143,144
 133 144 133 144 120 126 c 0,145,146
 107 107 107 107 102 90 c 0,147,148
 97 72 97 72 99 52 c 0,149,150
 99 34 99 34 105 19 c 256,151,152
 111 4 111 4 123 -6 c 256,153,154
 135 -16 135 -16 147 -20 c 0,155,156
 159 -23 159 -23 172 -24 c 0,157,158
 185 -26 185 -26 193 -26 c 0,159,160
 209 -26 209 -26 227 -22 c 0,161,162
 245 -19 245 -19 264 -10 c 0,163,164
 283 -2 283 -2 297 8 c 0,165,166
 311 17 311 17 331 33 c 2,167,-1
 367 62 l 1,168,-1
 367 226 l 1,131,132
EndSplineSet
EndChar
StartChar: b
Encoding: 98 98 69
Width: 512
Flags: W
LayerCount: 2
Back
Fore
SplineSet
158 364 m 1,0,1
 166 376 166 376 173 384 c 0,2,3
 180 393 180 393 194 406 c 0,4,5
 209 419 209 419 224 428 c 0,6,7
 240 436 240 436 260 442 c 0,8,9
 281 448 281 448 301 447 c 0,10,11
 316 446 316 446 330 442 c 0,12,13
 343 438 343 438 354 434 c 0,14,15
 364 429 364 429 379 420 c 0,16,17
 394 410 394 410 411 392 c 0,18,19
 428 373 428 373 438 356 c 0,20,21
 448 340 448 340 456 318 c 0,22,23
 464 297 464 297 468 272 c 0,24,25
 472 246 472 246 472 228 c 0,26,27
 473 210 473 210 474 188 c 0,28,29
 474 166 474 166 471 144 c 256,30,31
 468 122 468 122 461 96 c 256,32,33
 454 70 454 70 440 44 c 0,34,35
 426 19 426 19 407 -1 c 256,36,37
 388 -21 388 -21 368 -32 c 0,38,39
 349 -44 349 -44 334 -49 c 0,40,41
 318 -54 318 -54 303 -57 c 256,42,43
 288 -60 288 -60 272 -60 c 0,44,45
 250 -60 250 -60 234 -55 c 0,46,47
 217 -50 217 -50 206 -45 c 0,48,49
 196 -40 196 -40 185 -32 c 256,50,51
 174 -24 174 -24 166 -16 c 2,52,-1
 156 -6 l 1,53,-1
 126 -62 l 1,54,-1
 108 -61 l 1,55,-1
 108 587 l 2,56,57
 108 605 108 605 98 614 c 0,58,59
 88 622 88 622 68 622 c 2,60,-1
 37 622 l 1,61,-1
 37 647 l 1,62,-1
 50 647 l 2,63,64
 60 647 60 647 73 648 c 0,65,66
 86 650 86 650 96 653 c 256,67,68
 106 656 106 656 128 666 c 2,69,-1
 158 680 l 1,70,-1
 158 364 l 1,0,1
158 320 m 1,71,-1
 158 68 l 2,72,73
 158 52 158 52 161 42 c 0,74,75
 164 33 164 33 168 26 c 0,76,77
 172 18 172 18 178 10 c 256,78,79
 184 2 184 2 192 -5 c 256,80,81
 200 -12 200 -12 211 -18 c 256,82,83
 222 -24 222 -24 235 -29 c 256,84,85
 248 -34 248 -34 264 -34 c 0,86,87
 284 -36 284 -36 300 -31 c 0,88,89
 317 -26 317 -26 334 -16 c 0,90,91
 350 -6 350 -6 364 9 c 0,92,93
 379 24 379 24 388 42 c 0,94,95
 397 59 397 59 404 79 c 0,96,97
 410 99 410 99 414 116 c 0,98,99
 417 134 417 134 418 154 c 0,100,101
 420 174 420 174 420 204 c 0,102,103
 420 232 420 232 418 248 c 0,104,105
 416 265 416 265 411 286 c 0,106,107
 406 308 406 308 398 328 c 256,108,109
 390 348 390 348 379 364 c 256,110,111
 368 380 368 380 353 393 c 256,112,113
 338 406 338 406 321 412 c 0,114,115
 304 419 304 419 278 420 c 0,116,117
 252 420 252 420 216 390 c 0,118,119
 206 382 206 382 196 372 c 0,120,121
 187 362 187 362 178 349 c 0,122,123
 168 336 168 336 160 322 c 1,124,-1
 158 320 l 1,71,-1
EndSplineSet
EndChar
StartChar: c
Encoding: 99 99 70
Width: 512
Flags: W
LayerCount: 2
Back
Fore
SplineSet
436 88 m 1,0,-1
 452 76 l 1,1,2
 439 50 439 50 429 35 c 256,3,4
 419 20 419 20 400 0 c 256,5,6
 381 -20 381 -20 362 -34 c 0,7,8
 343 -47 343 -47 322 -54 c 0,9,10
 301 -60 301 -60 283 -60 c 0,11,12
 267 -61 267 -61 249 -59 c 256,13,14
 231 -57 231 -57 205 -50 c 0,15,16
 179 -42 179 -42 158 -27 c 256,17,18
 137 -12 137 -12 119 8 c 256,19,20
 101 28 101 28 88 54 c 0,21,22
 75 81 75 81 68 114 c 0,23,24
 61 146 61 146 60 193 c 256,25,26
 59 240 59 240 80 292 c 0,27,28
 88 310 88 310 99 330 c 0,29,30
 111 350 111 350 128 370 c 0,31,32
 145 389 145 389 163 404 c 0,33,34
 180 418 180 418 201 428 c 256,35,36
 222 438 222 438 235 441 c 0,37,38
 249 444 249 444 262 445 c 256,39,40
 275 446 275 446 280 446 c 0,41,42
 285 447 285 447 289 447 c 0,43,44
 303 447 303 447 316 446 c 0,45,46
 329 444 329 444 342 441 c 256,47,48
 355 438 355 438 375 429 c 256,49,50
 395 420 395 420 409 407 c 0,51,52
 424 394 424 394 433 378 c 0,53,54
 443 362 443 362 443 342 c 0,55,56
 444 323 444 323 433 312 c 0,57,58
 423 300 423 300 407 302 c 0,59,60
 398 302 398 302 392 306 c 256,61,62
 386 310 386 310 383 317 c 0,63,64
 381 324 381 324 381 331 c 256,65,66
 381 338 381 338 380 347 c 256,67,68
 379 356 379 356 378 364 c 256,69,70
 377 372 377 372 372 382 c 256,71,72
 367 392 367 392 361 398 c 256,73,74
 355 404 355 404 345 410 c 256,75,76
 335 416 335 416 323 420 c 0,77,78
 311 422 311 422 293 422 c 0,79,80
 292 422 292 422 277 421 c 0,81,82
 261 420 261 420 253 418 c 0,83,84
 244 417 244 417 224 408 c 0,85,86
 204 398 204 398 188 384 c 256,87,88
 172 370 172 370 156 349 c 256,89,90
 140 328 140 328 130 298 c 256,91,92
 120 268 120 268 117 241 c 0,93,94
 113 214 113 214 113 185 c 256,95,96
 113 156 113 156 119 125 c 0,97,98
 124 94 124 94 135 72 c 0,99,100
 145 50 145 50 159 32 c 0,101,102
 173 15 173 15 187 4 c 0,103,104
 201 -6 201 -6 215 -12 c 0,105,106
 230 -17 230 -17 249 -22 c 0,107,108
 269 -26 269 -26 282 -25 c 0,109,110
 298 -25 298 -25 315 -20 c 0,111,112
 333 -15 333 -15 345 -8 c 256,113,114
 357 -1 357 -1 371 10 c 0,115,116
 387 22 387 22 399 38 c 2,117,-1
 416 61 l 1,118,-1
 436 88 l 1,0,-1
EndSplineSet
EndChar
StartChar: d
Encoding: 100 100 71
Width: 512
Flags: W
LayerCount: 2
Back
Fore
SplineSet
464 -43 m 1,0,-1
 358 -43 l 1,1,-1
 358 -4 l 1,2,3
 350 -13 350 -13 343 -20 c 0,4,5
 336 -26 336 -26 319 -37 c 256,6,7
 302 -48 302 -48 284 -55 c 256,8,9
 266 -62 266 -62 240 -62 c 0,10,11
 194 -63 194 -63 159 -45 c 256,12,13
 124 -27 124 -27 99 6 c 0,14,15
 74 40 74 40 60 83 c 0,16,17
 47 126 47 126 47 187 c 0,18,19
 47 249 47 249 62 296 c 0,20,21
 76 342 76 342 104 378 c 256,22,23
 132 414 132 414 165 430 c 0,24,25
 198 447 198 447 229 450 c 0,26,27
 248 452 248 452 264 449 c 0,28,29
 281 446 281 446 294 440 c 0,30,31
 306 435 306 435 324 424 c 0,32,33
 342 414 342 414 348 408 c 2,34,-1
 358 397 l 1,35,-1
 358 586 l 2,36,37
 358 605 358 605 349 614 c 0,38,39
 340 622 340 622 318 622 c 2,40,-1
 290 622 l 1,41,-1
 290 646 l 1,42,-1
 301 646 l 2,43,44
 317 646 317 646 340 652 c 0,45,46
 362 660 362 660 375 666 c 2,47,-1
 409 682 l 1,48,-1
 409 50 l 2,49,50
 409 13 409 13 414 3 c 0,51,52
 420 -7 420 -7 430 -12 c 0,53,54
 438 -18 438 -18 452 -18 c 2,55,-1
 464 -18 l 1,56,-1
 464 -43 l 1,0,-1
358 354 m 1,57,58
 346 368 346 368 336 378 c 0,59,60
 326 387 326 387 311 398 c 0,61,62
 296 408 296 408 277 415 c 256,63,64
 258 422 258 422 233 420 c 0,65,66
 209 418 209 418 184 404 c 0,67,68
 160 391 160 391 138 358 c 0,69,70
 117 326 117 326 110 290 c 0,71,72
 104 254 104 254 102 229 c 256,73,74
 100 204 100 204 99 187 c 256,75,76
 98 170 98 170 102 140 c 0,77,78
 105 110 105 110 112 82 c 0,79,80
 120 54 120 54 140 26 c 256,81,82
 160 -2 160 -2 186 -15 c 256,83,84
 212 -28 212 -28 233 -30 c 0,85,86
 261 -34 261 -34 287 -25 c 0,87,88
 312 -16 312 -16 328 2 c 2,89,-1
 358 34 l 1,90,-1
 358 354 l 1,57,58
EndSplineSet
EndChar
StartChar: e
Encoding: 101 101 72
Width: 512
Flags: W
LayerCount: 2
Back
Fore
SplineSet
116 194 m 1,0,1
 117 174 117 174 118 164 c 0,2,3
 119 153 119 153 122 137 c 0,4,5
 124 121 124 121 128 102 c 0,6,7
 132 82 132 82 140 65 c 256,8,9
 148 48 148 48 156 35 c 256,10,11
 164 22 164 22 175 12 c 256,12,13
 186 2 186 2 200 -5 c 0,14,15
 213 -12 213 -12 228 -17 c 256,16,17
 243 -22 243 -22 269 -22 c 0,18,19
 298 -22 298 -22 314 -18 c 0,20,21
 330 -13 330 -13 342 -6 c 0,22,23
 354 0 354 0 368 10 c 0,24,25
 383 19 383 19 393 28 c 0,26,27
 402 38 402 38 416 56 c 2,28,-1
 431 74 l 1,29,-1
 446 64 l 1,30,31
 437 50 437 50 431 40 c 0,32,33
 425 31 425 31 414 16 c 0,34,35
 402 2 402 2 389 -10 c 256,36,37
 376 -22 376 -22 360 -32 c 0,38,39
 345 -43 345 -43 332 -48 c 0,40,41
 319 -54 319 -54 302 -58 c 0,42,43
 286 -62 286 -62 266 -62 c 0,44,45
 239 -62 239 -62 212 -55 c 0,46,47
 186 -48 186 -48 164 -34 c 0,48,49
 142 -19 142 -19 124 2 c 0,50,51
 106 22 106 22 95 45 c 256,52,53
 84 68 84 68 77 88 c 0,54,55
 70 107 70 107 67 122 c 0,56,57
 64 136 64 136 62 156 c 0,58,59
 61 176 61 176 61 191 c 0,60,61
 62 206 62 206 62 218 c 0,62,63
 62 232 62 232 65 255 c 256,64,65
 68 278 68 278 83 311 c 256,66,67
 98 344 98 344 114 365 c 256,68,69
 130 386 130 386 147 401 c 256,70,71
 164 416 164 416 183 427 c 256,72,73
 202 438 202 438 223 443 c 256,74,75
 244 448 244 448 266 448 c 0,76,77
 302 447 302 447 330 434 c 0,78,79
 358 422 358 422 380 400 c 256,80,81
 402 378 402 378 417 348 c 0,82,83
 432 319 432 319 438 296 c 0,84,85
 444 274 444 274 446 255 c 0,86,87
 450 236 450 236 450 221 c 2,88,-1
 450 194 l 1,89,-1
 116 194 l 1,0,1
394 221 m 1,90,91
 394 232 394 232 394 252 c 0,92,93
 394 273 394 273 389 296 c 0,94,95
 384 320 384 320 375 340 c 256,96,97
 366 360 366 360 351 380 c 256,98,99
 336 400 336 400 314 412 c 0,100,101
 292 422 292 422 264 422 c 0,102,103
 238 421 238 421 218 410 c 0,104,105
 197 400 197 400 180 382 c 0,106,107
 164 364 164 364 152 342 c 0,108,109
 140 321 140 321 131 293 c 256,110,111
 122 265 122 265 121 252 c 2,112,-1
 118 221 l 1,113,-1
 394 221 l 1,90,91
EndSplineSet
EndChar
StartChar: f
Encoding: 102 102 73
Width: 512
Flags: W
LayerCount: 2
Back
Fore
SplineSet
197 448 m 1,0,-1
 197 463 l 2,1,2
 197 490 197 490 198 507 c 256,3,4
 199 524 199 524 201 542 c 256,5,6
 203 560 203 560 210 587 c 0,7,8
 216 614 216 614 235 639 c 256,9,10
 254 664 254 664 274 671 c 256,11,12
 294 678 294 678 316 679 c 0,13,14
 340 679 340 679 356 672 c 0,15,16
 373 664 373 664 384 647 c 0,17,18
 396 630 396 630 396 611 c 0,19,20
 395 598 395 598 388 589 c 0,21,22
 382 580 382 580 375 577 c 256,23,24
 368 574 368 574 358 575 c 0,25,26
 346 576 346 576 340 581 c 256,27,28
 334 586 334 586 331 593 c 256,29,30
 328 600 328 600 325 616 c 0,31,32
 322 631 322 631 317 638 c 0,33,34
 312 644 312 644 300 646 c 0,35,36
 288 647 288 647 274 630 c 0,37,38
 262 615 262 615 255 590 c 0,39,40
 248 566 248 566 248 537 c 2,41,-1
 248 448 l 1,42,-1
 360 448 l 1,43,-1
 360 422 l 1,44,-1
 248 422 l 1,45,-1
 248 12 l 2,46,47
 248 -2 248 -2 257 -10 c 256,48,49
 266 -18 266 -18 290 -18 c 2,50,-1
 320 -18 l 1,51,-1
 320 -44 l 1,52,-1
 128 -44 l 1,53,-1
 128 -18 l 1,54,-1
 154 -18 l 2,55,56
 180 -18 180 -18 188 -9 c 0,57,58
 197 0 197 0 197 12 c 2,59,-1
 197 422 l 1,60,-1
 119 422 l 1,61,-1
 119 448 l 1,62,-1
 197 448 l 1,0,-1
EndSplineSet
EndChar
StartChar: g
Encoding: 103 103 74
Width: 512
Flags: W
LayerCount: 2
Back
Fore
SplineSet
353 404 m 1,0,1
 357 409 357 409 370 422 c 0,2,3
 382 434 382 434 398 441 c 256,4,5
 414 448 414 448 428 448 c 0,6,7
 438 448 438 448 447 445 c 256,8,9
 456 442 456 442 463 436 c 256,10,11
 470 430 470 430 475 422 c 0,12,13
 480 413 480 413 480 402 c 0,14,15
 480 392 480 392 474 382 c 0,16,17
 470 376 470 376 464 372 c 256,18,19
 458 368 458 368 449 369 c 0,20,21
 439 369 439 369 432 372 c 0,22,23
 426 376 426 376 422 383 c 2,24,-1
 420 388 l 2,25,26
 419 390 419 390 412 399 c 0,27,28
 406 408 406 408 396 406 c 0,29,30
 390 406 390 406 384 400 c 2,31,-1
 370 386 l 1,32,33
 384 362 384 362 391 344 c 256,34,35
 398 326 398 326 398 294 c 0,36,37
 398 254 398 254 384 227 c 0,38,39
 371 200 371 200 349 182 c 256,40,41
 327 164 327 164 302 155 c 256,42,43
 277 146 277 146 260 145 c 0,44,45
 244 144 244 144 226 144 c 256,46,47
 208 144 208 144 178 143 c 256,48,49
 148 142 148 142 130 130 c 0,50,51
 111 118 111 118 106 109 c 0,52,53
 102 100 102 100 102 86 c 0,54,55
 102 76 102 76 105 70 c 256,56,57
 108 64 108 64 115 58 c 0,58,59
 122 53 122 53 134 50 c 0,60,61
 147 48 147 48 166 46 c 0,62,63
 186 44 186 44 232 44 c 0,64,65
 241 44 241 44 254 44 c 0,66,67
 268 44 268 44 273 44 c 0,68,69
 318 43 318 43 344 36 c 0,70,71
 370 30 370 30 388 22 c 0,72,73
 406 13 406 13 420 -10 c 0,74,75
 434 -32 434 -32 434 -66 c 0,76,77
 433 -98 433 -98 418 -126 c 0,78,79
 402 -153 402 -153 375 -169 c 256,80,81
 348 -185 348 -185 315 -194 c 0,82,83
 282 -202 282 -202 234 -202 c 0,84,85
 180 -204 180 -204 150 -199 c 256,86,87
 120 -194 120 -194 95 -186 c 256,88,89
 70 -178 70 -178 52 -153 c 256,90,91
 34 -128 34 -128 36 -96 c 0,92,93
 37 -74 37 -74 51 -52 c 0,94,95
 64 -30 64 -30 106 -13 c 2,96,-1
 126 -4 l 1,97,98
 116 -2 116 -2 105 0 c 256,99,100
 94 2 94 2 82 11 c 256,101,102
 70 20 70 20 63 33 c 256,103,104
 56 46 56 46 56 68 c 256,105,106
 56 90 56 90 64 107 c 0,107,108
 73 124 73 124 92 138 c 0,109,110
 112 152 112 152 140 158 c 2,111,-1
 165 164 l 1,112,113
 150 170 150 170 129 179 c 256,114,115
 108 188 108 188 87 217 c 256,116,117
 66 246 66 246 66 286 c 256,118,119
 66 326 66 326 79 354 c 0,120,121
 91 381 91 381 116 402 c 0,122,123
 140 424 140 424 168 434 c 0,124,125
 197 445 197 445 234 446 c 0,126,127
 277 446 277 446 303 435 c 256,128,129
 329 424 329 424 341 414 c 2,130,-1
 353 404 l 1,0,1
340 292 m 0,131,132
 340 318 340 318 333 342 c 0,133,134
 326 365 326 365 315 382 c 0,135,136
 304 398 304 398 284 409 c 0,137,138
 263 420 263 420 233 420 c 0,139,140
 205 420 205 420 184 410 c 0,141,142
 164 399 164 399 150 381 c 256,143,144
 136 363 136 363 129 342 c 0,145,146
 122 322 122 322 122 283 c 256,147,148
 122 244 122 244 140 216 c 0,149,150
 152 196 152 196 174 183 c 256,151,152
 196 170 196 170 234 172 c 0,153,154
 262 172 262 172 280 181 c 0,155,156
 299 190 299 190 312 207 c 0,157,158
 326 224 326 224 333 244 c 0,159,160
 340 263 340 263 340 292 c 0,131,132
174 -6 m 1,161,162
 162 -13 162 -13 142 -26 c 0,163,164
 122 -38 122 -38 109 -62 c 256,165,166
 96 -86 96 -86 96 -104 c 256,167,168
 96 -122 96 -122 104 -134 c 0,169,170
 112 -148 112 -148 130 -158 c 0,171,172
 149 -168 149 -168 176 -173 c 256,173,174
 203 -178 203 -178 240 -176 c 0,175,176
 264 -176 264 -176 284 -172 c 0,177,178
 305 -168 305 -168 332 -154 c 0,179,180
 360 -140 360 -140 371 -124 c 256,181,182
 382 -108 382 -108 383 -100 c 256,183,184
 384 -92 384 -92 384 -86 c 0,185,186
 384 -63 384 -63 375 -48 c 0,187,188
 366 -32 366 -32 343 -17 c 256,189,190
 320 -2 320 -2 259 -2 c 2,191,-1
 238 -2 l 1,192,-1
 200 -3 l 1,193,-1
 174 -6 l 1,161,162
EndSplineSet
EndChar
StartChar: h
Encoding: 104 104 75
Width: 512
Flags: W
LayerCount: 2
Back
Fore
SplineSet
483 -43 m 1,0,-1
 316 -43 l 1,1,-1
 316 -18 l 1,2,-1
 332 -18 l 2,3,4
 352 -18 352 -18 363 -4 c 256,5,6
 374 10 374 10 374 42 c 2,7,-1
 374 280 l 2,8,9
 374 312 374 312 368 335 c 256,10,11
 362 358 362 358 351 377 c 256,12,13
 340 396 340 396 322 407 c 0,14,15
 303 418 303 418 274 418 c 0,16,17
 254 418 254 418 230 409 c 256,18,19
 206 400 206 400 184 376 c 256,20,21
 162 352 162 352 150 328 c 0,22,23
 139 304 139 304 139 289 c 2,24,-1
 139 42 l 2,25,26
 139 14 139 14 144 2 c 0,27,28
 150 -9 150 -9 159 -14 c 0,29,30
 168 -18 168 -18 181 -18 c 2,31,-1
 192 -18 l 1,32,-1
 192 -43 l 1,33,-1
 28 -43 l 1,34,-1
 28 -18 l 1,35,-1
 38 -18 l 2,36,37
 50 -18 50 -18 61 -12 c 256,38,39
 72 -6 72 -6 80 6 c 256,40,41
 88 18 88 18 88 42 c 2,42,-1
 88 587 l 2,43,44
 88 605 88 605 78 614 c 0,45,46
 68 622 68 622 50 622 c 2,47,-1
 28 622 l 1,48,-1
 28 646 l 1,49,-1
 38 646 l 2,50,51
 60 646 60 646 80 653 c 256,52,53
 100 660 100 660 113 668 c 2,54,-1
 139 682 l 1,55,-1
 139 366 l 1,56,57
 146 377 146 377 153 387 c 256,58,59
 160 397 160 397 175 412 c 0,60,61
 190 426 190 426 216 437 c 256,62,63
 242 448 242 448 274 448 c 0,64,65
 314 448 314 448 338 436 c 0,66,67
 362 423 362 423 377 410 c 256,68,69
 392 397 392 397 404 374 c 0,70,71
 415 350 415 350 420 324 c 0,72,73
 424 297 424 297 424 253 c 2,74,-1
 424 42 l 2,75,76
 424 10 424 10 437 -4 c 256,77,78
 450 -18 450 -18 469 -18 c 2,79,-1
 483 -18 l 1,80,-1
 483 -43 l 1,0,-1
EndSplineSet
EndChar
StartChar: i
Encoding: 105 105 76
Width: 512
Flags: W
LayerCount: 2
Back
Fore
SplineSet
282 447 m 1,0,-1
 282 22 l 2,1,2
 282 0 282 0 294 -9 c 0,3,4
 305 -18 305 -18 325 -18 c 2,5,-1
 348 -18 l 1,6,-1
 348 -44 l 1,7,-1
 164 -44 l 1,8,-1
 164 -18 l 1,9,-1
 188 -18 l 2,10,11
 212 -18 212 -18 222 -4 c 0,12,13
 231 11 231 11 231 22 c 2,14,-1
 231 336 l 2,15,16
 231 359 231 359 220 372 c 0,17,18
 210 384 210 384 188 384 c 2,19,-1
 170 384 l 1,20,-1
 170 409 l 1,21,22
 182 409 182 409 188 410 c 0,23,24
 195 411 195 411 216 418 c 0,25,26
 238 424 238 424 244 427 c 2,27,-1
 282 447 l 1,0,-1
241 662 m 1,28,29
 265 662 265 662 278 655 c 0,30,31
 290 648 290 648 297 636 c 0,32,33
 304 625 304 625 304 610 c 0,34,35
 304 596 304 596 298 585 c 0,36,37
 291 573 291 573 278 566 c 0,38,39
 266 560 266 560 253 560 c 0,40,41
 239 560 239 560 228 566 c 0,42,43
 216 573 216 573 209 585 c 256,44,45
 202 597 202 597 202 611 c 0,46,47
 202 624 202 624 209 636 c 256,48,49
 216 648 216 648 241 662 c 1,28,29
EndSplineSet
EndChar
StartChar: j
Encoding: 106 106 77
Width: 512
Flags: W
LayerCount: 2
Back
Fore
SplineSet
230 384 m 1,0,-1
 230 410 l 1,1,2
 242 410 242 410 249 411 c 256,3,4
 256 412 256 412 277 418 c 256,5,6
 298 424 298 424 304 428 c 2,7,-1
 342 448 l 1,8,-1
 342 14 l 2,9,10
 342 -32 342 -32 340 -58 c 0,11,12
 338 -85 338 -85 335 -106 c 0,13,14
 332 -126 332 -126 320 -150 c 256,15,16
 308 -174 308 -174 284 -188 c 256,17,18
 260 -202 260 -202 238 -202 c 0,19,20
 214 -204 214 -204 195 -195 c 256,21,22
 176 -186 176 -186 164 -174 c 256,23,24
 152 -162 152 -162 150 -154 c 0,25,26
 147 -146 147 -146 147 -130 c 256,27,28
 147 -114 147 -114 154 -104 c 0,29,30
 162 -94 162 -94 177 -93 c 256,31,32
 192 -92 192 -92 202 -102 c 0,33,34
 207 -108 207 -108 211 -120 c 2,35,-1
 218 -144 l 2,36,37
 222 -155 222 -155 229 -162 c 0,38,39
 236 -170 236 -170 249 -171 c 256,40,41
 262 -172 262 -172 278 -146 c 0,42,43
 286 -130 286 -130 288 -100 c 256,44,45
 290 -70 290 -70 290 -64 c 2,46,-1
 291 336 l 2,47,48
 291 359 291 359 280 372 c 0,49,50
 270 384 270 384 248 384 c 2,51,-1
 230 384 l 1,0,-1
304 662 m 1,52,53
 328 662 328 662 340 655 c 0,54,55
 353 648 353 648 360 636 c 0,56,57
 366 625 366 625 366 610 c 0,58,59
 366 596 366 596 360 585 c 0,60,61
 353 573 353 573 340 566 c 0,62,63
 328 560 328 560 316 560 c 0,64,65
 302 560 302 560 290 566 c 0,66,67
 278 573 278 573 271 585 c 256,68,69
 264 597 264 597 264 611 c 0,70,71
 264 624 264 624 271 636 c 256,72,73
 278 648 278 648 304 662 c 1,52,53
EndSplineSet
EndChar
StartChar: k
Encoding: 107 107 78
Width: 512
Flags: W
LayerCount: 2
Back
Fore
SplineSet
144 188 m 1,0,-1
 276 332 l 1,1,-1
 300 361 l 2,2,3
 307 369 307 369 312 380 c 0,4,5
 317 390 317 390 310 398 c 0,6,7
 302 406 302 406 286 406 c 2,8,-1
 270 406 l 1,9,-1
 270 430 l 1,10,-1
 446 430 l 1,11,-1
 446 406 l 1,12,-1
 429 406 l 2,13,14
 416 406 416 406 397 398 c 256,15,16
 378 390 378 390 368 382 c 0,17,18
 357 376 357 376 337 354 c 2,19,-1
 255 266 l 1,20,-1
 380 46 l 2,21,22
 396 18 396 18 408 4 c 0,23,24
 419 -9 419 -9 430 -14 c 0,25,26
 440 -20 440 -20 458 -20 c 2,27,-1
 478 -20 l 1,28,-1
 478 -44 l 1,29,-1
 294 -44 l 1,30,-1
 294 -20 l 1,31,-1
 312 -20 l 2,32,33
 330 -20 330 -20 335 -16 c 0,34,35
 340 -11 340 -11 341 -4 c 0,36,37
 342 2 342 2 320 44 c 2,38,-1
 218 228 l 1,39,-1
 144 148 l 1,40,-1
 144 41 l 2,41,42
 144 4 144 4 156 -8 c 256,43,44
 168 -20 168 -20 189 -20 c 2,45,-1
 202 -20 l 1,46,-1
 202 -44 l 1,47,-1
 34 -44 l 1,48,-1
 34 -20 l 1,49,-1
 50 -20 l 2,50,51
 70 -20 70 -20 81 -6 c 256,52,53
 92 8 92 8 92 41 c 2,54,-1
 92 572 l 2,55,56
 92 596 92 596 82 608 c 256,57,58
 72 620 72 620 50 620 c 2,59,-1
 32 620 l 1,60,-1
 32 646 l 1,61,62
 44 646 44 646 55 647 c 256,63,64
 66 648 66 648 83 654 c 0,65,66
 100 661 100 661 106 664 c 2,67,-1
 144 684 l 1,68,-1
 144 188 l 1,0,-1
EndSplineSet
EndChar
StartChar: l
Encoding: 108 108 79
Width: 512
Flags: W
LayerCount: 2
Back
Fore
SplineSet
168 620 m 1,0,-1
 168 644 l 1,1,2
 180 644 180 644 188 645 c 0,3,4
 195 646 195 646 216 652 c 0,5,6
 236 658 236 658 242 662 c 2,7,-1
 278 682 l 1,8,-1
 278 34 l 2,9,10
 278 4 278 4 292 -8 c 0,11,12
 305 -20 305 -20 333 -20 c 2,13,-1
 348 -20 l 1,14,-1
 348 -44 l 1,15,-1
 164 -44 l 1,16,-1
 164 -20 l 1,17,-1
 180 -20 l 2,18,19
 204 -20 204 -20 216 -8 c 0,20,21
 229 6 229 6 229 34 c 2,22,-1
 229 571 l 2,23,24
 229 595 229 595 218 608 c 0,25,26
 208 620 208 620 186 620 c 2,27,-1
 168 620 l 1,0,-1
EndSplineSet
EndChar
StartChar: m
Encoding: 109 109 80
Width: 512
Flags: W
LayerCount: 2
Back
Fore
SplineSet
498 -44 m 1,0,-1
 373 -44 l 1,1,-1
 373 -20 l 1,2,-1
 380 -20 l 2,3,4
 394 -20 394 -20 402 -10 c 256,5,6
 410 0 410 0 410 32 c 2,7,-1
 410 324 l 2,8,9
 410 334 410 334 408 354 c 0,10,11
 407 374 407 374 404 387 c 0,12,13
 400 400 400 400 390 410 c 0,14,15
 381 420 381 420 367 420 c 256,16,17
 353 420 353 420 338 409 c 0,18,19
 322 398 322 398 315 383 c 256,20,21
 308 368 308 368 298 342 c 0,22,23
 286 315 286 315 286 313 c 2,24,-1
 281 294 l 1,25,-1
 281 32 l 2,26,27
 281 0 281 0 290 -10 c 0,28,29
 300 -20 300 -20 312 -20 c 2,30,-1
 320 -20 l 1,31,-1
 320 -44 l 1,32,-1
 194 -44 l 1,33,-1
 194 -20 l 1,34,-1
 198 -20 l 2,35,36
 213 -20 213 -20 222 -10 c 0,37,38
 230 0 230 0 230 32 c 2,39,-1
 230 324 l 2,40,41
 230 334 230 334 228 363 c 0,42,43
 227 392 227 392 218 406 c 0,44,45
 208 420 208 420 189 420 c 0,46,47
 173 420 173 420 158 404 c 256,48,49
 143 388 143 388 130 363 c 0,50,51
 118 338 118 338 114 327 c 2,52,-1
 104 292 l 1,53,-1
 104 22 l 2,54,55
 104 -6 104 -6 113 -13 c 256,56,57
 122 -20 122 -20 132 -20 c 2,58,-1
 142 -20 l 1,59,-1
 142 -44 l 1,60,-1
 14 -44 l 1,61,-1
 14 -20 l 1,62,-1
 28 -20 l 2,63,64
 40 -20 40 -20 47 -10 c 256,65,66
 54 0 54 0 54 22 c 2,67,-1
 54 356 l 2,68,69
 54 374 54 374 47 382 c 0,70,71
 40 389 40 389 20 389 c 2,72,-1
 13 389 l 1,73,-1
 13 414 l 1,74,75
 23 414 23 414 32 416 c 0,76,77
 42 417 42 417 55 422 c 0,78,79
 68 426 68 426 78 433 c 2,80,-1
 104 448 l 1,81,-1
 104 369 l 1,82,83
 111 383 111 383 117 394 c 256,84,85
 123 405 123 405 136 420 c 0,86,87
 149 434 149 434 164 441 c 0,88,89
 180 448 180 448 202 448 c 0,90,91
 223 448 223 448 238 440 c 0,92,93
 252 432 252 432 263 417 c 256,94,95
 274 402 274 402 276 388 c 2,96,-1
 280 369 l 1,97,98
 284 380 284 380 289 390 c 256,99,100
 294 400 294 400 300 410 c 0,101,102
 307 420 307 420 320 430 c 0,103,104
 332 440 332 440 346 445 c 256,105,106
 360 450 360 450 379 448 c 0,107,108
 409 445 409 445 428 429 c 0,109,110
 446 413 446 413 453 386 c 0,111,112
 460 358 460 358 460 324 c 2,113,-1
 460 14 l 2,114,115
 460 -5 460 -5 466 -12 c 0,116,117
 472 -20 472 -20 484 -20 c 2,118,-1
 498 -20 l 1,119,-1
 498 -44 l 1,0,-1
EndSplineSet
EndChar
StartChar: n
Encoding: 110 110 81
Width: 512
Flags: W
LayerCount: 2
Back
Fore
SplineSet
476 -44 m 1,0,-1
 329 -44 l 1,1,-1
 329 -20 l 1,2,-1
 340 -20 l 2,3,4
 348 -20 348 -20 356 -16 c 0,5,6
 363 -12 363 -12 368 -6 c 0,7,8
 372 0 372 0 374 8 c 256,9,10
 376 16 376 16 376 30 c 2,11,-1
 376 283 l 2,12,13
 376 326 376 326 371 346 c 256,14,15
 366 366 366 366 355 384 c 256,16,17
 344 402 344 402 324 413 c 256,18,19
 304 424 304 424 273 421 c 0,20,21
 236 417 236 417 210 398 c 0,22,23
 183 378 183 378 166 354 c 0,24,25
 148 329 148 329 143 315 c 2,26,-1
 138 302 l 1,27,-1
 138 24 l 2,28,29
 138 10 138 10 142 1 c 0,30,31
 145 -8 145 -8 152 -14 c 0,32,33
 158 -20 158 -20 173 -20 c 2,34,-1
 186 -20 l 1,35,-1
 186 -44 l 1,36,-1
 39 -44 l 1,37,-1
 39 -20 l 1,38,-1
 53 -20 l 2,39,40
 68 -20 68 -20 78 -10 c 0,41,42
 87 0 87 0 87 24 c 2,43,-1
 87 358 l 2,44,45
 87 374 87 374 78 382 c 0,46,47
 68 391 68 391 53 391 c 2,48,-1
 35 391 l 1,49,-1
 35 416 l 1,50,51
 54 416 54 416 66 418 c 0,52,53
 77 419 77 419 90 424 c 0,54,55
 102 428 102 428 114 435 c 2,56,-1
 138 450 l 1,57,-1
 138 358 l 1,58,59
 149 375 149 375 158 385 c 0,60,61
 166 395 166 395 184 410 c 0,62,63
 202 426 202 426 224 436 c 0,64,65
 246 447 246 447 278 448 c 0,66,67
 298 448 298 448 318 444 c 256,68,69
 338 440 338 440 359 430 c 256,70,71
 380 420 380 420 394 400 c 0,72,73
 409 380 409 380 416 358 c 0,74,75
 422 337 422 337 424 322 c 0,76,77
 426 308 426 308 426 293 c 2,78,-1
 426 30 l 2,79,80
 426 18 426 18 428 8 c 0,81,82
 431 -2 431 -2 436 -7 c 0,83,84
 440 -12 440 -12 448 -16 c 256,85,86
 456 -20 456 -20 470 -20 c 2,87,-1
 476 -20 l 1,88,-1
 476 -44 l 1,0,-1
EndSplineSet
EndChar
StartChar: o
Encoding: 111 111 82
Width: 512
Flags: W
LayerCount: 2
Back
Fore
SplineSet
254 -61 m 0,0,1
 240 -61 240 -61 223 -59 c 256,2,3
 206 -57 206 -57 190 -52 c 0,4,5
 173 -47 173 -47 150 -30 c 0,6,7
 127 -12 127 -12 108 11 c 0,8,9
 90 34 90 34 77 70 c 256,10,11
 64 106 64 106 61 138 c 256,12,13
 58 170 58 170 58 198 c 0,14,15
 58 231 58 231 64 264 c 0,16,17
 69 296 69 296 82 326 c 0,18,19
 94 356 94 356 114 381 c 0,20,21
 133 406 133 406 157 421 c 256,22,23
 181 436 181 436 204 442 c 0,24,25
 226 448 226 448 254 448 c 0,26,27
 284 448 284 448 307 441 c 256,28,29
 330 434 330 434 348 423 c 256,30,31
 366 412 366 412 386 392 c 256,32,33
 406 372 406 372 420 343 c 256,34,35
 434 314 434 314 441 290 c 0,36,37
 448 265 448 265 451 238 c 0,38,39
 454 212 454 212 454 191 c 0,40,41
 454 174 454 174 451 149 c 256,42,43
 448 124 448 124 442 101 c 256,44,45
 436 78 436 78 424 51 c 256,46,47
 412 24 412 24 393 2 c 256,48,49
 374 -20 374 -20 352 -34 c 256,50,51
 330 -48 330 -48 313 -53 c 256,52,53
 296 -58 296 -58 280 -60 c 0,54,55
 264 -61 264 -61 254 -61 c 0,0,1
254 422 m 0,56,57
 245 422 245 422 228 420 c 0,58,59
 210 418 210 418 184 400 c 0,60,61
 157 383 157 383 142 352 c 0,62,63
 128 320 128 320 122 294 c 256,64,65
 116 268 116 268 113 239 c 256,66,67
 110 210 110 210 112 184 c 0,68,69
 112 158 112 158 116 126 c 256,70,71
 120 94 120 94 126 71 c 256,72,73
 132 48 132 48 146 28 c 256,74,75
 160 8 160 8 175 -5 c 256,76,77
 190 -18 190 -18 209 -27 c 256,78,79
 228 -36 228 -36 254 -36 c 0,80,81
 270 -36 270 -36 293 -30 c 0,82,83
 316 -23 316 -23 333 -10 c 256,84,85
 350 3 350 3 362 26 c 0,86,87
 374 48 374 48 382 71 c 256,88,89
 390 94 390 94 394 122 c 256,90,91
 398 150 398 150 398 183 c 256,92,93
 398 216 398 216 396 239 c 0,94,95
 394 251 394 251 392 272 c 0,96,97
 389 292 389 292 382 317 c 0,98,99
 374 342 374 342 360 363 c 0,100,101
 347 384 347 384 334 395 c 256,102,103
 321 406 321 406 306 412 c 0,104,105
 292 418 292 418 277 420 c 256,106,107
 262 422 262 422 254 422 c 0,56,57
EndSplineSet
EndChar
StartChar: p
Encoding: 112 112 83
Width: 512
Flags: W
LayerCount: 2
Back
Fore
SplineSet
160 383 m 1,0,1
 172 395 172 395 179 402 c 0,2,3
 186 410 186 410 198 419 c 256,4,5
 210 428 210 428 226 435 c 256,6,7
 242 442 242 442 259 446 c 256,8,9
 276 450 276 450 300 448 c 0,10,11
 338 445 338 445 368 426 c 0,12,13
 398 408 398 408 420 376 c 256,14,15
 442 344 442 344 451 314 c 256,16,17
 460 284 460 284 463 262 c 256,18,19
 466 240 466 240 466 227 c 0,20,21
 467 214 467 214 468 186 c 0,22,23
 468 158 468 158 464 130 c 256,24,25
 460 102 460 102 452 72 c 0,26,27
 444 41 444 41 425 14 c 0,28,29
 406 -12 406 -12 387 -26 c 0,30,31
 368 -41 368 -41 354 -47 c 256,32,33
 340 -53 340 -53 326 -57 c 256,34,35
 312 -61 312 -61 288 -61 c 256,36,37
 264 -61 264 -61 242 -56 c 256,38,39
 220 -51 220 -51 201 -38 c 0,40,41
 182 -26 182 -26 175 -18 c 2,42,-1
 160 -4 l 1,43,-1
 160 -114 l 2,44,45
 160 -138 160 -138 167 -150 c 0,46,47
 174 -163 174 -163 185 -170 c 256,48,49
 196 -177 196 -177 219 -177 c 2,50,-1
 228 -177 l 1,51,-1
 228 -204 l 1,52,-1
 42 -204 l 1,53,-1
 42 -177 l 1,54,-1
 50 -177 l 2,55,56
 72 -177 72 -177 83 -170 c 256,57,58
 94 -163 94 -163 101 -150 c 0,59,60
 108 -138 108 -138 108 -114 c 2,61,-1
 108 349 l 2,62,63
 108 371 108 371 102 380 c 0,64,65
 97 388 97 388 87 391 c 256,66,67
 77 394 77 394 64 394 c 2,68,-1
 52 394 l 1,69,-1
 52 420 l 1,70,71
 58 419 58 419 62 419 c 256,72,73
 66 419 66 419 81 420 c 0,74,75
 96 422 96 422 111 426 c 0,76,77
 126 431 126 431 138 438 c 2,78,-1
 160 449 l 1,79,-1
 160 383 l 1,0,1
160 344 m 1,80,-1
 160 36 l 1,81,82
 170 24 170 24 178 15 c 256,83,84
 186 6 186 6 203 -6 c 256,85,86
 220 -18 220 -18 241 -27 c 256,87,88
 262 -36 262 -36 288 -34 c 0,89,90
 314 -33 314 -33 332 -23 c 256,91,92
 350 -13 350 -13 362 0 c 0,93,94
 374 14 374 14 386 36 c 256,95,96
 398 58 398 58 404 80 c 0,97,98
 409 102 409 102 412 134 c 0,99,100
 416 167 416 167 416 198 c 0,101,102
 416 247 416 247 408 282 c 0,103,104
 400 318 400 318 384 352 c 0,105,106
 368 387 368 387 341 404 c 256,107,108
 314 421 314 421 287 422 c 0,109,110
 267 422 267 422 252 416 c 0,111,112
 236 411 236 411 224 404 c 0,113,114
 212 398 212 398 196 386 c 0,115,116
 181 374 181 374 173 362 c 2,117,-1
 160 344 l 1,80,-1
EndSplineSet
EndChar
StartChar: q
Encoding: 113 113 84
Width: 512
Flags: W
LayerCount: 2
Back
Fore
SplineSet
360 390 m 1,0,-1
 388 444 l 1,1,-1
 407 444 l 1,2,-1
 406 -114 l 2,3,4
 406 -138 406 -138 413 -150 c 0,5,6
 420 -163 420 -163 432 -170 c 0,7,8
 443 -177 443 -177 465 -177 c 2,9,-1
 475 -177 l 1,10,-1
 475 -204 l 1,11,-1
 289 -204 l 1,12,-1
 289 -177 l 1,13,-1
 298 -177 l 2,14,15
 320 -177 320 -177 331 -170 c 256,16,17
 342 -163 342 -163 349 -150 c 0,18,19
 356 -138 356 -138 356 -114 c 2,20,-1
 356 5 l 1,21,22
 341 -11 341 -11 328 -22 c 0,23,24
 316 -33 316 -33 296 -44 c 0,25,26
 276 -54 276 -54 262 -58 c 0,27,28
 247 -61 247 -61 227 -61 c 0,29,30
 195 -61 195 -61 180 -57 c 0,31,32
 166 -53 166 -53 152 -46 c 0,33,34
 138 -40 138 -40 119 -26 c 256,35,36
 100 -12 100 -12 82 14 c 0,37,38
 63 41 63 41 54 72 c 0,39,40
 46 102 46 102 43 131 c 256,41,42
 40 160 40 160 40 196 c 0,43,44
 40 229 40 229 46 262 c 0,45,46
 51 295 51 295 64 326 c 0,47,48
 76 356 76 356 96 379 c 256,49,50
 116 402 116 402 137 417 c 256,51,52
 158 432 158 432 178 440 c 0,53,54
 197 448 197 448 225 448 c 0,55,56
 243 448 243 448 260 445 c 256,57,58
 277 442 277 442 290 437 c 0,59,60
 304 432 304 432 321 422 c 256,61,62
 338 412 338 412 342 406 c 2,63,-1
 360 390 l 1,0,-1
356 344 m 1,64,65
 348 356 348 356 340 366 c 0,66,67
 332 375 332 375 318 385 c 256,68,69
 304 395 304 395 292 402 c 0,70,71
 279 410 279 410 265 414 c 0,72,73
 251 420 251 420 229 418 c 0,74,75
 204 416 204 416 186 406 c 0,76,77
 168 397 168 397 148 377 c 0,78,79
 129 357 129 357 116 330 c 0,80,81
 103 302 103 302 97 272 c 0,82,83
 92 243 92 243 92 198 c 0,84,85
 92 164 92 164 95 135 c 256,86,87
 98 106 98 106 104 83 c 256,88,89
 110 60 110 60 120 40 c 0,90,91
 131 20 131 20 144 6 c 256,92,93
 157 -8 157 -8 176 -18 c 0,94,95
 194 -28 194 -28 227 -28 c 0,96,97
 257 -28 257 -28 276 -20 c 0,98,99
 296 -12 296 -12 314 3 c 256,100,101
 332 18 332 18 340 30 c 2,102,-1
 356 50 l 1,103,-1
 356 344 l 1,64,65
EndSplineSet
EndChar
StartChar: r
Encoding: 114 114 85
Width: 512
Flags: W
LayerCount: 2
Back
Fore
SplineSet
212 324 m 1,0,1
 224 348 224 348 232 361 c 256,2,3
 240 374 240 374 250 389 c 256,4,5
 260 404 260 404 273 417 c 256,6,7
 286 430 286 430 299 437 c 256,8,9
 312 444 312 444 322 446 c 256,10,11
 332 448 332 448 345 448 c 0,12,13
 356 448 356 448 370 444 c 0,14,15
 384 439 384 439 396 426 c 256,16,17
 408 413 408 413 409 396 c 0,18,19
 410 378 410 378 400 368 c 256,20,21
 390 358 390 358 377 358 c 0,22,23
 365 358 365 358 358 364 c 0,24,25
 352 369 352 369 346 378 c 0,26,27
 341 386 341 386 338 388 c 0,28,29
 336 390 336 390 330 394 c 0,30,31
 324 400 324 400 314 400 c 256,32,33
 304 400 304 400 295 395 c 256,34,35
 286 390 286 390 277 381 c 256,36,37
 268 372 268 372 258 354 c 2,38,-1
 241 324 l 1,39,-1
 226 298 l 1,40,-1
 212 270 l 1,41,-1
 212 22 l 2,42,43
 212 11 212 11 216 4 c 0,44,45
 220 -4 220 -4 226 -8 c 0,46,47
 233 -13 233 -13 244 -16 c 0,48,49
 256 -18 256 -18 268 -18 c 2,50,-1
 275 -18 l 1,51,-1
 275 -44 l 1,52,-1
 102 -44 l 1,53,-1
 102 -18 l 1,54,-1
 116 -18 l 2,55,56
 140 -18 140 -18 151 -8 c 256,57,58
 162 2 162 2 162 22 c 2,59,-1
 162 348 l 2,60,61
 162 368 162 368 153 377 c 256,62,63
 144 386 144 386 129 386 c 2,64,-1
 101 386 l 1,65,-1
 101 413 l 1,66,67
 117 415 117 415 128 416 c 0,68,69
 138 418 138 418 157 424 c 256,70,71
 176 430 176 430 185 435 c 2,72,-1
 212 448 l 1,73,-1
 212 324 l 1,0,1
EndSplineSet
EndChar
StartChar: s
Encoding: 115 115 86
Width: 512
Flags: W
LayerCount: 2
Back
Fore
SplineSet
90 120 m 1,0,1
 99 103 99 103 106 92 c 0,2,3
 112 82 112 82 120 68 c 0,4,5
 129 54 129 54 138 42 c 0,6,7
 148 29 148 29 157 18 c 256,8,9
 166 7 166 7 174 0 c 0,10,11
 181 -8 181 -8 194 -15 c 0,12,13
 206 -22 206 -22 219 -26 c 256,14,15
 232 -30 232 -30 247 -33 c 256,16,17
 262 -36 262 -36 272 -36 c 256,18,19
 282 -36 282 -36 288 -36 c 0,20,21
 304 -36 304 -36 321 -29 c 256,22,23
 338 -22 338 -22 349 -12 c 256,24,25
 360 -2 360 -2 370 16 c 256,26,27
 380 34 380 34 383 47 c 256,28,29
 386 60 386 60 384 78 c 256,30,31
 382 96 382 96 378 106 c 0,32,33
 375 116 375 116 366 126 c 0,34,35
 356 136 356 136 344 144 c 256,36,37
 332 152 332 152 317 158 c 2,38,-1
 266 174 l 1,39,-1
 201 194 l 2,40,41
 183 199 183 199 166 206 c 0,42,43
 150 212 150 212 142 217 c 256,44,45
 134 222 134 222 125 230 c 256,46,47
 116 238 116 238 108 250 c 0,48,49
 100 261 100 261 94 280 c 0,50,51
 90 299 90 299 90 318 c 0,52,53
 90 328 90 328 92 341 c 256,54,55
 94 354 94 354 102 373 c 0,56,57
 111 392 111 392 130 410 c 0,58,59
 150 428 150 428 170 434 c 0,60,61
 190 441 190 441 202 442 c 0,62,63
 213 444 213 444 226 446 c 0,64,65
 238 448 238 448 248 448 c 0,66,67
 263 448 263 448 272 447 c 256,68,69
 281 446 281 446 291 444 c 0,70,71
 301 441 301 441 308 438 c 0,72,73
 316 436 316 436 326 431 c 0,74,75
 338 426 338 426 342 426 c 0,76,77
 348 425 348 425 357 429 c 0,78,79
 366 432 366 432 375 438 c 2,80,-1
 380 442 l 1,81,-1
 436 298 l 1,82,-1
 418 290 l 1,83,84
 412 300 412 300 400 318 c 0,85,86
 387 336 387 336 373 353 c 256,87,88
 359 370 359 370 343 386 c 0,89,90
 327 401 327 401 302 410 c 0,91,92
 278 420 278 420 254 420 c 0,93,94
 231 420 231 420 210 413 c 0,95,96
 190 406 190 406 175 392 c 0,97,98
 160 379 160 379 153 362 c 0,99,100
 146 344 146 344 146 326 c 256,101,102
 146 308 146 308 149 296 c 0,103,104
 151 286 151 286 156 276 c 0,105,106
 162 267 162 267 179 256 c 0,107,108
 196 246 196 246 216 240 c 2,109,-1
 304 214 l 2,110,111
 324 208 324 208 340 202 c 0,112,113
 355 196 355 196 372 187 c 0,114,115
 388 178 388 178 400 167 c 256,116,117
 412 156 412 156 421 144 c 256,118,119
 430 132 430 132 435 114 c 0,120,121
 440 97 440 97 440 81 c 0,122,123
 440 71 440 71 436 54 c 0,124,125
 433 36 433 36 428 24 c 256,126,127
 423 12 423 12 411 -3 c 256,128,129
 399 -18 399 -18 383 -29 c 256,130,131
 367 -40 367 -40 350 -47 c 0,132,133
 334 -54 334 -54 326 -56 c 0,134,135
 317 -57 317 -57 304 -58 c 0,136,137
 292 -60 292 -60 288 -60 c 0,138,139
 276 -61 276 -61 263 -60 c 0,140,141
 250 -58 250 -58 238 -55 c 256,142,143
 226 -52 226 -52 218 -50 c 0,144,145
 210 -47 210 -47 199 -42 c 0,146,147
 188 -38 188 -38 184 -38 c 0,148,149
 182 -38 182 -38 174 -39 c 256,150,151
 166 -40 166 -40 162 -42 c 256,152,153
 158 -44 158 -44 150 -49 c 256,154,155
 142 -54 142 -54 140 -55 c 2,156,-1
 134 -60 l 1,157,-1
 72 112 l 1,158,-1
 90 120 l 1,0,1
EndSplineSet
EndChar
StartChar: t
Encoding: 116 116 87
Width: 512
Flags: W
LayerCount: 2
Back
Fore
SplineSet
386 38 m 1,0,-1
 400 25 l 1,1,2
 397 19 397 19 394 12 c 0,3,4
 390 4 390 4 382 -6 c 0,5,6
 375 -16 375 -16 363 -29 c 256,7,8
 351 -42 351 -42 336 -51 c 0,9,10
 320 -60 320 -60 296 -61 c 0,11,12
 270 -63 270 -63 252 -54 c 0,13,14
 233 -44 233 -44 224 -28 c 0,15,16
 216 -11 216 -11 213 2 c 0,17,18
 210 14 210 14 208 27 c 256,19,20
 206 40 206 40 206 54 c 2,21,-1
 206 421 l 1,22,-1
 113 421 l 1,23,-1
 113 446 l 1,24,25
 133 449 133 449 144 452 c 256,26,27
 155 455 155 455 171 462 c 0,28,29
 187 470 187 470 198 481 c 0,30,31
 208 492 208 492 215 506 c 0,32,33
 222 521 222 521 225 538 c 0,34,35
 228 554 228 554 231 572 c 256,36,37
 234 590 234 590 234 618 c 2,38,-1
 234 638 l 1,39,-1
 258 638 l 1,40,-1
 258 446 l 1,41,-1
 376 446 l 1,42,-1
 376 421 l 1,43,-1
 258 421 l 1,44,-1
 258 67 l 2,45,46
 258 55 258 55 259 42 c 0,47,48
 260 28 260 28 264 13 c 256,49,50
 268 -2 268 -2 278 -9 c 0,51,52
 289 -16 289 -16 305 -16 c 0,53,54
 313 -16 313 -16 320 -14 c 0,55,56
 327 -13 327 -13 336 -8 c 0,57,58
 344 -4 344 -4 356 5 c 0,59,60
 367 14 367 14 374 23 c 2,61,-1
 386 38 l 1,0,-1
EndSplineSet
EndChar
StartChar: u
Encoding: 117 117 88
Width: 512
Flags: W
LayerCount: 2
Back
Fore
SplineSet
316 390 m 1,0,-1
 316 414 l 1,1,2
 330 415 330 415 344 416 c 0,3,4
 358 418 358 418 373 422 c 0,5,6
 388 427 388 427 398 433 c 2,7,-1
 423 447 l 1,8,-1
 423 30 l 2,9,10
 423 11 423 11 428 0 c 0,11,12
 432 -10 432 -10 440 -14 c 0,13,14
 448 -19 448 -19 464 -19 c 2,15,-1
 466 -19 l 1,16,-1
 466 -44 l 1,17,-1
 372 -44 l 1,18,-1
 372 10 l 1,19,20
 340 -22 340 -22 324 -32 c 256,21,22
 308 -42 308 -42 294 -48 c 256,23,24
 280 -54 280 -54 265 -57 c 256,25,26
 250 -60 250 -60 234 -61 c 0,27,28
 220 -62 220 -62 207 -61 c 256,29,30
 194 -60 194 -60 173 -54 c 0,31,32
 152 -47 152 -47 136 -30 c 0,33,34
 120 -14 120 -14 113 -2 c 256,35,36
 106 10 106 10 102 23 c 256,37,38
 98 36 98 36 96 44 c 0,39,40
 95 52 95 52 94 68 c 256,41,42
 93 84 93 84 93 90 c 2,43,-1
 93 356 l 2,44,45
 93 374 93 374 86 382 c 0,46,47
 78 390 78 390 60 390 c 2,48,-1
 37 390 l 1,49,-1
 37 414 l 1,50,51
 53 416 53 416 68 418 c 0,52,53
 82 419 82 419 94 422 c 0,54,55
 106 426 106 426 118 433 c 2,56,-1
 144 447 l 1,57,-1
 144 92 l 2,58,59
 144 80 144 80 147 58 c 256,60,61
 150 36 150 36 162 16 c 0,62,63
 174 -5 174 -5 186 -12 c 0,64,65
 198 -20 198 -20 208 -23 c 0,66,67
 219 -26 219 -26 232 -26 c 0,68,69
 247 -26 247 -26 264 -22 c 0,70,71
 282 -18 282 -18 296 -12 c 0,72,73
 310 -5 310 -5 330 10 c 0,74,75
 350 24 350 24 358 34 c 2,76,-1
 372 52 l 1,77,-1
 372 356 l 2,78,79
 372 374 372 374 365 382 c 256,80,81
 358 390 358 390 340 390 c 2,82,-1
 316 390 l 1,0,-1
EndSplineSet
EndChar
StartChar: v
Encoding: 118 118 89
Width: 512
Flags: W
LayerCount: 2
Back
Fore
SplineSet
484 406 m 1,0,-1
 468 406 l 2,1,2
 454 406 454 406 444 401 c 256,3,4
 434 396 434 396 426 385 c 0,5,6
 418 375 418 375 413 366 c 0,7,8
 409 357 409 357 390 304 c 2,9,-1
 266 -44 l 1,10,-1
 236 -44 l 1,11,-1
 102 344 l 2,12,13
 92 372 92 372 87 380 c 0,14,15
 83 387 83 387 75 395 c 0,16,17
 67 402 67 402 58 404 c 0,18,19
 50 406 50 406 38 406 c 2,20,-1
 24 406 l 1,21,-1
 24 432 l 1,22,-1
 208 432 l 1,23,-1
 208 406 l 1,24,-1
 172 406 l 2,25,26
 156 406 156 406 150 401 c 0,27,28
 144 397 144 397 144 389 c 256,29,30
 144 381 144 381 154 353 c 2,31,-1
 265 32 l 1,32,-1
 376 346 l 2,33,34
 384 367 384 367 386 378 c 0,35,36
 388 390 388 390 380 398 c 0,37,38
 376 402 376 402 368 404 c 256,39,40
 360 406 360 406 344 406 c 2,41,-1
 316 406 l 1,42,-1
 316 432 l 1,43,-1
 484 432 l 1,44,-1
 484 406 l 1,0,-1
484 406 m 1,45,-1
 468 406 l 2,46,47
 454 406 454 406 444 401 c 256,48,49
 434 396 434 396 426 385 c 0,50,51
 417 374 417 374 413 366 c 0,52,53
 409 357 409 357 390 304 c 2,54,-1
 266 -44 l 1,55,-1
 236 -44 l 1,56,-1
 102 344 l 2,57,58
 92 373 92 373 88 380 c 0,59,60
 84 388 84 388 75 395 c 256,61,62
 66 402 66 402 58 404 c 256,63,64
 50 406 50 406 38 406 c 2,65,-1
 24 406 l 1,66,-1
 24 432 l 1,67,-1
 208 432 l 1,68,-1
 208 406 l 1,69,-1
 172 406 l 2,70,71
 156 406 156 406 150 401 c 256,72,73
 144 396 144 396 144 388 c 0,74,75
 144 381 144 381 154 353 c 2,76,-1
 265 32 l 1,77,-1
 376 346 l 2,78,79
 384 367 384 367 386 378 c 0,80,81
 388 390 388 390 380 398 c 0,82,83
 376 402 376 402 368 404 c 256,84,85
 360 406 360 406 344 406 c 2,86,-1
 316 406 l 1,87,-1
 316 432 l 1,88,-1
 484 432 l 1,89,-1
 484 406 l 1,45,-1
EndSplineSet
EndChar
StartChar: w
Encoding: 119 119 90
Width: 512
Flags: W
LayerCount: 2
Back
Fore
SplineSet
490 407 m 1,0,-1
 476 407 l 2,1,2
 468 407 468 407 460 402 c 0,3,4
 453 396 453 396 450 388 c 0,5,6
 446 380 446 380 440 352 c 2,7,-1
 346 -44 l 1,8,-1
 326 -44 l 1,9,-1
 254 274 l 1,10,-1
 170 -44 l 1,11,-1
 150 -44 l 1,12,-1
 66 354 l 2,13,14
 60 380 60 380 57 387 c 256,15,16
 54 394 54 394 47 400 c 0,17,18
 40 407 40 407 33 407 c 2,19,-1
 22 407 l 1,20,-1
 22 433 l 1,21,-1
 148 433 l 1,22,-1
 148 407 l 1,23,-1
 137 407 l 2,24,25
 121 407 121 407 116 402 c 0,26,27
 110 396 110 396 111 385 c 2,28,-1
 116 360 l 1,29,-1
 174 68 l 1,30,-1
 241 332 l 1,31,-1
 231 374 l 2,32,33
 227 392 227 392 220 400 c 0,34,35
 212 407 212 407 198 407 c 2,36,-1
 190 407 l 1,37,-1
 190 433 l 1,38,-1
 324 433 l 1,39,-1
 324 407 l 1,40,-1
 308 407 l 2,41,42
 294 407 294 407 290 404 c 0,43,44
 285 402 285 402 282 396 c 0,45,46
 280 391 280 391 284 371 c 2,47,-1
 346 74 l 1,48,-1
 414 356 l 2,49,50
 420 378 420 378 420 387 c 256,51,52
 420 396 420 396 414 402 c 0,53,54
 408 407 408 407 395 407 c 2,55,-1
 372 407 l 1,56,-1
 372 433 l 1,57,-1
 490 433 l 1,58,-1
 490 407 l 1,0,-1
EndSplineSet
EndChar
StartChar: x
Encoding: 120 120 91
Width: 512
Flags: W
LayerCount: 2
Back
Fore
SplineSet
256 244 m 1,0,-1
 326 352 l 2,1,2
 338 370 338 370 338 382 c 256,3,4
 338 394 338 394 331 400 c 256,5,6
 324 406 324 406 308 406 c 2,7,-1
 297 406 l 1,8,-1
 297 432 l 1,9,-1
 450 432 l 1,10,-1
 450 406 l 1,11,-1
 442 406 l 2,12,13
 433 406 433 406 420 401 c 0,14,15
 406 396 406 396 395 388 c 0,16,17
 384 381 384 381 374 370 c 0,18,19
 364 360 364 360 354 344 c 2,20,-1
 273 220 l 1,21,-1
 393 44 l 1,22,-1
 412 18 l 2,23,24
 420 6 420 6 426 0 c 0,25,26
 432 -7 432 -7 446 -13 c 256,27,28
 460 -19 460 -19 472 -19 c 2,29,-1
 486 -19 l 1,30,-1
 486 -44 l 1,31,-1
 302 -44 l 1,32,-1
 302 -19 l 1,33,-1
 319 -19 l 2,34,35
 337 -19 337 -19 344 -13 c 0,36,37
 350 -7 350 -7 351 0 c 0,38,39
 352 8 352 8 339 28 c 0,40,41
 326 49 326 49 323 54 c 2,42,-1
 242 172 l 1,43,-1
 176 70 l 2,44,45
 166 55 166 55 153 32 c 0,46,47
 140 10 140 10 143 0 c 0,48,49
 145 -11 145 -11 154 -15 c 0,50,51
 162 -19 162 -19 183 -19 c 2,52,-1
 210 -19 l 1,53,-1
 210 -44 l 1,54,-1
 27 -44 l 1,55,-1
 27 -19 l 1,56,-1
 42 -19 l 2,57,58
 60 -19 60 -19 75 -12 c 0,59,60
 90 -4 90 -4 101 8 c 256,61,62
 112 20 112 20 126 41 c 2,63,-1
 226 196 l 1,64,-1
 130 338 l 1,65,-1
 106 375 l 2,66,67
 96 388 96 388 81 397 c 256,68,69
 66 406 66 406 50 406 c 2,70,-1
 36 406 l 1,71,-1
 36 432 l 1,72,-1
 212 432 l 1,73,-1
 212 406 l 1,74,-1
 194 406 l 2,75,76
 173 406 173 406 168 394 c 0,77,78
 164 382 164 382 169 373 c 256,79,80
 174 364 174 364 186 346 c 2,81,-1
 256 244 l 1,0,-1
EndSplineSet
EndChar
StartChar: y
Encoding: 121 121 92
Width: 512
Flags: W
LayerCount: 2
Back
Fore
SplineSet
242 -22 m 1,0,-1
 111 354 l 2,1,2
 107 366 107 366 96 379 c 0,3,4
 86 392 86 392 74 400 c 0,5,6
 60 408 60 408 44 406 c 2,7,-1
 34 406 l 1,8,-1
 34 431 l 1,9,-1
 220 431 l 1,10,-1
 220 406 l 1,11,-1
 184 406 l 2,12,13
 169 406 169 406 160 394 c 0,14,15
 152 382 152 382 160 359 c 2,16,-1
 268 54 l 1,17,-1
 366 344 l 2,18,19
 375 371 375 371 374 382 c 0,20,21
 372 394 372 394 364 400 c 256,22,23
 356 406 356 406 334 406 c 2,24,-1
 309 406 l 1,25,-1
 309 431 l 1,26,-1
 476 431 l 1,27,-1
 476 406 l 1,28,-1
 455 406 l 2,29,30
 454 406 454 406 442 404 c 2,31,-1
 428 400 l 2,32,33
 418 396 418 396 410 382 c 0,34,35
 403 369 403 369 400 360 c 2,36,-1
 272 -21 l 2,37,38
 264 -43 264 -43 250 -76 c 0,39,40
 236 -108 236 -108 230 -119 c 256,41,42
 224 -130 224 -130 215 -144 c 256,43,44
 206 -158 206 -158 196 -168 c 256,45,46
 186 -178 186 -178 175 -184 c 0,47,48
 164 -191 164 -191 153 -195 c 256,49,50
 142 -199 142 -199 124 -199 c 0,51,52
 102 -200 102 -200 90 -194 c 0,53,54
 79 -187 79 -187 72 -174 c 0,55,56
 64 -162 64 -162 62 -151 c 0,57,58
 61 -140 61 -140 70 -127 c 0,59,60
 80 -114 80 -114 97 -114 c 0,61,62
 108 -114 108 -114 116 -121 c 0,63,64
 123 -128 123 -128 128 -138 c 0,65,66
 134 -149 134 -149 138 -152 c 0,67,68
 144 -155 144 -155 152 -155 c 0,69,70
 162 -155 162 -155 168 -152 c 0,71,72
 174 -150 174 -150 181 -144 c 256,73,74
 188 -138 188 -138 194 -130 c 256,75,76
 200 -122 200 -122 207 -108 c 0,77,78
 214 -93 214 -93 222 -76 c 0,79,80
 230 -58 230 -58 238 -36 c 2,81,-1
 242 -22 l 1,0,-1
EndSplineSet
EndChar
StartChar: z
Encoding: 122 122 93
Width: 512
Flags: W
LayerCount: 2
Back
Fore
SplineSet
449 99 m 1,0,-1
 428 -45 l 1,1,-1
 60 -45 l 1,2,-1
 60 -21 l 1,3,-1
 387 406 l 1,4,-1
 262 406 l 2,5,6
 250 406 250 406 230 404 c 256,7,8
 210 402 210 402 194 398 c 256,9,10
 178 394 178 394 162 384 c 0,11,12
 147 374 147 374 136 361 c 0,13,14
 124 348 124 348 112 325 c 2,15,-1
 95 294 l 1,16,-1
 74 294 l 1,17,-1
 100 432 l 1,18,-1
 449 432 l 1,19,-1
 449 402 l 1,20,-1
 121 -20 l 1,21,-1
 262 -20 l 2,22,23
 272 -20 272 -20 290 -18 c 256,24,25
 308 -16 308 -16 319 -14 c 0,26,27
 330 -11 330 -11 344 -4 c 0,28,29
 358 2 358 2 369 9 c 256,30,31
 380 16 380 16 392 30 c 0,32,33
 403 43 403 43 412 58 c 0,34,35
 420 72 420 72 424 82 c 2,36,-1
 431 99 l 1,37,-1
 449 99 l 1,0,-1
EndSplineSet
EndChar
StartChar: braceleft
Encoding: 123 123 94
Width: 512
Flags: W
LayerCount: 2
Back
Fore
SplineSet
482 782 m 1,0,-1
 482 765 l 1,1,2
 468 761 468 761 461 758 c 0,3,4
 454 756 454 756 440 748 c 0,5,6
 427 739 427 739 419 730 c 0,7,8
 411 720 411 720 406 710 c 0,9,10
 402 699 402 699 400 690 c 0,11,12
 398 680 398 680 396 660 c 256,13,14
 394 640 394 640 394 633 c 2,15,-1
 394 406 l 2,16,17
 394 389 394 389 391 376 c 256,18,19
 388 363 388 363 380 348 c 0,20,21
 372 334 372 334 368 332 c 2,22,-1
 334 309 l 1,23,24
 343 305 343 305 350 300 c 0,25,26
 357 296 357 296 364 289 c 0,27,28
 372 282 372 282 379 270 c 0,29,30
 386 259 386 259 390 246 c 0,31,32
 394 232 394 232 394 211 c 2,33,-1
 394 -16 l 2,34,35
 394 -31 394 -31 396 -48 c 0,36,37
 398 -64 398 -64 402 -82 c 0,38,39
 405 -100 405 -100 412 -108 c 0,40,41
 418 -117 418 -117 430 -124 c 0,42,43
 441 -132 441 -132 452 -139 c 0,44,45
 464 -146 464 -146 474 -148 c 2,46,-1
 482 -150 l 1,47,-1
 482 -168 l 1,48,49
 466 -166 466 -166 452 -163 c 0,50,51
 437 -160 437 -160 424 -154 c 0,52,53
 412 -148 412 -148 400 -140 c 0,54,55
 387 -131 387 -131 376 -120 c 0,56,57
 366 -110 366 -110 358 -96 c 256,58,59
 350 -82 350 -82 347 -73 c 256,60,61
 344 -64 344 -64 343 -56 c 0,62,63
 342 -47 342 -47 340 -32 c 0,64,65
 339 -16 339 -16 339 0 c 2,66,-1
 339 215 l 2,67,68
 339 229 339 229 336 242 c 0,69,70
 333 254 333 254 328 264 c 0,71,72
 322 274 322 274 314 280 c 256,73,74
 306 286 306 286 296 291 c 0,75,76
 285 296 285 296 278 296 c 2,77,-1
 250 299 l 1,78,-1
 250 314 l 1,79,80
 276 319 276 319 290 324 c 256,81,82
 304 329 304 329 315 338 c 0,83,84
 326 346 326 346 332 360 c 0,85,86
 337 373 337 373 338 382 c 0,87,88
 339 392 339 392 339 402 c 2,89,-1
 339 616 l 2,90,91
 339 644 339 644 342 662 c 0,92,93
 344 681 344 681 349 696 c 0,94,95
 354 710 354 710 360 718 c 0,96,97
 365 727 365 727 376 738 c 0,98,99
 387 750 387 750 400 758 c 0,100,101
 414 765 414 765 428 770 c 0,102,103
 442 776 442 776 452 778 c 256,104,105
 462 780 462 780 476 782 c 2,106,-1
 482 782 l 1,0,-1
EndSplineSet
EndChar
StartChar: bar
Encoding: 124 124 95
Width: 512
Flags: W
LayerCount: 2
Back
Fore
SplineSet
278 -204 m 1,0,-1
 236 -204 l 1,1,-1
 236 818 l 1,2,-1
 278 818 l 1,3,-1
 278 -204 l 1,0,-1
EndSplineSet
EndChar
StartChar: braceright
Encoding: 125 125 96
Width: 512
Flags: W
LayerCount: 2
Back
Fore
SplineSet
30 784 m 1,0,1
 34 784 34 784 41 783 c 256,2,3
 48 782 48 782 58 780 c 0,4,5
 69 778 69 778 82 773 c 0,6,7
 96 768 96 768 109 760 c 0,8,9
 122 753 122 753 134 741 c 0,10,11
 145 729 145 729 151 720 c 0,12,13
 157 712 157 712 162 698 c 0,14,15
 166 684 166 684 169 663 c 256,16,17
 172 642 172 642 172 619 c 2,18,-1
 172 402 l 2,19,20
 172 392 172 392 173 382 c 0,21,22
 174 373 174 373 179 360 c 0,23,24
 184 348 184 348 197 336 c 256,25,26
 210 324 210 324 215 324 c 2,27,-1
 262 314 l 1,28,-1
 262 299 l 1,29,30
 242 298 242 298 232 296 c 256,31,32
 222 294 222 294 212 290 c 0,33,34
 203 286 203 286 196 280 c 0,35,36
 190 274 190 274 184 264 c 0,37,38
 177 254 177 254 174 242 c 0,39,40
 172 229 172 229 172 215 c 2,41,-1
 172 2 l 2,42,43
 172 -15 172 -15 170 -30 c 0,44,45
 169 -45 169 -45 168 -54 c 0,46,47
 166 -62 166 -62 164 -71 c 0,48,49
 161 -80 161 -80 152 -94 c 0,50,51
 144 -109 144 -109 134 -118 c 0,52,53
 124 -128 124 -128 111 -137 c 256,54,55
 98 -146 98 -146 86 -152 c 256,56,57
 74 -158 74 -158 65 -159 c 2,58,-1
 42 -162 l 1,59,-1
 30 -166 l 1,60,-1
 30 -148 l 1,61,62
 35 -146 35 -146 42 -144 c 0,63,64
 50 -142 50 -142 62 -136 c 256,65,66
 74 -130 74 -130 85 -122 c 0,67,68
 96 -113 96 -113 102 -102 c 0,69,70
 108 -92 108 -92 111 -76 c 256,71,72
 114 -60 114 -60 116 -46 c 256,73,74
 118 -32 118 -32 118 -14 c 2,75,-1
 118 211 l 2,76,77
 118 231 118 231 122 246 c 0,78,79
 126 260 126 260 134 271 c 0,80,81
 141 282 141 282 150 290 c 0,82,83
 158 298 158 298 166 302 c 2,84,-1
 180 309 l 1,85,86
 156 322 156 322 146 331 c 0,87,88
 137 340 137 340 130 351 c 0,89,90
 124 362 124 362 121 376 c 256,91,92
 118 390 118 390 118 406 c 2,93,-1
 118 636 l 2,94,95
 118 644 118 644 116 662 c 256,96,97
 114 680 114 680 112 690 c 256,98,99
 110 700 110 700 106 711 c 0,100,101
 101 722 101 722 94 732 c 0,102,103
 86 742 86 742 71 751 c 256,104,105
 56 760 56 760 50 762 c 2,106,-1
 30 768 l 1,107,-1
 30 784 l 1,0,1
EndSplineSet
EndChar
StartChar: asciitilde
Encoding: 126 126 97
Width: 512
Flags: W
LayerCount: 2
Back
Fore
SplineSet
505 343 m 1,0,1
 495 321 495 321 488 306 c 0,2,3
 480 292 480 292 470 279 c 256,4,5
 460 266 460 266 445 250 c 256,6,7
 430 234 430 234 411 227 c 256,8,9
 392 220 392 220 372 221 c 0,10,11
 362 221 362 221 344 226 c 0,12,13
 325 231 325 231 270 262 c 0,14,15
 216 294 216 294 184 306 c 0,16,17
 153 318 153 318 131 317 c 0,18,19
 107 316 107 316 84 304 c 0,20,21
 62 292 62 292 53 280 c 2,22,-1
 28 250 l 1,23,-1
 8 264 l 1,24,25
 15 283 15 283 20 294 c 0,26,27
 26 304 26 304 42 326 c 256,28,29
 58 348 58 348 76 362 c 0,30,31
 94 377 94 377 112 382 c 0,32,33
 130 388 130 388 144 388 c 0,34,35
 164 388 164 388 185 380 c 256,36,37
 206 372 206 372 244 353 c 2,38,-1
 303 323 l 2,39,40
 332 307 332 307 350 300 c 0,41,42
 367 292 367 292 383 292 c 0,43,44
 399 290 399 290 414 296 c 0,45,46
 430 302 430 302 444 312 c 256,47,48
 458 322 458 322 468 337 c 2,49,-1
 484 358 l 1,50,-1
 505 343 l 1,0,1
EndSplineSet
EndChar
StartChar: uni5168
Encoding: 20840 20840 98
Width: 1024
Flags: W
LayerCount: 2
Back
Fore
SplineSet
392 750 m 1,0,-1
 462 750 l 1,1,-1
 498 786 l 1,2,-1
 544 756 l 2,3,4
 560 746 560 746 560 738 c 0,5,6
 559 730 559 730 558 730 c 2,7,-1
 536 716 l 1,8,9
 544 706 544 706 554 692 c 0,10,11
 564 679 564 679 578 665 c 256,12,13
 592 651 592 651 624 622 c 0,14,15
 655 592 655 592 678 574 c 0,16,17
 700 556 700 556 733 535 c 256,18,19
 766 514 766 514 805 492 c 0,20,21
 844 471 844 471 873 458 c 0,22,23
 902 446 902 446 930 437 c 0,24,25
 956 428 956 428 978 424 c 2,26,-1
 992 420 l 1,27,-1
 992 402 l 1,28,29
 984 402 984 402 970 400 c 0,30,31
 957 399 957 399 944 390 c 0,32,33
 930 382 930 382 926 376 c 2,34,-1
 922 368 l 1,35,36
 912 372 912 372 893 380 c 256,37,38
 874 388 874 388 852 399 c 256,39,40
 830 410 830 410 802 428 c 256,41,42
 774 446 774 446 743 468 c 0,43,44
 712 489 712 489 694 504 c 0,45,46
 676 520 676 520 646 550 c 0,47,48
 615 579 615 579 600 594 c 0,49,50
 586 610 586 610 563 638 c 256,51,52
 540 666 540 666 526 684 c 2,53,-1
 516 700 l 1,54,55
 504 684 504 684 494 669 c 0,56,57
 483 654 483 654 466 634 c 0,58,59
 450 614 450 614 426 587 c 256,60,61
 402 560 402 560 373 535 c 256,62,63
 344 510 344 510 306 484 c 0,64,65
 269 458 269 458 232 437 c 0,66,67
 196 416 196 416 151 394 c 256,68,69
 106 372 106 372 84 366 c 2,70,-1
 42 352 l 1,71,-1
 32 372 l 1,72,73
 56 382 56 382 78 392 c 256,74,75
 100 402 100 402 134 420 c 256,76,77
 168 438 168 438 210 466 c 256,78,79
 252 494 252 494 285 520 c 256,80,81
 318 546 318 546 345 571 c 256,82,83
 372 596 372 596 402 633 c 256,84,85
 432 670 432 670 444 688 c 2,86,-1
 464 720 l 1,87,-1
 392 720 l 1,88,-1
 392 750 l 1,0,-1
238 404 m 1,89,90
 244 402 244 402 252 401 c 0,91,92
 259 400 259 400 286 397 c 0,93,94
 312 394 312 394 355 394 c 2,95,-1
 662 394 l 1,96,-1
 710 451 l 1,97,-1
 782 396 l 2,98,99
 788 390 788 390 789 384 c 256,100,101
 790 378 790 378 788 373 c 0,102,103
 786 369 786 369 783 368 c 256,104,105
 780 367 780 367 775 367 c 2,106,-1
 534 367 l 1,107,-1
 534 168 l 1,108,-1
 718 168 l 1,109,-1
 766 226 l 1,110,-1
 838 170 l 2,111,112
 842 166 842 166 844 163 c 256,113,114
 846 160 846 160 846 156 c 256,115,116
 846 152 846 152 844 148 c 256,117,118
 842 144 842 144 839 142 c 0,119,120
 836 141 836 141 831 141 c 2,121,-1
 534 141 l 1,122,-1
 534 -88 l 1,123,-1
 819 -88 l 1,124,-1
 871 -30 l 1,125,-1
 942 -86 l 2,126,127
 948 -90 948 -90 949 -92 c 0,128,129
 950 -95 950 -95 950 -100 c 0,130,131
 950 -104 950 -104 948 -108 c 0,132,133
 946 -110 946 -110 943 -112 c 256,134,135
 940 -114 940 -114 935 -114 c 2,136,-1
 219 -114 l 2,137,138
 165 -116 165 -116 148 -117 c 0,139,140
 132 -118 132 -118 130 -118 c 2,141,-1
 122 -118 l 1,142,-1
 102 -76 l 1,143,144
 108 -78 108 -78 115 -80 c 256,145,146
 122 -82 122 -82 151 -85 c 256,147,148
 180 -88 180 -88 219 -88 c 2,149,-1
 487 -88 l 1,150,-1
 487 141 l 1,151,-1
 307 141 l 1,152,-1
 226 138 l 1,153,-1
 218 138 l 1,154,-1
 211 137 l 1,155,-1
 190 179 l 1,156,157
 198 177 198 177 205 176 c 0,158,159
 212 174 212 174 238 171 c 256,160,161
 264 168 264 168 307 168 c 2,162,-1
 487 168 l 1,163,-1
 487 367 l 1,164,-1
 355 367 l 2,165,166
 329 367 329 367 298 366 c 0,167,168
 268 364 268 364 266 364 c 2,169,-1
 259 363 l 1,170,-1
 238 404 l 1,89,90
EndSplineSet
EndChar
StartChar: uni5B57
Encoding: 23383 23383 99
Width: 1024
Flags: W
LayerCount: 2
Back
Fore
SplineSet
532 340 m 1,0,1
 559 358 559 358 596 384 c 0,2,3
 632 410 632 410 646 422 c 2,4,-1
 698 463 l 1,5,-1
 310 462 l 2,6,7
 298 462 298 462 282 461 c 0,8,9
 265 460 265 460 260 460 c 0,10,11
 256 460 256 460 248 458 c 2,12,-1
 236 457 l 1,13,-1
 216 500 l 1,14,15
 229 498 229 498 240 496 c 0,16,17
 250 494 250 494 259 494 c 0,18,19
 268 493 268 493 284 492 c 0,20,21
 300 490 300 490 310 491 c 2,22,-1
 706 492 l 1,23,-1
 742 528 l 1,24,-1
 782 494 l 1,25,-1
 796 480 l 2,26,27
 804 468 804 468 802 462 c 0,28,29
 798 454 798 454 784 452 c 2,30,-1
 752 448 l 1,31,32
 712 422 712 422 675 398 c 0,33,34
 638 375 638 375 610 359 c 2,35,-1
 566 333 l 1,36,37
 578 330 578 330 584 324 c 0,38,39
 591 319 591 319 590 313 c 0,40,41
 589 309 589 309 582 304 c 0,42,43
 576 299 576 299 566 296 c 2,44,-1
 536 286 l 1,45,-1
 536 216 l 1,46,-1
 868 216 l 1,47,-1
 917 266 l 1,48,-1
 978 212 l 2,49,50
 983 207 983 207 985 204 c 0,51,52
 988 202 988 202 986 196 c 256,53,54
 984 190 984 190 980 188 c 256,55,56
 976 186 976 186 972 186 c 2,57,-1
 536 186 l 1,58,-1
 536 -82 l 2,59,60
 536 -101 536 -101 532 -114 c 0,61,62
 527 -126 527 -126 518 -136 c 0,63,64
 510 -146 510 -146 496 -153 c 256,65,66
 482 -160 482 -160 462 -163 c 2,67,-1
 445 -166 l 1,68,69
 443 -157 443 -157 441 -148 c 256,70,71
 439 -139 439 -139 432 -130 c 0,72,73
 424 -121 424 -121 409 -114 c 0,74,75
 394 -108 394 -108 364 -102 c 2,76,-1
 330 -96 l 1,77,-1
 334 -74 l 1,78,79
 356 -78 356 -78 368 -80 c 2,80,-1
 408 -85 l 2,81,82
 432 -89 432 -89 442 -90 c 0,83,84
 450 -90 450 -90 462 -89 c 256,85,86
 474 -88 474 -88 481 -82 c 256,87,88
 488 -76 488 -76 488 -60 c 2,89,-1
 488 186 l 1,90,-1
 137 186 l 2,91,92
 121 186 121 186 104 185 c 0,93,94
 88 184 88 184 82 184 c 0,95,96
 76 183 76 183 75 183 c 2,97,-1
 62 181 l 1,98,-1
 43 224 l 1,99,100
 57 222 57 222 70 220 c 0,101,102
 84 218 84 218 90 218 c 0,103,104
 95 218 95 218 112 217 c 0,105,106
 128 216 128 216 137 216 c 2,107,-1
 488 216 l 1,108,-1
 488 270 l 2,109,110
 488 320 488 320 486 332 c 2,111,-1
 484 344 l 1,112,-1
 484 351 l 1,113,-1
 532 340 l 1,0,1
443 796 m 1,114,115
 457 787 457 787 468 780 c 0,116,117
 480 772 480 772 497 759 c 256,118,119
 514 746 514 746 524 734 c 0,120,121
 535 723 535 723 542 710 c 0,122,123
 548 697 548 697 548 686 c 0,124,125
 548 674 548 674 546 666 c 0,126,127
 543 658 543 658 540 653 c 2,128,-1
 536 649 l 1,129,-1
 888 649 l 1,130,-1
 918 684 l 1,131,-1
 964 646 l 2,132,133
 972 639 972 639 976 634 c 0,134,135
 980 628 980 628 980 624 c 0,136,137
 979 618 979 618 974 615 c 256,138,139
 969 612 969 612 961 610 c 2,140,-1
 936 606 l 1,141,142
 926 592 926 592 918 582 c 0,143,144
 910 573 910 573 898 560 c 0,145,146
 885 548 885 548 867 531 c 0,147,148
 848 514 848 514 844 510 c 2,149,-1
 823 492 l 1,150,-1
 812 502 l 1,151,152
 819 512 819 512 830 525 c 0,153,154
 840 538 840 538 845 546 c 0,155,156
 850 553 850 553 862 572 c 0,157,158
 872 592 872 592 876 599 c 2,159,-1
 888 622 l 1,160,-1
 146 622 l 1,161,162
 144 606 144 606 142 594 c 0,163,164
 141 582 141 582 136 566 c 256,165,166
 131 550 131 550 124 536 c 0,167,168
 118 523 118 523 108 512 c 0,169,170
 98 502 98 502 88 496 c 256,171,172
 78 490 78 490 65 490 c 0,173,174
 52 489 52 489 45 498 c 0,175,176
 38 508 38 508 40 520 c 256,177,178
 42 532 42 532 48 538 c 0,179,180
 53 543 53 543 64 550 c 0,181,182
 74 558 74 558 82 566 c 0,183,184
 89 573 89 573 97 584 c 256,185,186
 105 595 105 595 111 608 c 256,187,188
 117 621 117 621 120 636 c 0,189,190
 124 652 124 652 124 662 c 2,191,-1
 126 694 l 1,192,-1
 144 694 l 1,193,194
 146 674 146 674 146 670 c 2,195,-1
 146 649 l 1,196,-1
 506 650 l 1,197,198
 501 657 501 657 500 660 c 0,199,200
 498 663 498 663 494 680 c 256,201,202
 490 697 490 697 483 712 c 0,203,204
 476 726 476 726 466 740 c 0,205,206
 456 756 456 756 448 764 c 2,207,-1
 431 782 l 1,208,-1
 443 796 l 1,114,115
EndSplineSet
EndChar
StartChar: uni5B8B
Encoding: 23435 23435 100
Width: 1024
Flags: W
LayerCount: 2
Back
Fore
SplineSet
536 346 m 1,0,-1
 536 -20 l 2,1,2
 536 -36 536 -36 537 -52 c 2,3,-1
 538 -90 l 2,4,5
 538 -106 538 -106 540 -122 c 0,6,7
 540 -138 540 -138 540 -146 c 0,8,9
 538 -158 538 -158 533 -164 c 0,10,11
 528 -171 528 -171 513 -172 c 0,12,13
 504 -173 504 -173 499 -171 c 256,14,15
 494 -169 494 -169 491 -166 c 0,16,17
 488 -162 488 -162 488 -147 c 2,18,-1
 488 338 l 1,19,20
 474 314 474 314 456 285 c 256,21,22
 438 256 438 256 399 208 c 256,23,24
 360 160 360 160 304 110 c 0,25,26
 248 59 248 59 197 26 c 0,27,28
 146 -8 146 -8 85 -40 c 2,29,-1
 45 -61 l 1,30,-1
 35 -41 l 1,31,32
 61 -26 61 -26 90 -8 c 0,33,34
 120 10 120 10 177 53 c 256,35,36
 234 96 234 96 281 144 c 256,37,38
 328 192 328 192 367 242 c 256,39,40
 406 292 406 292 426 328 c 2,41,-1
 439 354 l 1,42,-1
 178 354 l 2,43,44
 166 354 166 354 149 352 c 0,45,46
 132 351 132 351 129 350 c 0,47,48
 126 350 126 350 116 350 c 2,49,-1
 103 348 l 1,50,-1
 84 391 l 1,51,52
 98 389 98 389 106 388 c 0,53,54
 115 386 115 386 127 386 c 2,55,-1
 152 384 l 2,56,57
 170 382 170 382 178 382 c 2,58,-1
 488 382 l 1,59,-1
 488 502 l 2,60,61
 488 532 488 532 486 552 c 0,62,63
 485 572 485 572 485 576 c 2,64,-1
 484 582 l 1,65,-1
 544 570 l 2,66,67
 560 566 560 566 569 561 c 256,68,69
 578 556 578 556 579 549 c 256,70,71
 580 542 580 542 573 536 c 256,72,73
 566 530 566 530 554 526 c 2,74,-1
 535 521 l 1,75,-1
 535 488 l 1,76,-1
 536 488 l 1,77,-1
 536 382 l 1,78,-1
 810 382 l 1,79,-1
 862 442 l 1,80,-1
 938 382 l 2,81,82
 945 376 945 376 946 372 c 0,83,84
 948 369 948 369 946 364 c 0,85,86
 944 360 944 360 942 357 c 0,87,88
 938 354 938 354 928 354 c 2,89,-1
 560 354 l 1,90,91
 581 324 581 324 605 292 c 256,92,93
 629 260 629 260 662 224 c 0,94,95
 694 188 694 188 744 149 c 0,96,97
 793 110 793 110 852 75 c 256,98,99
 911 40 911 40 959 27 c 2,100,-1
 991 18 l 1,101,-1
 991 1 l 1,102,103
 976 1 976 1 966 0 c 0,104,105
 957 -2 957 -2 946 -9 c 0,106,107
 936 -16 936 -16 930 -26 c 2,108,-1
 926 -34 l 1,109,110
 898 -20 898 -20 873 -6 c 0,111,112
 848 7 848 7 800 42 c 0,113,114
 752 78 752 78 715 113 c 256,115,116
 678 148 678 148 632 207 c 256,117,118
 586 266 586 266 568 295 c 2,119,-1
 536 346 l 1,0,-1
448 790 m 1,120,121
 462 781 462 781 474 774 c 0,122,123
 486 766 486 766 502 754 c 256,124,125
 518 742 518 742 530 730 c 0,126,127
 542 717 542 717 548 704 c 0,128,129
 554 692 554 692 554 680 c 256,130,131
 554 668 554 668 552 660 c 256,132,133
 550 652 550 652 546 648 c 2,134,-1
 542 644 l 1,135,-1
 886 644 l 1,136,-1
 916 678 l 1,137,-1
 961 641 l 2,138,139
 971 633 971 633 974 628 c 0,140,141
 978 622 978 622 978 618 c 0,142,143
 977 612 977 612 972 609 c 256,144,145
 967 606 967 606 959 605 c 2,146,-1
 934 600 l 1,147,148
 924 586 924 586 917 578 c 256,149,150
 910 570 910 570 892 552 c 0,151,152
 875 534 875 534 864 524 c 0,153,154
 854 515 854 515 842 505 c 2,155,-1
 821 486 l 1,156,-1
 809 496 l 1,157,158
 817 506 817 506 824 515 c 0,159,160
 830 524 830 524 840 538 c 256,161,162
 850 552 850 552 860 568 c 256,163,164
 870 584 870 584 874 594 c 2,165,-1
 886 616 l 1,166,-1
 144 616 l 1,167,168
 142 600 142 600 140 589 c 0,169,170
 139 578 139 578 134 560 c 0,171,172
 128 543 128 543 122 530 c 0,173,174
 116 518 116 518 106 507 c 256,175,176
 96 496 96 496 86 490 c 0,177,178
 76 485 76 485 63 484 c 0,179,180
 50 484 50 484 42 493 c 0,181,182
 35 502 35 502 37 514 c 256,183,184
 39 526 39 526 45 532 c 256,185,186
 51 538 51 538 62 545 c 0,187,188
 72 552 72 552 80 560 c 0,189,190
 87 568 87 568 95 579 c 256,191,192
 103 590 103 590 109 603 c 256,193,194
 115 616 115 616 118 631 c 0,195,196
 122 646 122 646 122 657 c 2,197,-1
 124 688 l 1,198,-1
 142 688 l 1,199,200
 144 668 144 668 144 664 c 2,201,-1
 144 644 l 1,202,-1
 512 644 l 1,203,204
 507 651 507 651 506 654 c 0,205,206
 504 658 504 658 500 675 c 0,207,208
 495 692 495 692 488 706 c 0,209,210
 482 720 482 720 472 735 c 256,211,212
 462 750 462 750 454 758 c 2,213,-1
 436 777 l 1,214,-1
 448 790 l 1,120,121
EndSplineSet
EndChar
StartChar: uni5EAB
Encoding: 24235 24235 101
Width: 1024
Flags: W
LayerCount: 2
Back
Fore
SplineSet
958 649 m 2,0,-1
 147 649 l 1,1,-1
 147 388 l 2,2,3
 147 332 147 332 146 317 c 256,4,5
 145 302 145 302 142 236 c 0,6,7
 138 170 138 170 136 148 c 256,8,9
 134 126 134 126 130 92 c 0,10,11
 125 58 125 58 120 30 c 0,12,13
 114 2 114 2 109 -17 c 256,14,15
 104 -36 104 -36 95 -60 c 0,16,17
 86 -85 86 -85 78 -100 c 0,18,19
 71 -116 71 -116 62 -130 c 0,20,21
 54 -145 54 -145 42 -162 c 2,22,-1
 36 -170 l 1,23,-1
 24 -162 l 1,24,25
 26 -158 26 -158 28 -152 c 0,26,27
 31 -147 31 -147 36 -133 c 0,28,29
 42 -119 42 -119 49 -98 c 0,30,31
 56 -76 56 -76 60 -62 c 0,32,33
 65 -47 65 -47 69 -28 c 256,34,35
 73 -9 73 -9 76 10 c 0,36,37
 79 28 79 28 84 70 c 256,38,39
 89 112 89 112 92 136 c 0,40,41
 94 160 94 160 95 194 c 256,42,43
 96 228 96 228 97 288 c 0,44,45
 98 347 98 347 99 398 c 0,46,47
 100 448 100 448 99 502 c 2,48,-1
 98 612 l 2,49,50
 98 670 98 670 96 682 c 2,51,-1
 94 716 l 1,52,-1
 152 678 l 1,53,-1
 508 678 l 1,54,55
 504 694 504 694 500 707 c 256,56,57
 496 720 496 720 488 736 c 0,58,59
 480 751 480 751 470 763 c 2,60,-1
 456 782 l 1,61,-1
 470 796 l 1,62,63
 481 788 481 788 492 780 c 0,64,65
 502 772 502 772 518 760 c 0,66,67
 533 749 533 749 540 738 c 0,68,69
 548 726 548 726 550 710 c 256,70,71
 552 694 552 694 550 690 c 2,72,-1
 542 678 l 1,73,-1
 840 678 l 1,74,-1
 894 734 l 1,75,-1
 960 678 l 2,76,77
 966 672 966 672 969 668 c 0,78,79
 972 663 972 663 970 658 c 0,80,81
 969 653 969 653 964 651 c 0,82,83
 960 649 960 649 958 649 c 2,0,-1
528 548 m 2,84,85
 528 588 528 588 527 603 c 256,86,87
 526 618 526 618 526 622 c 2,88,-1
 524 628 l 1,89,-1
 579 616 l 2,90,91
 604 610 604 610 612 606 c 256,92,93
 620 602 620 602 621 595 c 256,94,95
 622 588 622 588 615 582 c 256,96,97
 608 576 608 576 597 573 c 2,98,-1
 576 567 l 1,99,-1
 576 530 l 1,100,-1
 811 530 l 1,101,-1
 865 588 l 1,102,-1
 930 530 l 2,103,104
 938 523 938 523 940 520 c 0,105,106
 944 516 944 516 942 510 c 0,107,108
 940 505 940 505 936 504 c 0,109,110
 932 502 932 502 928 502 c 2,111,-1
 576 502 l 1,112,-1
 576 408 l 1,113,-1
 796 408 l 1,114,-1
 830 446 l 1,115,-1
 872 420 l 2,116,117
 883 412 883 412 888 407 c 0,118,119
 892 402 892 402 892 395 c 0,120,121
 892 387 892 387 887 382 c 0,122,123
 882 376 882 376 871 372 c 2,124,-1
 852 364 l 1,125,-1
 852 227 l 2,126,127
 852 201 852 201 853 186 c 256,128,129
 854 171 854 171 855 150 c 0,130,131
 856 130 856 130 855 116 c 0,132,133
 854 106 854 106 852 102 c 0,134,135
 850 97 850 97 846 93 c 256,136,137
 842 89 842 89 834 88 c 0,138,139
 826 88 826 88 823 88 c 0,140,141
 814 88 814 88 810 90 c 0,142,143
 806 91 806 91 805 94 c 0,144,145
 804 96 804 96 804 100 c 2,146,-1
 804 116 l 1,147,-1
 576 116 l 1,148,-1
 576 20 l 1,149,-1
 859 20 l 1,150,-1
 914 77 l 1,151,-1
 978 20 l 2,152,153
 986 13 986 13 988 10 c 0,154,155
 992 6 992 6 990 1 c 0,156,157
 988 -3 988 -3 984 -6 c 0,158,159
 980 -8 980 -8 976 -8 c 2,160,-1
 576 -8 l 1,161,-1
 576 -24 l 2,162,163
 576 -41 576 -41 578 -76 c 0,164,165
 580 -112 580 -112 582 -130 c 256,166,167
 584 -148 584 -148 584 -155 c 0,168,169
 584 -161 584 -161 582 -165 c 256,170,171
 580 -169 580 -169 574 -172 c 0,172,173
 568 -176 568 -176 559 -176 c 0,174,175
 549 -177 549 -177 542 -174 c 0,176,177
 536 -172 536 -172 532 -167 c 256,178,179
 528 -162 528 -162 528 -155 c 2,180,-1
 528 -8 l 1,181,-1
 275 -8 l 2,182,183
 261 -8 261 -8 224 -9 c 256,184,185
 187 -10 187 -10 186 -10 c 2,186,-1
 179 -12 l 1,187,-1
 160 32 l 1,188,189
 166 30 166 30 175 28 c 256,190,191
 184 26 184 26 205 23 c 256,192,193
 226 20 226 20 275 20 c 2,194,-1
 528 20 l 1,195,-1
 528 116 l 1,196,-1
 309 116 l 1,197,-1
 309 96 l 2,198,199
 309 92 309 92 308 90 c 0,200,201
 306 88 306 88 302 85 c 256,202,203
 298 82 298 82 284 84 c 256,204,205
 270 86 270 86 267 90 c 0,206,207
 264 93 264 93 262 98 c 256,208,209
 260 103 260 103 260 112 c 0,210,211
 260 120 260 120 262 145 c 0,212,213
 263 170 263 170 263 203 c 2,214,-1
 263 386 l 2,215,216
 262 413 262 413 260 424 c 0,217,218
 259 436 259 436 257 446 c 2,219,-1
 256 452 l 1,220,-1
 316 408 l 1,221,-1
 528 408 l 1,222,-1
 528 502 l 1,223,-1
 320 502 l 2,224,225
 262 502 262 502 232 498 c 1,226,-1
 225 498 l 1,227,-1
 206 542 l 1,228,229
 213 540 213 540 220 538 c 256,230,231
 227 536 227 536 253 533 c 0,232,233
 278 530 278 530 320 530 c 2,234,-1
 528 530 l 1,235,-1
 528 548 l 2,84,85
309 144 m 1,236,-1
 528 144 l 1,237,-1
 528 250 l 1,238,-1
 309 250 l 1,239,-1
 309 144 l 1,236,-1
576 250 m 1,240,-1
 576 144 l 1,241,-1
 804 144 l 1,242,-1
 804 250 l 1,243,-1
 576 250 l 1,240,-1
309 279 m 1,244,-1
 528 279 l 1,245,-1
 528 380 l 1,246,-1
 309 380 l 1,247,-1
 309 279 l 1,244,-1
576 380 m 1,248,-1
 576 279 l 1,249,-1
 804 279 l 1,250,-1
 804 380 l 1,251,-1
 576 380 l 1,248,-1
EndSplineSet
EndChar
StartChar: uni6B63
Encoding: 27491 27491 102
Width: 1024
Flags: W
LayerCount: 2
Back
Fore
SplineSet
561 655 m 1,0,-1
 561 346 l 1,1,-1
 774 346 l 1,2,-1
 822 396 l 1,3,-1
 883 343 l 2,4,5
 888 338 888 338 890 335 c 256,6,7
 892 332 892 332 890 326 c 256,8,9
 888 320 888 320 884 318 c 0,10,11
 882 317 882 317 878 317 c 2,12,-1
 561 317 l 1,13,-1
 561 -60 l 1,14,-1
 868 -60 l 1,15,-1
 922 -3 l 1,16,-1
 988 -59 l 2,17,18
 994 -65 994 -65 997 -70 c 0,19,20
 1000 -76 1000 -76 999 -80 c 0,21,22
 997 -84 997 -84 992 -86 c 0,23,24
 988 -89 988 -89 986 -89 c 2,25,-1
 139 -89 l 1,26,-1
 58 -92 l 1,27,-1
 50 -92 l 1,28,-1
 43 -93 l 1,29,-1
 24 -48 l 1,30,31
 30 -50 30 -50 38 -52 c 256,32,33
 46 -54 46 -54 69 -57 c 256,34,35
 92 -60 92 -60 139 -60 c 2,36,-1
 230 -60 l 1,37,-1
 230 392 l 2,38,39
 230 420 230 420 228 441 c 0,40,41
 227 462 227 462 227 465 c 2,42,-1
 226 472 l 1,43,-1
 280 460 l 2,44,45
 305 454 305 454 314 450 c 0,46,47
 322 445 322 445 322 438 c 0,48,49
 323 431 323 431 316 426 c 0,50,51
 310 420 310 420 298 416 c 2,52,-1
 278 410 l 1,53,-1
 278 -60 l 1,54,-1
 513 -60 l 1,55,-1
 513 655 l 1,56,-1
 180 655 l 1,57,-1
 100 652 l 2,58,59
 92 652 92 652 91 652 c 2,60,-1
 84 651 l 1,61,-1
 66 695 l 1,62,63
 73 693 73 693 82 692 c 0,64,65
 92 690 92 690 112 687 c 256,66,67
 132 684 132 684 180 684 c 2,68,-1
 834 684 l 1,69,-1
 888 741 l 1,70,-1
 954 684 l 2,71,72
 962 677 962 677 964 674 c 0,73,74
 966 670 966 670 964 664 c 256,75,76
 962 658 962 658 958 656 c 0,77,78
 956 655 956 655 952 655 c 2,79,-1
 561 655 l 1,0,-1
EndSplineSet
EndChar
StartChar: uF0000
Encoding: 983040 983040 104
Width: 1024
Flags: W
LayerCount: 2
Back
Fore
SplineSet
584 627 m 1,0,-1
 856 627 l 1,1,-1
 908 683 l 1,2,-1
 980 627 l 2,3,4
 987 623 987 623 988 617 c 1,5,-1
 988 617 l 1,6,-1
 987 615 l 1,7,-1
 985 610 l 2,8,9
 984 608 984 608 984 607 c 0,10,11
 983 606 983 606 981 603 c 2,12,-1
 980 601 l 2,13,14
 979 601 979 601 978 601 c 0,15,16
 975 600 975 600 972 599 c 2,17,-1
 584 599 l 1,18,19
 588 590 588 590 590 563 c 2,20,-1
 590 556 l 1,21,22
 598 464 598 464 620 361 c 0,23,24
 636 291 636 291 650 253 c 0,25,26
 654 243 654 243 661 227 c 0,27,28
 664 220 664 220 665 216 c 2,29,-1
 667 213 l 2,30,31
 668 212 668 212 668 211 c 2,32,-1
 672 199 l 1,33,34
 678 211 678 211 681 215 c 0,35,36
 683 218 683 218 685 221 c 0,37,38
 689 225 689 225 694 233 c 2,39,-1
 698 237 l 1,40,41
 727 275 727 275 770 349 c 0,42,43
 818 433 818 433 828 475 c 1,44,-1
 840 503 l 1,45,-1
 912 475 l 2,46,47
 923 471 923 471 928 467 c 0,48,49
 930 462 930 462 930 458 c 0,50,51
 930 446 930 446 912 443 c 2,52,-1
 880 439 l 1,53,54
 860 407 860 407 850 387 c 0,55,56
 831 350 831 350 802 304 c 0,57,58
 782 272 782 272 758 238 c 0,59,60
 745 220 745 220 735 205 c 0,61,62
 730 199 730 199 723 190 c 0,63,64
 713 178 713 178 712 175 c 2,65,-1
 704 163 l 1,66,-1
 696 155 l 1,67,68
 707 133 707 133 722 112 c 0,69,70
 768 44 768 44 804 19 c 2,71,-1
 844 -8 l 1,72,73
 883 -41 883 -41 894 -41 c 0,74,75
 920 -41 920 -41 932 7 c 2,76,-1
 944 51 l 2,77,78
 948 61 948 61 956 89 c 0,79,80
 963 118 963 118 964 127 c 2,81,-1
 972 159 l 1,82,-1
 988 151 l 1,83,84
 984 136 984 136 984 125 c 0,85,86
 983 113 983 113 976 78 c 0,87,88
 972 54 972 54 968 27 c 2,89,-1
 967 15 l 1,90,-1
 965 3 l 2,91,92
 962 -25 962 -25 962 -34 c 256,93,94
 962 -43 962 -43 964 -48 c 0,95,96
 964 -61 964 -61 975 -82 c 0,97,98
 980 -92 980 -92 981 -94 c 0,99,100
 985 -103 985 -103 986 -109 c 0,101,102
 986 -111 986 -111 986 -114 c 0,103,104
 985 -115 985 -115 984 -117 c 2,105,-1
 982 -119 l 1,106,-1
 978 -124 l 2,107,108
 977 -124 977 -124 974 -125 c 256,109,110
 971 -126 971 -126 965 -126 c 0,111,112
 962 -126 962 -126 956 -124 c 0,113,114
 900 -122 900 -122 825 -63 c 0,115,116
 760 -11 760 -11 719 35 c 0,117,118
 688 72 688 72 676 95 c 2,119,-1
 668 111 l 1,120,-1
 660 119 l 1,121,122
 653 112 653 112 634 89 c 0,123,124
 607 57 607 57 526 -6 c 0,125,126
 448 -68 448 -68 392 -100 c 2,127,-1
 336 -132 l 1,128,-1
 320 -120 l 1,129,130
 354 -97 354 -97 386 -71 c 0,131,132
 413 -49 413 -49 452 -18 c 0,133,134
 508 26 508 26 563 79 c 0,135,136
 616 130 616 130 628 147 c 2,137,-1
 640 159 l 2,138,139
 639 161 639 161 637 165 c 2,140,-1
 635 169 l 1,141,-1
 632 174 l 2,142,143
 610 217 610 217 583 322 c 0,144,145
 565 390 565 390 554 463 c 0,146,147
 540 550 540 550 540 587 c 2,148,-1
 540 599 l 1,149,-1
 128 599 l 1,150,-1
 92 599 l 1,151,-1
 80 599 l 2,152,153
 79 599 79 599 78 599 c 2,154,155
 78 599 78 599 75 598 c 0,156,157
 71 597 71 597 64 595 c 2,158,-1
 52 595 l 1,159,-1
 36 639 l 1,160,161
 42 637 42 637 53 635 c 0,162,163
 54 635 54 635 54 635 c 2,164,165
 70 634 70 634 86 631 c 0,166,167
 111 627 111 627 132 627 c 2,168,-1
 536 627 l 1,169,-1
 536 629 l 1,170,-1
 536 632 l 1,171,-1
 536 634 l 1,172,-1
 536 638 l 2,173,174
 536 642 536 642 535 645 c 0,175,176
 535 648 535 648 535 657 c 0,177,178
 534 675 534 675 531 711 c 0,179,180
 528 749 528 749 528 779 c 2,181,-1
 528 799 l 1,182,-1
 600 783 l 2,183,184
 607 779 607 779 614 773 c 1,185,186
 614 773 614 773 615 770 c 0,187,188
 620 764 620 764 620 759 c 0,189,190
 620 752 620 752 608 747 c 2,191,-1
 576 735 l 1,192,-1
 576 732 l 1,193,-1
 576 727 l 1,194,-1
 576 721 l 1,195,-1
 576 707 l 1,196,-1
 580 651 l 1,197,-1
 580 639 l 1,198,-1
 584 627 l 1,0,-1
688 783 m 1,199,200
 695 781 695 781 703 779 c 2,201,-1
 704 779 l 1,202,-1
 744 763 l 2,203,204
 787 746 787 746 803 735 c 0,205,206
 816 727 816 727 828 711 c 2,207,-1
 831 707 l 2,208,209
 842 692 842 692 842 680 c 0,210,211
 842 660 842 660 824 659 c 0,212,213
 823 659 823 659 821 660 c 0,214,215
 815 663 815 663 814 663 c 256,216,217
 813 663 813 663 811 665 c 0,218,219
 806 670 806 670 795 682 c 0,220,221
 787 692 787 692 780 697 c 2,222,-1
 778 699 l 2,223,224
 770 704 770 704 758 715 c 0,225,226
 721 746 721 746 688 763 c 2,227,-1
 680 767 l 1,228,-1
 688 783 l 1,199,200
80 275 m 1,229,230
 91 271 91 271 100 271 c 2,231,-1
 102 271 l 2,232,233
 107 271 107 271 118 270 c 0,234,235
 124 270 124 270 132 269 c 0,236,237
 156 267 156 267 172 267 c 2,238,-1
 416 267 l 1,239,-1
 464 319 l 1,240,-1
 536 263 l 2,241,242
 542 260 542 260 544 255 c 2,243,-1
 544 254 l 1,244,-1
 544 253 l 1,245,-1
 544 251 l 1,246,-1
 544 249 l 1,247,-1
 544 247 l 1,248,249
 544 247 544 247 543 246 c 256,250,251
 542 245 542 245 541 243 c 0,252,253
 540 242 540 242 540 241 c 1,254,255
 539 241 539 241 538 241 c 2,256,257
 538 241 538 241 536 240 c 0,258,259
 532 239 532 239 528 239 c 2,260,-1
 172 239 l 1,261,-1
 136 235 l 1,262,-1
 124 235 l 1,263,-1
 121 235 l 1,264,-1
 118 235 l 1,265,-1
 115 235 l 1,266,-1
 113 235 l 1,267,-1
 112 235 l 1,268,-1
 100 231 l 1,269,-1
 80 275 l 1,229,230
EndSplineSet
EndChar
StartChar: uF0001
Encoding: 983041 983041 105
Width: 1024
Flags: W
LayerCount: 2
Back
Fore
SplineSet
304 543 m 1,0,1
 304 543 304 543 303 542 c 2,2,-1
 301 539 l 1,3,-1
 300 537 l 1,4,5
 300 537 300 537 300 536 c 2,6,7
 300 536 300 536 299 533 c 2,8,-1
 299 530 l 1,9,-1
 298 526 l 1,10,-1
 298 523 l 2,11,12
 297 518 297 518 296 512 c 2,13,-1
 296 509 l 2,14,15
 296 508 296 508 296 507 c 2,16,-1
 292 491 l 1,17,-1
 420 491 l 1,18,-1
 460 531 l 1,19,-1
 516 487 l 2,20,21
 520 485 520 485 524 477 c 0,22,23
 523 476 523 476 522 472 c 0,24,25
 521 470 521 470 521 469 c 0,26,27
 520 468 520 468 520 467 c 2,28,-1
 519 467 l 1,29,-1
 518 466 l 1,30,-1
 514 464 l 2,31,32
 512 463 512 463 512 463 c 1,33,-1
 284 463 l 1,34,35
 303 455 303 455 312 455 c 2,36,-1
 356 443 l 2,37,38
 364 439 364 439 391 432 c 0,39,40
 466 412 466 412 466 378 c 0,41,42
 466 373 466 373 462 365 c 0,43,44
 461 365 461 365 459 364 c 0,45,46
 458 363 458 363 452 361 c 0,47,48
 451 360 451 360 450 359 c 2,49,-1
 449 359 l 2,50,51
 433 362 433 362 393 389 c 0,52,53
 391 391 391 391 390 391 c 256,54,55
 389 391 389 391 387 393 c 0,56,57
 379 397 379 397 364 405 c 0,58,59
 349 412 349 412 334 421 c 0,60,61
 326 426 326 426 312 431 c 2,62,-1
 272 447 l 1,63,64
 262 437 262 437 250 423 c 0,65,66
 228 398 228 398 178 379 c 0,67,68
 115 356 115 356 92 355 c 1,69,-1
 60 347 l 1,70,-1
 56 363 l 1,71,72
 72 371 72 371 89 376 c 0,73,74
 99 379 99 379 106 381 c 0,75,76
 153 397 153 397 180 413 c 0,77,78
 223 440 223 440 224 455 c 1,79,-1
 232 463 l 1,80,-1
 164 463 l 1,81,-1
 76 459 l 1,82,-1
 68 459 l 1,83,-1
 52 503 l 2,84,85
 53 503 53 503 54 502 c 0,86,87
 59 500 59 500 62 499 c 0,88,89
 63 499 63 499 64 499 c 2,90,-1
 65 500 l 2,91,92
 66 500 66 500 66 499 c 0,93,94
 67 498 67 498 76 498 c 0,95,96
 78 498 78 498 84 497 c 256,97,98
 90 496 90 496 100 495 c 0,99,100
 131 491 131 491 164 491 c 2,101,-1
 244 491 l 1,102,103
 248 503 248 503 250 515 c 0,104,105
 250 519 250 519 251 521 c 0,106,107
 252 526 252 526 252 527 c 2,108,-1
 256 543 l 1,109,-1
 120 543 l 1,110,-1
 117 541 l 1,111,-1
 114 537 l 1,112,-1
 110 533 l 1,113,-1
 107 530 l 2,114,115
 105 528 105 528 103 526 c 2,116,-1
 100 523 l 1,117,-1
 76 503 l 1,118,-1
 64 519 l 1,119,120
 73 529 73 529 87 547 c 2,121,-1
 91 553 l 2,122,123
 109 576 109 576 119 596 c 0,124,125
 125 606 125 606 128 611 c 2,126,-1
 140 635 l 1,127,-1
 172 619 l 1,128,-1
 176 617 l 2,129,130
 182 615 182 615 190 611 c 0,131,132
 191 610 191 610 193 607 c 0,133,134
 193 606 193 606 196 604 c 2,135,-1
 196 603 l 2,136,137
 195 603 195 603 195 601 c 1,138,139
 194 601 194 601 194 599 c 0,140,141
 193 598 193 598 193 597 c 0,142,143
 192 596 192 596 192 595 c 2,144,-1
 190 594 l 2,145,146
 184 591 184 591 180 591 c 2,147,-1
 164 591 l 1,148,-1
 148 571 l 1,149,-1
 372 571 l 1,150,-1
 412 611 l 1,151,-1
 464 567 l 2,152,153
 468 565 468 565 474 557 c 1,154,155
 474 557 474 557 473 555 c 2,156,-1
 472 552 l 2,157,158
 470 548 470 548 470 547 c 1,159,160
 469 547 469 547 468 546 c 2,161,-1
 467 545 l 1,162,-1
 466 544 l 2,163,164
 464 544 464 544 464 543 c 2,165,-1
 304 543 l 1,0,1
644 163 m 1,166,-1
 676 199 l 1,167,-1
 712 175 l 1,168,-1
 714 174 l 2,169,170
 717 172 717 172 726 165 c 1,171,172
 726 165 726 165 727 162 c 0,173,174
 728 161 728 161 729 159 c 256,175,176
 730 157 730 157 730 156 c 0,177,178
 731 154 731 154 732 153 c 1,179,-1
 732 153 l 1,180,181
 730 144 730 144 728 139 c 1,182,-1
 727 139 l 1,183,184
 718 135 718 135 712 131 c 2,185,-1
 700 123 l 1,186,-1
 700 87 l 1,187,-1
 720 71 l 2,188,189
 726 68 726 68 726 62 c 0,190,191
 726 53 726 53 720 51 c 2,192,-1
 524 51 l 1,193,-1
 524 -12 l 1,194,-1
 660 -8 l 1,195,-1
 700 27 l 1,196,-1
 760 -12 l 1,197,198
 766 -21 766 -21 766 -27 c 0,199,200
 766 -31 766 -31 764 -34 c 0,201,202
 763 -34 763 -34 763 -35 c 1,203,204
 762 -35 762 -35 760 -35 c 2,205,-1
 758 -36 l 2,206,207
 756 -36 756 -36 756 -36 c 1,208,-1
 316 -36 l 2,209,210
 315 -37 315 -37 315 -38 c 0,211,212
 314 -39 314 -39 314 -40 c 0,213,214
 313 -42 313 -42 313 -42 c 2,215,216
 312 -44 312 -44 312 -44 c 2,217,218
 311 -44 311 -44 309 -45 c 0,219,220
 303 -48 303 -48 296 -48 c 0,221,222
 291 -50 291 -50 284 -50 c 0,223,224
 283 -50 283 -50 282 -49 c 2,225,-1
 280 -47 l 2,226,227
 277 -45 277 -45 276 -44 c 0,228,229
 275 -44 275 -44 275 -42 c 1,230,231
 274 -42 274 -42 274 -40 c 0,232,233
 273 -39 273 -39 273 -38 c 0,234,235
 272 -37 272 -37 272 -36 c 2,236,-1
 272 287 l 1,237,-1
 328 259 l 1,238,-1
 664 259 l 1,239,-1
 700 295 l 1,240,-1
 756 251 l 2,241,242
 760 249 760 249 764 241 c 1,243,244
 764 241 764 241 763 239 c 2,245,-1
 762 236 l 2,246,247
 760 232 760 232 760 231 c 1,248,249
 759 231 759 231 758 230 c 0,250,251
 757 230 757 230 756 229 c 2,252,-1
 754 228 l 2,253,254
 752 227 752 227 752 227 c 1,255,-1
 524 227 l 1,256,-1
 524 163 l 1,257,-1
 644 163 l 1,166,-1
320 -12 m 1,258,-1
 480 -12 l 1,259,-1
 480 51 l 1,260,-1
 320 51 l 1,261,-1
 320 -12 l 1,258,-1
320 79 m 1,262,-1
 652 79 l 1,263,-1
 652 139 l 1,264,-1
 320 139 l 1,265,-1
 320 79 l 1,262,-1
320 163 m 1,266,-1
 480 163 l 1,267,-1
 480 227 l 1,268,-1
 320 227 l 1,269,-1
 320 163 l 1,266,-1
188 -104 m 1,270,-1
 188 -120 l 2,271,272
 188 -121 188 -121 187 -122 c 2,273,-1
 186 -124 l 2,274,275
 184 -128 184 -128 184 -128 c 2,276,277
 183 -129 183 -129 181 -130 c 0,278,279
 180 -130 180 -130 179 -131 c 0,280,281
 177 -133 177 -133 176 -133 c 0,282,283
 174 -134 174 -134 174 -134 c 1,284,-1
 173 -134 l 1,285,-1
 170 -135 l 1,286,-1
 168 -135 l 2,287,288
 160 -134 160 -134 156 -132 c 2,289,-1
 155 -132 l 1,290,-1
 153 -132 l 1,291,-1
 151 -132 l 1,292,-1
 148 -132 l 1,293,-1
 146 -132 l 2,294,295
 145 -132 145 -132 143 -130 c 2,296,-1
 140 -128 l 1,297,298
 140 -128 140 -128 139 -126 c 0,299,300
 136 -119 136 -119 136 -112 c 0,301,302
 136 -106 136 -106 137 -97 c 0,303,304
 137 -96 137 -96 138 -94 c 0,305,306
 138 -93 138 -93 138 -92 c 0,307,308
 140 -83 140 -83 140 -66 c 2,309,-1
 140 -61 l 1,310,-1
 140 -56 l 1,311,-1
 140 -50 l 1,312,-1
 140 -44 l 1,313,-1
 140 -38 l 1,314,-1
 140 -31 l 1,315,-1
 140 -25 l 1,316,-1
 140 -20 l 1,317,-1
 140 -14 l 1,318,-1
 140 -8 l 1,319,-1
 140 359 l 1,320,-1
 196 335 l 1,321,-1
 816 335 l 1,322,-1
 848 371 l 1,323,-1
 884 347 l 2,324,325
 885 346 885 346 887 343 c 2,326,-1
 893 338 l 1,327,-1
 896 335 l 1,328,329
 896 335 896 335 897 333 c 2,330,-1
 899 330 l 1,331,-1
 902 325 l 1,332,333
 902 325 902 325 901 323 c 2,334,-1
 901 320 l 2,335,336
 901 319 901 319 900 317 c 0,337,338
 900 316 900 316 900 315 c 2,339,-1
 899 315 l 1,340,341
 892 310 892 310 888 307 c 2,342,-1
 872 299 l 1,343,-1
 872 7 l 1,344,-1
 872 -16 l 1,345,-1
 872 -22 l 1,346,-1
 872 -28 l 1,347,-1
 872 -33 l 1,348,-1
 872 -37 l 1,349,-1
 872 -40 l 1,350,-1
 876 -52 l 1,351,-1
 876 -80 l 1,352,-1
 876 -86 l 1,353,-1
 876 -92 l 2,354,355
 876 -110 876 -110 872 -118 c 0,356,357
 872 -119 872 -119 870 -121 c 0,358,359
 858 -132 858 -132 842 -132 c 0,360,361
 838 -132 838 -132 828 -128 c 1,362,-1
 827 -126 l 2,363,364
 824 -121 824 -121 824 -116 c 2,365,-1
 824 -104 l 1,366,-1
 188 -104 l 1,270,-1
188 -72 m 1,367,-1
 824 -72 l 1,368,-1
 824 311 l 1,369,-1
 188 311 l 1,370,-1
 188 -72 l 1,367,-1
160 739 m 1,371,-1
 380 739 l 1,372,-1
 416 771 l 1,373,-1
 464 739 l 2,374,375
 478 730 478 730 478 721 c 0,376,377
 478 718 478 718 475 715 c 2,378,-1
 474 713 l 2,379,380
 473 713 473 713 471 713 c 2,381,-1
 469 712 l 2,382,383
 465 712 465 712 464 711 c 2,384,-1
 160 711 l 1,385,-1
 160 707 l 2,386,387
 160 702 160 702 161 692 c 0,388,389
 162 690 162 690 162 689 c 2,390,391
 162 689 162 689 163 686 c 2,392,-1
 165 683 l 2,393,394
 167 679 167 679 168 677 c 0,395,396
 175 670 175 670 184 668 c 0,397,398
 185 668 185 668 188 667 c 0,399,400
 191 667 191 667 198 665 c 0,401,402
 229 659 229 659 269 659 c 2,403,-1
 279 659 l 1,404,-1
 289 659 l 1,405,-1
 300 659 l 1,406,-1
 308 659 l 1,407,-1
 317 659 l 1,408,-1
 325 659 l 1,409,-1
 334 659 l 2,410,411
 352 659 352 659 364 663 c 2,412,-1
 408 667 l 2,413,414
 425 668 425 668 444 672 c 0,415,416
 448 673 448 673 460 675 c 0,417,418
 463 674 463 674 465 673 c 0,419,420
 467 671 467 671 472 669 c 0,421,422
 489 661 489 661 489 650 c 0,423,424
 489 647 489 647 488 645 c 0,425,426
 488 644 488 644 488 643 c 1,427,428
 487 643 487 643 486 642 c 2,429,430
 486 642 486 642 484 640 c 0,431,432
 466 627 466 627 414 627 c 2,433,-1
 408 627 l 2,434,435
 406 627 406 627 391 627 c 2,436,-1
 382 626 l 2,437,438
 373 626 373 626 368 625 c 0,439,440
 345 623 345 623 314 623 c 0,441,442
 273 623 273 623 249 626 c 0,443,444
 236 627 236 627 210 629 c 2,445,-1
 204 630 l 1,446,447
 155 634 155 634 136 649 c 0,448,449
 116 665 116 665 116 707 c 2,450,-1
 116 811 l 1,451,-1
 168 803 l 2,452,453
 169 803 169 803 173 801 c 0,454,455
 175 801 175 801 182 799 c 2,456,-1
 186 798 l 2,457,458
 196 795 196 795 196 787 c 0,459,460
 193 782 193 782 189 777 c 0,461,462
 188 776 188 776 188 775 c 1,463,464
 187 775 187 775 186 774 c 0,465,466
 181 771 181 771 176 771 c 2,467,-1
 160 767 l 1,468,-1
 160 739 l 1,371,-1
684 411 m 1,469,-1
 684 491 l 1,470,-1
 668 491 l 2,471,472
 613 491 613 491 592 487 c 1,473,-1
 580 487 l 1,474,-1
 572 487 l 1,475,-1
 556 527 l 1,476,477
 564 527 564 527 576 524 c 0,478,479
 581 523 581 523 584 522 c 0,480,481
 610 515 610 515 656 515 c 2,482,-1
 684 515 l 1,483,-1
 684 523 l 1,484,-1
 684 535 l 1,485,-1
 684 547 l 1,486,-1
 684 559 l 1,487,-1
 684 571 l 1,488,-1
 684 577 l 1,489,-1
 684 583 l 1,490,-1
 684 588 l 1,491,-1
 684 592 l 1,492,-1
 684 595 l 1,493,-1
 680 603 l 1,494,-1
 740 591 l 2,495,496
 772 585 772 585 780 570 c 1,497,-1
 780 569 l 2,498,499
 779 569 779 569 777 563 c 0,500,501
 775 561 775 561 775 560 c 0,502,503
 774 558 774 558 774 557 c 0,504,505
 763 548 763 548 756 547 c 2,506,-1
 732 543 l 1,507,-1
 732 515 l 1,508,-1
 792 515 l 1,509,-1
 832 559 l 1,510,-1
 888 515 l 2,511,512
 895 510 895 510 898 501 c 1,513,514
 897 501 897 501 896 499 c 0,515,516
 894 496 894 496 893 495 c 256,517,518
 892 494 892 494 892 493 c 1,519,520
 891 493 891 493 888 492 c 2,521,-1
 886 492 l 2,522,523
 884 491 884 491 884 491 c 1,524,-1
 732 491 l 1,525,-1
 732 411 l 1,526,-1
 860 411 l 1,527,-1
 900 451 l 1,528,-1
 956 411 l 2,529,530
 964 406 964 406 964 399 c 0,531,532
 964 395 964 395 960 389 c 0,533,534
 959 389 959 389 959 389 c 2,535,536
 958 389 958 389 956 388 c 2,537,-1
 954 388 l 2,538,539
 952 387 952 387 952 387 c 1,540,-1
 616 387 l 2,541,542
 563 387 563 387 540 383 c 1,543,-1
 528 383 l 1,544,-1
 520 383 l 1,545,-1
 504 423 l 2,546,547
 508 423 508 423 516 422 c 0,548,549
 517 421 517 421 517 421 c 2,550,551
 518 421 518 421 518 421 c 2,552,553
 526 419 526 419 556 415 c 0,554,555
 558 415 558 415 564 414 c 0,556,557
 587 411 587 411 616 411 c 2,558,-1
 684 411 l 1,469,-1
772 647 m 1,559,560
 784 644 784 644 792 642 c 0,561,562
 798 640 798 640 803 638 c 2,563,-1
 814 635 l 1,564,-1
 823 632 l 2,565,566
 854 624 854 624 888 619 c 0,567,568
 919 615 919 615 940 611 c 1,569,-1
 984 611 l 1,570,-1
 984 591 l 1,571,572
 945 590 945 590 936 571 c 2,573,-1
 932 563 l 1,574,575
 907 567 907 567 888 572 c 2,576,-1
 882 573 l 2,577,578
 873 575 873 575 867 577 c 2,579,-1
 864 577 l 2,580,581
 850 580 850 580 816 591 c 0,582,583
 764 609 764 609 748 619 c 2,584,-1
 728 627 l 1,585,586
 710 619 710 619 692 614 c 0,587,588
 690 614 690 614 685 612 c 0,589,590
 683 612 683 612 677 610 c 0,591,592
 671 609 671 609 660 605 c 0,593,594
 627 595 627 595 586 589 c 0,595,596
 566 586 566 586 554 584 c 0,597,598
 542 583 542 583 538 582 c 2,599,-1
 531 580 l 2,600,601
 525 579 525 579 524 579 c 2,602,-1
 492 575 l 1,603,-1
 488 595 l 1,604,605
 502 598 502 598 516 600 c 2,606,-1
 522 601 l 1,607,-1
 526 601 l 1,608,-1
 529 602 l 1,609,610
 563 607 563 607 594 617 c 0,611,612
 609 622 609 622 634 629 c 0,613,614
 644 632 644 632 651 634 c 0,615,616
 657 636 657 636 660 637 c 2,617,-1
 664 638 l 2,618,619
 667 639 667 639 668 639 c 2,620,-1
 696 647 l 1,621,-1
 695 648 l 2,622,623
 682 659 682 659 657 677 c 2,624,-1
 648 684 l 1,625,-1
 638 691 l 2,626,627
 604 715 604 715 589 733 c 0,628,629
 588 734 588 734 586 736 c 0,630,631
 584 739 584 739 583 740 c 0,632,633
 580 742 580 742 580 743 c 2,634,-1
 576 747 l 1,635,-1
 573 747 l 1,636,-1
 568 747 l 1,637,-1
 564 747 l 1,638,-1
 559 747 l 1,639,-1
 555 747 l 1,640,-1
 552 747 l 1,641,-1
 536 743 l 1,642,-1
 520 783 l 1,643,644
 526 783 526 783 532 782 c 0,645,646
 533 781 533 781 534 781 c 2,647,648
 534 781 534 781 536 781 c 0,649,650
 544 779 544 779 554 779 c 0,651,652
 570 779 570 779 584 777 c 0,653,654
 600 775 600 775 632 775 c 2,655,-1
 816 775 l 1,656,-1
 848 811 l 1,657,-1
 888 775 l 2,658,659
 889 774 889 774 893 770 c 0,660,661
 894 769 894 769 898 765 c 2,662,663
 898 765 898 765 899 762 c 0,664,665
 903 757 903 757 904 751 c 1,666,667
 903 751 903 751 903 749 c 1,668,669
 902 749 902 749 902 747 c 0,670,671
 901 746 901 746 901 745 c 0,672,673
 900 744 900 744 900 743 c 2,674,-1
 898 742 l 2,675,676
 893 740 893 740 888 739 c 2,677,-1
 864 735 l 2,678,679
 862 732 862 732 857 726 c 2,680,-1
 853 721 l 2,681,682
 818 675 818 675 788 659 c 1,683,-1
 772 647 l 1,559,560
732 667 m 1,684,685
 739 675 739 675 750 681 c 0,686,687
 759 687 759 687 771 697 c 0,688,689
 780 704 780 704 786 711 c 0,690,691
 791 716 791 716 794 719 c 0,692,693
 799 726 799 726 800 727 c 2,694,-1
 820 747 l 1,695,-1
 604 751 l 1,696,697
 616 739 616 739 631 727 c 0,698,699
 633 726 633 726 635 724 c 0,700,701
 648 713 648 713 676 697 c 0,702,703
 700 683 700 683 708 679 c 2,704,-1
 732 667 l 1,684,685
EndSplineSet
EndChar
StartChar: uF0006
Encoding: 983046 983046 106
Width: 1024
Flags: W
LayerCount: 2
Back
Fore
SplineSet
464 91 m 1,0,1
 453 80 453 80 440 65 c 0,2,3
 420 42 420 42 354 -5 c 0,4,5
 295 -46 295 -46 216 -79 c 0,6,7
 175 -95 175 -95 136 -106 c 0,8,9
 121 -111 121 -111 104 -115 c 0,10,11
 96 -117 96 -117 91 -118 c 0,12,13
 82 -120 82 -120 80 -120 c 2,14,-1
 36 -132 l 1,15,-1
 32 -112 l 1,16,17
 62 -103 62 -103 88 -94 c 2,18,-1
 100 -89 l 1,19,-1
 112 -85 l 1,20,21
 220 -44 220 -44 275 -13 c 0,22,23
 325 14 325 14 360 45 c 0,24,25
 377 59 377 59 392 77 c 0,26,27
 403 89 403 89 407 95 c 2,28,-1
 413 103 l 2,29,30
 419 110 419 110 420 111 c 2,31,-1
 428 119 l 1,32,33
 420 126 420 126 404 139 c 0,34,35
 375 164 375 164 330 217 c 0,36,37
 280 275 280 275 246 334 c 2,38,-1
 236 351 l 1,39,-1
 226 368 l 2,40,41
 209 396 209 396 188 439 c 2,42,-1
 168 479 l 1,43,-1
 188 491 l 1,44,45
 207 460 207 460 223 429 c 0,46,47
 254 367 254 367 307 297 c 0,48,49
 361 227 361 227 392 201 c 0,50,51
 394 200 394 200 405 190 c 0,52,53
 431 168 431 168 432 167 c 2,54,-1
 440 159 l 1,55,-1
 448 151 l 1,56,57
 474 187 474 187 490 253 c 0,58,59
 491 256 491 256 495 273 c 0,60,61
 507 318 507 318 515 385 c 0,62,63
 528 487 528 487 528 543 c 2,64,-1
 528 551 l 1,65,-1
 528 559 l 1,66,-1
 528 567 l 1,67,-1
 528 575 l 1,68,-1
 528 587 l 1,69,-1
 168 587 l 2,70,71
 155 587 155 587 130 586 c 2,72,-1
 124 585 l 2,73,74
 110 584 110 584 101 584 c 0,75,76
 96 584 96 584 94 583 c 0,77,78
 92 583 92 583 92 583 c 1,79,-1
 76 583 l 1,80,-1
 48 631 l 2,81,82
 52 630 52 630 59 629 c 0,83,84
 107 620 107 620 152 619 c 2,85,-1
 528 615 l 1,86,-1
 528 627 l 1,87,-1
 528 647 l 1,88,-1
 528 703 l 1,89,-1
 524 747 l 1,90,-1
 524 787 l 1,91,-1
 520 803 l 1,92,-1
 576 791 l 2,93,94
 605 785 605 785 611 782 c 0,95,96
 622 776 622 776 622 765 c 0,97,98
 622 756 622 756 604 751 c 2,99,-1
 576 743 l 1,100,-1
 576 615 l 1,101,-1
 844 615 l 1,102,-1
 900 671 l 1,103,-1
 964 615 l 1,104,105
 976 611 976 611 976 602 c 0,106,107
 976 594 976 594 970 589 c 0,108,109
 969 589 969 589 968 589 c 0,110,111
 961 587 961 587 956 587 c 2,112,-1
 576 587 l 1,113,114
 572 547 572 547 572 519 c 0,115,116
 571 407 571 407 553 298 c 0,117,118
 541 230 541 230 496 139 c 2,119,-1
 488 123 l 1,120,121
 488 123 488 123 490 122 c 0,122,123
 496 117 496 117 513 105 c 2,124,-1
 522 99 l 1,125,-1
 531 93 l 2,126,127
 607 42 607 42 672 21 c 0,128,129
 707 10 707 10 761 -11 c 0,130,131
 855 -47 855 -47 928 -60 c 2,132,-1
 996 -72 l 1,133,-1
 996 -92 l 1,134,135
 941 -92 941 -92 928 -120 c 2,136,-1
 924 -128 l 1,137,138
 800 -91 800 -91 692 -42 c 0,139,140
 559 17 559 17 496 67 c 2,141,-1
 464 91 l 1,0,1
688 455 m 1,142,-1
 692 452 l 1,143,-1
 700 448 l 1,144,-1
 706 444 l 1,145,-1
 713 440 l 2,146,147
 720 436 720 436 722 435 c 0,148,149
 760 413 760 413 830 359 c 0,150,151
 886 315 886 315 886 269 c 0,152,153
 886 240 886 240 856 239 c 0,154,155
 850 242 850 242 844 247 c 0,156,157
 843 248 843 248 842 249 c 0,158,159
 841 249 841 249 840 252 c 0,160,161
 832 262 832 262 826 272 c 0,162,163
 782 349 782 349 704 415 c 2,164,-1
 676 439 l 1,165,-1
 688 455 l 1,142,-1
EndSplineSet
EndChar
StartChar: uF0007
Encoding: 983047 983047 107
Width: 1024
Flags: W
LayerCount: 2
Back
Fore
SplineSet
128 -88 m 1,0,-1
 108 -40 l 1,1,2
 119 -46 119 -46 130 -47 c 0,3,4
 144 -49 144 -49 173 -51 c 0,5,6
 188 -52 188 -52 202 -52 c 0,7,8
 207 -52 207 -52 214 -52 c 0,9,10
 226 -52 226 -52 228 -52 c 2,11,-1
 276 -56 l 1,12,-1
 328 335 l 1,13,-1
 144 339 l 1,14,-1
 142 339 l 2,15,16
 138 338 138 338 132 335 c 2,17,-1
 80 335 l 2,18,19
 69 335 69 335 60 331 c 1,20,-1
 52 331 l 1,21,-1
 36 375 l 1,22,23
 36 375 36 375 37 375 c 256,24,25
 38 375 38 375 40 375 c 0,26,27
 45 374 45 374 50 373 c 0,28,29
 77 368 77 368 152 367 c 2,30,-1
 332 363 l 1,31,-1
 380 711 l 1,32,-1
 256 711 l 1,33,-1
 256 715 l 1,34,-1
 248 715 l 2,35,36
 215 715 215 715 184 710 c 0,37,38
 164 707 164 707 156 707 c 2,39,-1
 152 707 l 1,40,-1
 132 751 l 1,41,42
 140 751 140 751 148 749 c 0,43,44
 169 744 169 744 252 743 c 2,45,-1
 732 739 l 1,46,-1
 772 783 l 1,47,-1
 804 759 l 2,48,49
 805 759 805 759 809 754 c 0,50,51
 815 748 815 748 824 741 c 0,52,53
 832 735 832 735 832 724 c 256,54,55
 832 713 832 713 812 703 c 2,56,-1
 788 691 l 1,57,-1
 764 367 l 1,58,-1
 860 367 l 1,59,-1
 916 419 l 1,60,-1
 980 367 l 2,61,62
 990 359 990 359 990 348 c 0,63,64
 990 335 990 335 976 335 c 2,65,-1
 760 335 l 1,66,-1
 728 -88 l 2,67,68
 727 -99 727 -99 724 -111 c 0,69,70
 723 -111 723 -111 722 -113 c 0,71,72
 713 -121 713 -121 696 -121 c 0,73,74
 689 -121 689 -121 684 -116 c 2,75,-1
 682 -114 l 1,76,-1
 681 -112 l 2,77,78
 679 -109 679 -109 679 -109 c 2,79,80
 678 -107 678 -107 678 -107 c 2,81,82
 678 -106 678 -106 678 -104 c 0,83,84
 679 -99 679 -99 679 -99 c 2,85,86
 680 -97 680 -97 680 -96 c 2,87,-1
 680 -84 l 1,88,-1
 224 -84 l 2,89,90
 207 -84 207 -84 188 -85 c 0,91,92
 175 -86 175 -86 170 -86 c 0,93,94
 164 -87 164 -87 153 -87 c 2,95,-1
 145 -88 l 1,96,-1
 138 -88 l 1,97,-1
 136 -88 l 1,98,-1
 128 -88 l 1,0,-1
376 335 m 1,99,-1
 320 -56 l 1,100,-1
 684 -56 l 1,101,-1
 712 335 l 1,102,-1
 376 335 l 1,99,-1
380 363 m 1,103,-1
 716 363 l 1,104,-1
 740 711 l 1,105,-1
 428 711 l 1,106,-1
 380 363 l 1,103,-1
EndSplineSet
EndChar
StartChar: uF0008
Encoding: 983048 983048 108
Width: 1024
Flags: W
LayerCount: 2
Back
Fore
SplineSet
68 331 m 1,0,-1
 48 375 l 2,1,2
 49 375 49 375 50 375 c 0,3,4
 57 375 57 375 66 373 c 0,5,6
 87 368 87 368 168 367 c 2,7,-1
 384 363 l 1,8,-1
 428 715 l 1,9,-1
 280 715 l 1,10,-1
 273 715 l 1,11,-1
 267 715 l 1,12,-1
 260 715 l 1,13,-1
 254 715 l 2,14,15
 231 715 231 715 216 713 c 0,16,17
 200 711 200 711 192 711 c 2,18,-1
 184 707 l 1,19,-1
 164 755 l 1,20,21
 172 755 172 755 180 753 c 0,22,23
 219 743 219 743 284 743 c 2,24,-1
 824 743 l 1,25,-1
 864 787 l 1,26,-1
 892 763 l 1,27,28
 922 748 922 748 924 727 c 0,29,30
 921 721 921 721 914 716 c 0,31,32
 910 713 910 713 900 703 c 1,33,-1
 880 695 l 1,34,-1
 824 -80 l 2,35,36
 824 -82 824 -82 820 -100 c 0,37,38
 817 -117 817 -117 810 -124 c 0,39,40
 803 -128 803 -128 786 -128 c 2,41,-1
 783 -128 l 1,42,-1
 780 -128 l 2,43,44
 779 -128 779 -128 776 -126 c 0,45,46
 772 -124 772 -124 772 -124 c 1,47,48
 768 -116 768 -116 768 -108 c 2,49,-1
 768 -80 l 1,50,-1
 228 -80 l 2,51,52
 216 -80 216 -80 203 -83 c 0,53,54
 195 -84 195 -84 174 -84 c 2,55,-1
 168 -84 l 2,56,57
 152 -84 152 -84 136 -88 c 1,58,-1
 128 -88 l 1,59,-1
 112 -40 l 1,60,61
 119 -46 119 -46 129 -47 c 0,62,63
 148 -50 148 -50 207 -52 c 0,64,65
 210 -52 210 -52 218 -52 c 2,66,-1
 221 -52 l 1,67,-1
 226 -52 l 1,68,-1
 232 -52 l 1,69,-1
 324 -52 l 1,70,-1
 380 335 l 1,71,-1
 168 339 l 2,72,73
 157 339 157 339 142 337 c 0,74,75
 119 334 119 334 84 332 c 0,76,77
 79 332 79 332 78 331 c 0,78,79
 76 331 76 331 76 331 c 1,80,-1
 68 331 l 1,0,-1
424 335 m 1,81,-1
 372 -52 l 1,82,-1
 772 -52 l 1,83,-1
 804 335 l 1,84,-1
 424 335 l 1,81,-1
428 363 m 1,85,-1
 804 363 l 1,86,-1
 832 715 l 1,87,-1
 476 715 l 1,88,-1
 428 363 l 1,85,-1
EndSplineSet
EndChar
StartChar: uF0009
Encoding: 983049 983049 109
Width: 1024
Flags: W
LayerCount: 2
Back
Fore
SplineSet
52 335 m 1,0,-1
 32 379 l 1,1,2
 41 379 41 379 50 377 c 2,3,-1
 54 376 l 2,4,5
 67 373 67 373 76 371 c 2,6,-1
 132 371 l 2,7,8
 136 369 136 369 144 367 c 2,9,-1
 332 371 l 1,10,-1
 380 719 l 1,11,-1
 268 719 l 1,12,-1
 268 715 l 1,13,-1
 228 715 l 1,14,-1
 213 715 l 1,15,-1
 198 715 l 1,16,-1
 183 715 l 2,17,18
 154 715 154 715 140 711 c 1,19,-1
 132 711 l 1,20,-1
 116 755 l 1,21,-1
 117 755 l 1,22,23
 117 755 117 755 120 755 c 0,24,25
 124 754 124 754 128 753 c 0,26,27
 169 743 169 743 232 743 c 2,28,-1
 752 743 l 1,29,-1
 792 787 l 1,30,-1
 820 767 l 2,31,32
 852 744 852 744 852 732 c 0,33,34
 852 727 852 727 846 718 c 1,35,-1
 846 717 l 2,36,37
 845 717 845 717 842 715 c 0,38,39
 835 710 835 710 828 707 c 2,40,-1
 808 695 l 1,41,-1
 752 -48 l 1,42,-1
 860 -48 l 1,43,-1
 912 3 l 1,44,-1
 980 -48 l 2,45,46
 989 -55 989 -55 989 -65 c 0,47,48
 989 -80 989 -80 972 -80 c 2,49,-1
 156 -80 l 1,50,-1
 139 -80 l 1,51,-1
 122 -80 l 1,52,-1
 105 -80 l 1,53,-1
 88 -80 l 2,54,55
 77 -80 77 -80 68 -84 c 1,56,-1
 60 -84 l 1,57,-1
 40 -40 l 2,58,59
 41 -40 41 -40 42 -40 c 0,60,61
 48 -40 48 -40 56 -42 c 0,62,63
 81 -48 81 -48 160 -48 c 2,64,-1
 276 -48 l 1,65,-1
 328 343 l 1,66,-1
 148 339 l 1,67,-1
 134 339 l 1,68,-1
 120 339 l 1,69,-1
 106 339 l 2,70,71
 70 339 70 339 60 335 c 1,72,-1
 52 335 l 1,0,-1
376 343 m 1,73,-1
 320 -48 l 1,74,-1
 704 -48 l 1,75,-1
 732 343 l 1,76,-1
 376 343 l 1,73,-1
380 371 m 1,77,-1
 732 371 l 1,78,-1
 760 719 l 1,79,-1
 428 719 l 1,80,-1
 380 371 l 1,77,-1
EndSplineSet
EndChar
StartChar: uF000A
Encoding: 983050 983050 110
Width: 1024
Flags: W
LayerCount: 2
Back
Fore
SplineSet
840 719 m 1,0,-1
 896 775 l 1,1,-1
 964 723 l 2,2,3
 978 712 978 712 978 704 c 0,4,5
 978 691 978 691 964 691 c 2,6,-1
 480 691 l 1,7,-1
 428 419 l 1,8,-1
 840 419 l 1,9,-1
 876 455 l 1,10,-1
 900 435 l 2,11,12
 901 434 901 434 906 431 c 0,13,14
 907 430 907 430 912 426 c 0,15,16
 915 424 915 424 918 422 c 0,17,18
 932 411 932 411 932 399 c 0,19,20
 932 389 932 389 912 379 c 2,21,-1
 896 371 l 1,22,-1
 876 183 l 2,23,24
 865 83 865 83 845 8 c 0,25,26
 826 -62 826 -62 790 -101 c 0,27,28
 769 -123 769 -123 728 -136 c 2,29,-1
 704 -144 l 1,30,31
 704 -94 704 -94 612 -76 c 1,32,-1
 516 -52 l 1,33,-1
 520 -28 l 1,34,-1
 640 -52 l 1,35,36
 666 -64 666 -64 709 -64 c 2,37,-1
 714 -64 l 1,38,-1
 720 -64 l 2,39,40
 753 -64 753 -64 766 -50 c 0,41,42
 803 -10 803 -10 821 152 c 1,43,-1
 822 166 l 1,44,-1
 824 179 l 1,45,-1
 832 243 l 1,46,-1
 848 391 l 1,47,-1
 252 391 l 2,48,49
 214 391 214 391 194 389 c 2,50,-1
 190 389 l 2,51,52
 174 387 174 387 168 387 c 2,53,-1
 160 383 l 1,54,-1
 140 431 l 1,55,56
 163 419 163 419 240 419 c 2,57,-1
 384 419 l 1,58,-1
 432 691 l 1,59,-1
 180 691 l 1,60,-1
 88 683 l 1,61,-1
 68 731 l 1,62,63
 68 731 68 731 71 730 c 0,64,65
 84 724 84 724 98 722 c 0,66,67
 124 719 124 719 220 719 c 2,68,-1
 840 719 l 1,0,-1
EndSplineSet
EndChar
